<svg width="135" height="50" viewBox="0 0 135 50" fill="none" xmlns="http://www.w3.org/2000/svg">
<g clip-path="url(#clip0_1136_3675)">
<path d="M134.342 24.3674V19.7092C133.507 19.7457 131.002 20.1175 129.894 21.5681V20.03H125.218V35.5499H129.894V28.2164C130.561 24.761 133.587 24.3966 134.355 24.3674H134.342ZM92.4625 24.5496C91.9608 24.0599 91.3873 23.6657 90.7659 23.3833C90.2543 23.1111 89.692 22.9714 89.1228 22.975C88.7012 22.9705 88.2838 23.0676 87.9005 23.2593C87.7259 23.3367 87.5778 23.4718 87.4772 23.6457C87.3766 23.8196 87.3284 24.0236 87.3394 24.2289C87.3348 24.4371 87.3922 24.6413 87.503 24.8109C87.6138 24.9805 87.772 25.1062 87.9539 25.1693C88.6065 25.4329 89.2763 25.6425 89.9577 25.7962C90.5127 25.9275 91.0576 26.1054 91.5875 26.3284C92.1204 26.5502 92.6202 26.8573 93.0703 27.2396C93.5095 27.6167 93.8733 28.0881 94.139 28.6246C94.4188 29.2244 94.5566 29.891 94.5398 30.5637C94.569 31.3853 94.3992 32.2007 94.0474 32.9277C93.6955 33.6547 93.1742 34.2676 92.5359 34.7043C91.9238 35.1374 91.2449 35.4461 90.5321 35.6155C89.8146 35.8035 89.0793 35.8989 88.3413 35.8998C87.1719 35.8999 86.0102 35.6931 84.9015 35.2875C83.8487 34.9301 82.8862 34.3113 82.0895 33.4796L84.4005 30.3232C84.9638 30.8847 85.6038 31.3471 86.2974 31.6936C86.9045 32.0269 87.575 32.1992 88.2545 32.1966C88.651 32.1922 89.0414 32.09 89.3967 31.8977C89.5772 31.8062 89.7277 31.6565 89.828 31.4689C89.9283 31.2812 89.9735 31.0646 89.9577 30.848C89.9602 30.6172 89.8973 30.3912 89.7778 30.2007C89.6583 30.0102 89.4879 29.8646 89.2898 29.7837C88.5932 29.4674 87.8709 29.2233 87.1324 29.0547C86.6217 28.9239 86.1196 28.7559 85.6295 28.5517C85.1467 28.3471 84.6961 28.0619 84.2936 27.7061C83.9092 27.3481 83.5917 26.9125 83.3585 26.4231C83.0978 25.8379 82.9695 25.1929 82.9845 24.5424C82.9626 23.701 83.152 22.8691 83.5322 22.1367C83.89 21.4776 84.3812 20.9166 84.9682 20.4965C85.5514 20.0701 86.1977 19.7569 86.8785 19.5707C87.5633 19.3751 88.268 19.2746 88.9759 19.2718C90.0466 19.2706 91.1108 19.4552 92.1285 19.8186C93.1001 20.1499 93.9921 20.7126 94.7401 21.4661L92.4625 24.5496ZM119.828 25.7743C119.822 25.0599 119.586 24.3706 119.16 23.828C118.885 23.5212 118.552 23.2844 118.183 23.1344C117.815 22.9845 117.421 22.9251 117.029 22.9605C116.603 22.9566 116.18 23.0355 115.78 23.1937C115.416 23.3388 115.079 23.5536 114.785 23.828C114.51 24.0959 114.284 24.4173 114.117 24.7756C113.969 25.0866 113.876 25.4255 113.843 25.7743H119.828ZM124.136 27.8811V28.5007C124.146 28.6974 124.146 28.8945 124.136 29.0912H113.823C113.853 29.5077 113.974 29.9103 114.177 30.2648C114.378 30.6207 114.639 30.9323 114.945 31.1833C115.265 31.4447 115.622 31.6489 116.001 31.7884C116.39 31.9341 116.798 32.008 117.209 32.0071C117.862 32.0278 118.509 31.8726 119.093 31.5551C119.585 31.2743 120.012 30.8755 120.342 30.3888L123.595 32.6267C122.917 33.6818 121.995 34.5219 120.923 35.0615C119.74 35.6428 118.453 35.9292 117.156 35.8998C116.126 35.9064 115.103 35.7215 114.13 35.3531C113.212 35.0118 112.365 34.474 111.639 33.7712C110.918 33.0602 110.346 32.1874 109.962 31.2125C109.535 30.1161 109.326 28.9336 109.348 27.7426C109.334 26.5662 109.536 25.3988 109.942 24.3091C110.317 23.3308 110.869 22.4455 111.565 21.7066C112.266 20.9844 113.09 20.4197 113.99 20.0446C114.96 19.6414 115.991 19.4411 117.029 19.4541C118.014 19.444 118.991 19.6395 119.908 20.03C120.761 20.3972 121.529 20.9646 122.159 21.692C122.806 22.4524 123.306 23.3475 123.628 24.3237C123.994 25.4616 124.172 26.6609 124.156 27.8665L124.136 27.8811ZM67.809 24.2362V19.5488H63.8014V16.0716C63.7012 14.0669 62.8329 12.5725 59.2862 12.5725V30.6293C59.2829 31.3529 59.3683 32.0737 59.54 32.7725C59.6914 33.3865 59.9651 33.9565 60.3415 34.4419C60.7446 34.9254 61.252 35.2912 61.8176 35.5062C62.6077 35.7805 63.4333 35.9135 64.2623 35.8998C65.4699 35.916 66.6707 35.6988 67.809 35.2583V31.1032C67.0492 31.3157 66.2689 31.4283 65.4846 31.4385C65.2404 31.4715 64.9925 31.4419 64.7606 31.352C64.5287 31.2622 64.3192 31.1146 64.1487 30.9209C63.8816 30.4476 63.7621 29.8926 63.8081 29.339V24.2362H67.809Z" fill="#008FB4"/>
<path d="M105.314 27.2689L110.59 19.9791H105.006L100.331 26.4232V16.2175C100.244 14.1181 99.4091 12.5727 95.8089 12.5727V35.5501H100.331V28.1291L105.674 35.5501H111.318L105.314 27.2689ZM81.2947 35.5355V25.2569C81.2947 20.832 78.0753 19.2428 75.2232 19.2428C72.9775 19.1205 70.7683 19.8983 69.0114 21.4297L71.3692 24.6227C72.3186 23.7126 73.505 23.1493 74.7623 23.0116C76.4789 23.0116 76.8329 24.0832 76.8329 25.4537V25.7161H75.29C71.3225 25.7161 68.9379 27.5896 68.9379 30.9283C68.9379 34.5732 71.8768 35.5209 75.457 35.5209L81.2947 35.5355ZM76.8329 32.3061H75.3501C74.1946 32.3061 73.4866 31.7812 73.4866 30.6951C73.4866 29.6089 74.1946 28.982 75.6106 28.982H76.8329V32.3061ZM42.815 15.3938C42.815 16.1478 43.0895 16.8709 43.578 17.4041C44.0665 17.9373 44.7291 18.2368 45.42 18.2368C46.1108 18.2368 46.7734 17.9373 47.2619 17.4041C47.7504 16.8709 48.0249 16.1478 48.0249 15.3938C48.0249 14.6398 47.7504 13.9167 47.2619 13.3835C46.7734 12.8503 46.1108 12.5508 45.42 12.5508C44.7291 12.5508 44.0665 12.8503 43.578 13.3835C43.0895 13.9167 42.815 14.6398 42.815 15.3938ZM43.2558 19.5854H43.0621V35.5501H47.7711V22.946C47.6375 21.0069 46.7291 19.5854 43.2558 19.5854ZM58.251 24.3675V19.7094C57.4227 19.7458 54.9113 20.1176 53.8025 21.5683V20.0301H49.127V35.5501H53.8025V28.3405C53.7993 28.2992 53.7993 28.2578 53.8025 28.2165C54.4705 24.7612 57.4895 24.3967 58.2643 24.3675H58.251ZM132.986 33.21H132.726V33.7495H132.986C133.02 33.7515 133.053 33.746 133.085 33.7333C133.116 33.7206 133.145 33.7011 133.17 33.6758C133.194 33.6506 133.213 33.6202 133.227 33.5865C133.24 33.5528 133.247 33.5164 133.247 33.4798C133.247 33.4431 133.24 33.4068 133.227 33.3731C133.213 33.3394 133.194 33.3089 133.17 33.2837C133.145 33.2584 133.116 33.2389 133.085 33.2262C133.053 33.2136 133.02 33.2081 132.986 33.21ZM133.247 34.7045L132.926 33.9755H132.726V34.7045H132.432V32.933H133.06C133.126 32.9311 133.193 32.9438 133.254 32.9705C133.316 32.9972 133.373 33.0372 133.42 33.0883C133.468 33.1394 133.505 33.2004 133.53 33.2677C133.556 33.3349 133.568 33.4071 133.567 33.4798C133.568 33.5858 133.538 33.6895 133.482 33.7759C133.425 33.8623 133.345 33.9271 133.253 33.9609L133.607 34.6899L133.247 34.7045ZM132.939 32.5175C132.695 32.5044 132.454 32.5714 132.245 32.7097C132.036 32.8481 131.87 33.0516 131.768 33.2939C131.666 33.5362 131.633 33.8063 131.674 34.0692C131.714 34.3322 131.825 34.576 131.993 34.7692C132.162 34.9623 132.379 35.0961 132.618 35.1531C132.856 35.2101 133.105 35.1878 133.332 35.089C133.559 34.9903 133.754 34.8196 133.891 34.5991C134.028 34.3785 134.101 34.1181 134.102 33.8515C134.106 33.6805 134.08 33.5102 134.023 33.3505C133.967 33.1907 133.883 33.0447 133.775 32.9207C133.667 32.7967 133.537 32.6972 133.394 32.628C133.251 32.5589 133.096 32.5213 132.939 32.5175ZM132.939 35.4917C132.642 35.5018 132.348 35.415 132.095 35.2423C131.842 35.0696 131.643 34.8188 131.521 34.5219C131.399 34.2249 131.361 33.8952 131.412 33.5746C131.462 33.254 131.599 32.957 131.804 32.7214C132.01 32.4858 132.275 32.3222 132.566 32.2514C132.857 32.1806 133.16 32.2059 133.438 32.3239C133.716 32.4419 133.955 32.6474 134.126 32.9142C134.296 33.181 134.39 33.4972 134.396 33.8224C134.401 34.2504 134.251 34.6632 133.978 34.9706C133.705 35.278 133.332 35.4549 132.939 35.4626V35.4917ZM29.9172 26.5472L32.0078 19.9864L34.0985 26.5472H29.9172ZM34.2053 12.5727H30.004L23.5184 31.2782H20.9669C19.2274 31.3587 17.5037 30.8877 16.0041 29.9223C15.4064 29.5038 14.9214 28.9194 14.5986 28.229C14.2759 27.5386 14.127 26.767 14.1673 25.9932V23.8062H12.0967C10.1707 23.7486 8.3263 22.945 6.89348 21.5391C5.77406 20.2577 5.07022 18.6112 4.88968 16.8518H19.4039C22.0422 16.8518 23.0174 18.2587 23.6252 19.5198C23.9239 20.1524 24.1483 20.8234 24.2932 21.5172L26.13 16.2175C26.13 16.2175 24.5937 12.5727 19.4039 12.5727H0.808594V14.7596C0.808594 18.8856 1.93072 22.1952 4.14827 24.5716C5.88899 26.3695 8.09114 27.5445 10.4603 27.9395C11.2952 32.6196 15.236 35.5355 20.9669 35.5355H26.9248L28.2607 31.322H35.7215L37.0574 35.5282H42.1538L34.2053 12.5727Z" fill="#008FB4"/>
</g>
<defs>
<clipPath id="clip0_1136_3675">
<rect width="133.781" height="48.6693" fill="white" transform="translate(0.808594 0.414062)"/>
</clipPath>
</defs>
</svg>
