<svg width="173" height="173" viewBox="0 0 173 173" fill="none" xmlns="http://www.w3.org/2000/svg">
<path d="M64.6218 81.0579C64.6647 81.015 64.7041 81.006 64.7435 81.0293C64.7811 81.049 64.8008 81.0776 64.8008 81.1152C64.8438 81.1546 64.8241 81.2137 64.7435 81.2943C61.3633 82.6836 57.9349 84.0066 54.4598 85.2616C50.983 86.5131 47.4954 87.6947 43.9971 88.8065L47.8714 109.252C47.952 109.848 47.6941 110.228 47.098 110.391C46.978 110.391 46.8581 110.378 46.7399 110.355C46.6199 110.335 46.5 110.307 46.3818 110.269C44.2334 108.88 42.085 107.507 39.9366 106.151C37.7918 104.801 35.6273 103.471 33.4413 102.162C31.497 100.888 29.3325 99.5664 26.946 98.195C24.563 96.8254 22.2983 95.7029 20.1499 94.8292C19.7094 94.6287 19.5913 94.3315 19.7918 93.934C19.8294 93.7335 20.0084 93.5956 20.3289 93.5187C23.8666 92.9225 27.4132 92.2153 30.9706 91.3989C34.5262 90.5825 38.055 89.6784 41.5551 88.6848L41.1326 86.6581C39.7039 80.1037 38.3343 73.5457 37.022 66.9859C32.8111 73.4651 28.3675 79.8459 23.6947 86.1282C19.0255 92.4069 13.9088 98.2666 8.34798 103.709C8.30501 103.752 8.24414 103.752 8.16894 103.709C8.12598 103.634 8.12598 103.573 8.16894 103.53C10.79 100.313 13.3412 97.0349 15.8244 93.6977C18.3112 90.3569 20.7084 86.9768 23.0144 83.5572C25.3955 80.1825 27.7086 76.7468 29.9537 73.2521C32.2024 69.7538 34.3973 66.2537 36.5422 62.7536C36.7803 62.3149 37.1598 62.0947 37.6808 62.0947C37.799 62.0947 37.9171 62.1162 38.0317 62.1592C38.1499 62.1986 38.2698 62.2576 38.3898 62.3382C38.7085 62.5351 38.909 62.8323 38.9913 63.2334C39.7827 67.0486 40.5471 70.8727 41.283 74.7058C42.017 78.5407 42.7439 82.3864 43.46 86.2427L43.8181 88.0331C47.3558 86.9983 50.8612 85.9044 54.3381 84.7532C57.8185 83.5984 61.2452 82.3667 64.6218 81.0579ZM22.7136 94.4711C24.6991 95.3842 26.6559 96.376 28.5859 97.4502C30.5141 98.5244 32.4119 99.6183 34.2792 100.73C36.1447 101.844 38.021 102.956 39.908 104.067C41.7986 105.179 43.6569 106.312 45.4867 107.469L41.7341 89.5226C38.5921 90.4787 35.4411 91.3738 32.2812 92.2081C29.1194 93.0389 25.9308 93.7944 22.7136 94.4711Z" fill="#83CD20"/>
<path d="M152.695 89.3046V90.9159H163.53V96.3513H125.546V97.9626H163.53V103.398H122.023C121.536 103.398 121.113 103.244 120.755 102.94C120.397 102.634 120.179 102.238 120.104 101.751V92.828C120.104 92.2945 120.293 91.8433 120.676 91.4745C121.063 91.1021 121.511 90.9159 122.023 90.9159H147.259V83.8691H160.816C161.555 83.8691 162.192 84.1377 162.728 84.6712C163.261 85.2065 163.53 85.8439 163.53 86.5833V89.3046H152.695Z" fill="white"/>
<path d="M101.651 88.5732V105.381C101.651 106.12 101.383 106.758 100.849 107.293C100.314 107.832 99.6767 108.102 98.9373 108.102H85.3379V102.667H96.216V101.055H85.3379V90.4853C85.3379 89.9518 85.5205 89.5006 85.8893 89.1318C86.2617 88.7594 86.7164 88.5732 87.2571 88.5732H101.651ZM96.216 95.62V93.9729H90.7805V95.62H96.216Z" fill="white"/>
<path d="M98.9785 101.055V95.6191H107.092V101.055H98.9785Z" fill="white"/>
<path d="M104.41 101.055V95.6191H112.524V101.055H104.41Z" fill="white"/>
<path d="M109.85 101.055V95.6191H117.963V101.055H109.85Z" fill="white"/>
<path d="M115.283 101.055V95.6191H123.397V101.055H115.283Z" fill="white"/>
<path d="M76.6671 91.2496L73.9458 93.9709L71.2316 91.2496L73.9458 88.5283L76.6671 91.2496ZM74.755 95.618H80.1904V106.188C80.1904 106.722 79.9989 107.173 79.6175 107.542C79.2344 107.914 78.7886 108.1 78.2784 108.1H64.1849C63.6442 108.1 63.1894 107.914 62.817 107.542C62.4482 107.173 62.2656 106.722 62.2656 106.188V97.5301C62.2656 96.9966 62.4482 96.5454 62.817 96.1766C63.1894 95.8042 63.6442 95.618 64.1849 95.618H73.1079V101.053H67.7082V102.665H74.755V95.618Z" fill="white"/>
<path d="M142.85 77.7731L150.881 75.22" stroke="#83CD20" stroke-width="1.17011" stroke-linecap="round"/>
<mask id="mask0_1182_2085" style="mask-type:luminance" maskUnits="userSpaceOnUse" x="90" y="77" width="6" height="6">
<path d="M90.9316 77.8389H95.6134V82.5206H90.9316V77.8389Z" fill="white"/>
</mask>
<g mask="url(#mask0_1182_2085)">
<mask id="mask1_1182_2085" style="mask-type:luminance" maskUnits="userSpaceOnUse" x="90" y="77" width="6" height="6">
<path d="M93.2734 77.8379C91.9808 77.8379 90.9316 78.8852 90.9316 80.1779C90.9316 81.4705 91.9808 82.5196 93.2734 82.5196C94.566 82.5196 95.6134 81.4705 95.6134 80.1779C95.6134 78.8852 94.566 77.8379 93.2734 77.8379Z" fill="white"/>
</mask>
<g mask="url(#mask1_1182_2085)">
<path d="M93.2734 77.8379C91.9808 77.8379 90.9316 78.8852 90.9316 80.1779C90.9316 81.4705 91.9808 82.5196 93.2734 82.5196C94.566 82.5196 95.6134 81.4705 95.6134 80.1779C95.6134 78.8852 94.566 77.8379 93.2734 77.8379Z" stroke="#83CD20" stroke-width="1.85808"/>
</g>
</g>
</svg>
