<svg width="119" height="50" viewBox="0 0 119 50" fill="none" xmlns="http://www.w3.org/2000/svg">
<g clip-path="url(#clip0_1136_3676)">
<path fill-rule="evenodd" clip-rule="evenodd" d="M115.052 32.8418C115.123 33.7235 115.769 34.8457 116.889 34.8457H117.544C117.798 34.8457 118.006 34.6186 118.006 34.3413V18.6193H118.003C117.99 18.3545 117.789 18.1423 117.544 18.1423H115.514C115.268 18.1423 115.068 18.3545 115.055 18.6193H115.052V19.8968C113.808 18.2239 111.848 17.5295 109.882 17.5295C105.413 17.5295 101.79 21.4864 101.79 26.3677C101.79 31.2494 105.413 35.2064 109.882 35.2064C111.848 35.2064 113.991 34.3736 115.052 32.8398V32.8418ZM109.889 32.1131C107.047 32.1131 104.743 29.541 104.743 26.3677C104.743 23.1951 107.047 20.6229 109.889 20.6229C112.733 20.6229 115.036 23.1951 115.036 26.3677C115.036 29.541 112.733 32.1131 109.889 32.1131Z" fill="#0D0E10"/>
<path fill-rule="evenodd" clip-rule="evenodd" d="M99.2237 25.247C99.2237 20.6611 96.5751 17.5674 92.3512 17.5674C90.3349 17.5674 88.6821 18.8409 88.0982 19.9348C87.9721 19.0795 87.5563 18.1803 86.267 18.1803H85.6098C85.3556 18.1803 85.148 18.4076 85.148 18.685V32.8811C85.148 32.8816 85.148 32.8826 85.148 32.8833V34.4083H85.1505C85.1638 34.6727 85.3645 34.885 85.61 34.885H87.6396C87.6707 34.885 87.7012 34.881 87.7306 34.8748C87.744 34.8719 87.7565 34.8661 87.7696 34.8621C87.7847 34.857 87.8004 34.8531 87.8148 34.8467C87.8328 34.8385 87.8492 34.8276 87.866 34.8173C87.8742 34.8118 87.8829 34.808 87.8908 34.8022C87.9111 34.7879 87.9296 34.7707 87.9476 34.7532C87.9505 34.75 87.954 34.7478 87.957 34.7448C87.9771 34.7235 87.9956 34.7 88.0119 34.6756C88.0627 34.5994 88.0937 34.5072 88.0988 34.4083H88.1014V25.1209C88.1014 22.658 89.9296 20.6611 92.1847 20.6611C94.4398 20.6611 96.2681 22.658 96.2681 25.1209L96.2699 32.8839L96.2704 32.8811C96.2704 32.888 96.2713 32.8951 96.2713 32.9024V34.4083H96.2741C96.2875 34.6727 96.488 34.885 96.7333 34.885H98.7631C98.7943 34.885 98.8246 34.881 98.854 34.8748C98.866 34.8724 98.8771 34.8671 98.8889 34.8635C98.9055 34.8582 98.9226 34.8537 98.9385 34.8467C98.9551 34.8392 98.9702 34.8287 98.9859 34.819C98.9956 34.8131 99.0056 34.8089 99.0148 34.8022C99.0335 34.7887 99.0507 34.7725 99.0676 34.7565C99.0718 34.7521 99.0766 34.7489 99.0806 34.7445C99.1 34.7242 99.1171 34.7023 99.1327 34.6794C99.1339 34.6776 99.1351 34.6763 99.1363 34.6745C99.1863 34.5991 99.2169 34.5079 99.2222 34.4095C99.2222 34.4088 99.2224 34.4083 99.2224 34.4083H99.2252L99.2237 25.247Z" fill="#0D0E10"/>
<path fill-rule="evenodd" clip-rule="evenodd" d="M78.0867 32.8417C78.1576 33.7234 78.8038 34.8457 79.9233 34.8457H80.5783C80.8322 34.8457 81.04 34.6186 81.04 34.3412V18.6193H81.0374C81.0242 18.3545 80.8234 18.1423 80.5783 18.1423H78.5486C78.3032 18.1423 78.1027 18.3545 78.089 18.6193H78.0867V19.8968C76.843 18.2239 74.8824 17.5295 72.9164 17.5295C68.4475 17.5295 64.8249 21.4864 64.8249 26.3678C64.8249 31.2494 68.4475 35.2064 72.9164 35.2064C74.8824 35.2064 77.0251 34.3737 78.0864 32.8398L78.0867 32.8417ZM72.9243 32.1131C70.0823 32.1131 67.778 29.5411 67.778 26.3678C67.778 23.1951 70.0823 20.6229 72.9243 20.6229C75.7666 20.6229 78.0704 23.1951 78.0704 26.3678C78.0704 29.5411 75.7666 32.1131 72.9243 32.1131Z" fill="#0D0E10"/>
<path fill-rule="evenodd" clip-rule="evenodd" d="M52.8224 30.5901C54.1774 31.6153 55.6563 32.1133 57.0775 32.1133C58.4315 32.1133 59.8313 31.3466 59.8313 30.0121C59.8313 28.2306 56.7812 27.9533 54.8648 27.242C52.9481 26.5306 51.2972 25.06 51.2972 22.6785C51.2972 19.0344 54.27 17.5293 57.0447 17.5293C58.8027 17.5293 60.6165 18.1625 61.7925 19.0695C62.1975 19.4047 61.9509 19.7895 61.9509 19.7895L60.8283 21.5406C60.7022 21.7379 60.4815 21.9083 60.1649 21.6948C59.8482 21.4815 58.7375 20.6227 57.0447 20.6227C55.3517 20.6227 54.332 21.4766 54.332 22.535C54.332 23.8042 55.6574 24.2034 57.2097 24.636C59.915 25.4324 62.8661 26.3898 62.8661 30.0121C62.8661 33.2229 60.1164 35.2071 57.0775 35.2071C54.7747 35.2071 52.814 34.4901 51.1696 33.172C50.827 32.7976 51.0662 32.4498 51.0662 32.4498L52.1833 30.7076C52.4106 30.3819 52.6971 30.4955 52.8224 30.5901Z" fill="#0D0E10"/>
<path fill-rule="evenodd" clip-rule="evenodd" d="M45.0197 32.8417C45.0907 33.7234 45.7369 34.8457 46.8563 34.8457H47.5113C47.7652 34.8457 47.9733 34.6186 47.9733 34.3412V18.6193H47.9705C47.9572 18.3545 47.7567 18.1423 47.5113 18.1423H45.4817C45.2363 18.1423 45.0358 18.3545 45.0222 18.6193H45.0197V19.8968C43.7762 18.2239 41.8156 17.5295 39.8495 17.5295C35.3806 17.5295 31.7578 21.4864 31.7578 26.3678C31.7578 31.2494 35.3806 35.2064 39.8495 35.2064C41.8156 35.2064 43.9582 34.3737 45.0194 32.8398L45.0197 32.8417ZM39.8574 32.1131C37.0152 32.1131 34.7111 29.5411 34.7111 26.3678C34.7111 23.1951 37.0152 20.6229 39.8574 20.6229C42.6996 20.6229 45.0035 23.1951 45.0035 26.3678C45.0035 29.5411 42.6996 32.1131 39.8574 32.1131Z" fill="#0D0E10"/>
<path fill-rule="evenodd" clip-rule="evenodd" d="M20.4133 26.9677C17.406 26.9677 14.9679 29.6285 14.9679 32.911C14.9679 36.1933 17.406 38.8541 20.4133 38.8541C23.4207 38.8541 25.8587 36.1933 25.8587 32.911C25.8587 29.6285 23.4207 26.9677 20.4133 26.9677ZM6.26572 26.9683C3.25833 26.9683 0.820312 29.6285 0.820312 32.911C0.820312 36.1933 3.25833 38.8541 6.26572 38.8541C9.27324 38.8541 11.7114 36.1933 11.7114 32.911C11.7114 29.6285 9.27324 26.9683 6.26572 26.9683ZM18.7848 19.5387C18.7848 22.8212 16.347 25.4822 13.3395 25.4822C10.332 25.4822 7.89414 22.8212 7.89414 19.5387C7.89414 16.2568 10.332 13.5957 13.3395 13.5957C16.347 13.5957 18.7848 16.2568 18.7848 19.5387Z" fill="#F06A6A"/>
</g>
<defs>
<clipPath id="clip0_1136_3676">
<rect width="117.988" height="48.6693" fill="white" transform="translate(0.820312 0.414062)"/>
</clipPath>
</defs>
</svg>
