<svg width="160" height="46" viewBox="0 0 160 46" fill="none" xmlns="http://www.w3.org/2000/svg">
<g clip-path="url(#clip0_1074_4289)">
<path fill-rule="evenodd" clip-rule="evenodd" d="M59.6709 20.9086L56.7865 20.2828C55.3432 19.9699 54.5486 19.0797 54.5486 17.7752C54.5486 16.1173 56.0206 14.8666 57.9728 14.8666C60.6743 14.8666 61.472 16.8542 61.6527 17.4641C61.71 17.6668 61.851 17.8387 62.0405 17.9334C62.2256 18.0282 62.4327 18.0423 62.631 17.9731L64.1514 17.4368C64.334 17.3719 64.4849 17.2399 64.5733 17.0676C64.6618 16.8952 64.6811 16.6956 64.6274 16.5095C64.2352 15.1302 62.7941 11.9219 57.9067 11.9219C54.2886 11.9219 51.2346 14.6895 51.2346 17.966C51.2346 20.7821 53.0824 22.8622 56.1792 23.5365L58.9292 24.1358C60.5844 24.484 61.5733 25.4932 61.5733 26.8329C61.5733 28.5428 60.1675 29.6049 57.9023 29.6049C55.2405 29.6049 53.9581 27.8597 53.6452 26.2247C53.6254 26.1193 53.5835 26.0193 53.5221 25.9313C53.4607 25.8433 53.3814 25.7694 53.2893 25.7144C53.1972 25.6594 53.0945 25.6246 52.988 25.6123C52.8814 25.6 52.7735 25.6104 52.6713 25.643L51.001 26.1762C50.8255 26.2297 50.6758 26.3461 50.5807 26.503C50.4855 26.6599 50.4516 26.8464 50.4854 27.0268C51.0054 29.7371 53.2323 32.6281 57.9332 32.6281C61.9056 32.6281 64.9015 30.0412 64.9015 26.6125C64.9015 23.7171 62.9906 21.6371 59.6572 20.9011L59.6709 20.9086ZM76.7351 23.5453C76.7439 23.6026 76.7175 23.6466 76.6999 23.6643C76.6853 23.6823 76.6668 23.6968 76.6458 23.7068C76.6248 23.7167 76.6019 23.7217 76.5787 23.7216H70.453C70.4286 23.7216 70.4045 23.716 70.3826 23.7053C70.3607 23.6946 70.3415 23.6791 70.3265 23.6599C70.3125 23.6437 70.3025 23.6246 70.2971 23.604C70.2918 23.5833 70.2913 23.5617 70.2956 23.5409C70.5755 22.2637 71.6706 20.976 73.4863 20.976C75.2698 20.976 76.483 21.9323 76.732 23.5378L76.7351 23.5453ZM73.4625 18.1159C70.2366 18.1159 66.9005 20.8129 66.9005 25.3301C66.9005 27.5071 67.6144 29.3669 68.9674 30.7022C70.2207 31.9406 71.9333 32.6236 73.7886 32.6236C76.5518 32.6236 78.7905 31.1799 79.7777 28.7631C79.857 28.5648 79.8526 28.3445 79.7671 28.1506C79.725 28.0565 79.6639 27.9721 79.5877 27.9026C79.5115 27.8332 79.4218 27.7802 79.3242 27.7469L77.9757 27.2797C77.7952 27.2178 77.598 27.2261 77.4234 27.3032C77.2488 27.3802 77.1098 27.5202 77.0339 27.6953C76.4522 29.0659 75.3593 29.7578 73.786 29.7578C71.8821 29.7578 70.4323 28.4754 70.1811 26.5658C70.1779 26.5444 70.1796 26.5226 70.1861 26.502C70.1926 26.4814 70.2037 26.4625 70.2185 26.4468C70.2361 26.4248 70.2758 26.3895 70.3375 26.3895H79.2766C79.6776 26.3895 80.0126 26.0766 80.0346 25.6774C80.0434 25.5496 80.0478 25.4085 80.0478 25.2693C80.0478 20.8535 77.5226 18.111 73.4594 18.111L73.4625 18.1159ZM88.6842 28.8336C86.538 28.8336 85.2027 27.3441 85.2027 24.9467C85.2027 22.5846 86.5688 21.058 88.6842 21.058C90.7334 21.058 92.1102 22.618 92.1102 24.9449C92.1102 27.2692 90.7325 28.8319 88.6837 28.8319L88.6842 28.8336ZM94.4044 18.5213H92.7871C92.3684 18.5213 92.0269 18.862 92.0269 19.3014C92.0267 19.3324 92.0175 19.3628 92.0002 19.3886C91.983 19.4145 91.9585 19.4347 91.9299 19.4468C91.8991 19.46 91.8374 19.4776 91.7818 19.4248C90.9489 18.6632 89.7767 18.2767 88.3003 18.2767C84.6412 18.2767 81.9851 21.084 81.9851 24.9489C81.9851 28.7971 84.6412 31.5902 88.3003 31.5902C89.6533 31.5902 90.8784 31.146 91.751 30.3395C91.8083 30.2866 91.87 30.2998 91.9008 30.3131C91.9229 30.3219 91.9978 30.3615 91.9978 30.4585V31.0138C91.9978 33.702 90.8211 34.9558 88.3003 34.9558C86.7006 34.9558 85.4446 33.9642 85.1053 32.4315C85.0612 32.2332 84.9422 32.0657 84.7703 31.9586C84.5985 31.8515 84.3913 31.8176 84.193 31.8617L82.6048 32.2275C82.4097 32.2739 82.2407 32.395 82.134 32.5648C82.0274 32.7346 81.9916 32.9394 82.0345 33.1353C82.603 35.9205 85.122 37.7935 88.2968 37.7935C90.6634 37.7935 92.4658 37.0729 93.6557 35.6517C94.6385 34.4768 95.1585 32.8458 95.1585 30.9349V19.293C95.1585 18.8743 94.8191 18.535 94.4005 18.535L94.4044 18.5213ZM113.632 18.1406C111.843 18.1406 110.387 18.8157 109.422 20.0973C109.405 20.121 109.383 20.1401 109.357 20.1528C109.331 20.1654 109.303 20.1712 109.274 20.1695C109.253 20.1698 109.232 20.1644 109.213 20.154C109.195 20.1435 109.179 20.1284 109.168 20.11C108.359 18.8585 106.961 18.1401 105.334 18.1401C104.04 18.1401 102.796 18.5949 101.92 19.3895C101.899 19.4116 101.871 19.4265 101.841 19.432C101.811 19.4375 101.78 19.4335 101.752 19.4203C101.725 19.4092 101.702 19.3901 101.686 19.3655C101.671 19.3409 101.663 19.312 101.664 19.2828C101.664 18.8642 101.323 18.5248 100.904 18.5248H99.368C98.9493 18.5248 98.61 18.8642 98.61 19.2828V31.4593C98.61 31.878 98.9511 32.2182 99.3698 32.2182H100.987C101.406 32.2182 101.745 31.8762 101.745 31.4576V24.0349C101.745 22.2311 102.847 21.0188 104.491 21.0188C106.641 21.0188 106.963 22.7053 106.963 23.7101V31.4708C106.963 31.8894 107.302 32.2288 107.721 32.2288H109.366C109.785 32.2288 110.124 31.8877 110.124 31.469V24.0084C110.124 22.2474 111.243 21.0179 112.843 21.0179C114.995 21.0179 115.316 22.7057 115.316 23.7105V31.4712C115.316 31.8899 115.655 32.2292 116.074 32.2292H117.691C118.11 32.2292 118.449 31.8881 118.449 31.4695V23.4355C118.449 19.7866 116.029 18.1547 113.632 18.1547V18.1406ZM124.566 23.7321C124.541 23.732 124.518 23.7265 124.496 23.716C124.474 23.7055 124.455 23.6902 124.439 23.6713C124.426 23.6552 124.416 23.6363 124.411 23.616C124.406 23.5957 124.406 23.5746 124.41 23.5541C124.69 22.2761 125.785 20.9892 127.603 20.9892C129.386 20.9892 130.599 21.9455 130.848 23.5497C130.857 23.607 130.829 23.651 130.813 23.6687C130.797 23.6851 130.778 23.6982 130.757 23.7073C130.737 23.7163 130.714 23.7212 130.691 23.7216H124.566V23.7321ZM127.576 18.1265C124.35 18.1265 121.014 20.8253 121.014 25.3407C121.014 27.5204 121.728 29.3788 123.079 30.7154C124.33 31.9538 126.04 32.6325 127.9 32.6325C130.659 32.6325 132.898 31.187 133.889 28.7675C133.968 28.5692 133.964 28.3489 133.876 28.155C133.788 27.9611 133.629 27.82 133.431 27.7495L132.082 27.2833C131.708 27.1541 131.293 27.3362 131.14 27.6984C130.558 29.0655 129.465 29.7609 127.892 29.7609C125.988 29.7609 124.538 28.4758 124.287 26.5658C124.284 26.5442 124.285 26.5221 124.291 26.5011C124.297 26.4801 124.308 26.4607 124.323 26.4442C124.34 26.4221 124.38 26.3891 124.441 26.3891H133.383C133.784 26.3891 134.118 26.0762 134.141 25.6765C134.149 25.5487 134.154 25.4077 134.154 25.2666C134.154 20.8508 131.629 18.1053 127.566 18.1053L127.576 18.1265ZM143.78 18.1542C142.412 18.1542 141.212 18.6205 140.312 19.5028C140.291 19.5235 140.265 19.5376 140.236 19.5431C140.207 19.5486 140.177 19.5453 140.151 19.5336C140.123 19.5215 140.099 19.5015 140.083 19.4761C140.066 19.4507 140.058 19.4211 140.058 19.3908V19.2939C140.058 18.8752 139.717 18.5359 139.298 18.5359H137.712C137.293 18.5359 136.952 18.8752 136.952 19.2939V31.4681C136.952 31.8868 137.291 32.2275 137.71 32.2275H139.354C139.772 32.2275 140.114 31.8859 140.114 31.4673V24.3601C140.114 22.7701 140.835 21.0708 142.86 21.0708C144.68 21.0708 145.603 22.0769 145.603 24.0609V31.4646C145.603 31.8833 145.943 32.2226 146.361 32.2226H148.005C148.424 32.2226 148.764 31.8789 148.764 31.4602V23.625C148.764 20.2493 146.852 18.1516 143.78 18.1516L143.78 18.1542ZM156.423 21.4515H158.34C158.759 21.4515 159.098 21.11 159.098 20.6918V19.293C159.098 18.8743 158.759 18.535 158.34 18.535H156.423C156.403 18.535 156.383 18.531 156.364 18.5232C156.346 18.5155 156.329 18.5041 156.314 18.4898C156.3 18.4755 156.289 18.4585 156.281 18.4398C156.273 18.4211 156.269 18.401 156.269 18.3807V15.1575C156.269 14.7388 155.927 14.3986 155.509 14.3986H154.081C153.662 14.3986 153.323 14.7388 153.323 15.1575V16.8233C153.323 17.6033 153.024 18.5345 151.61 18.5345H151.366C150.947 18.5345 150.608 18.8739 150.608 19.2925V20.6896C150.608 21.1082 150.949 21.4476 151.366 21.4476H152.957C153.043 21.4476 153.111 21.5137 153.111 21.6018V28.3313C153.111 30.8168 154.625 32.3592 157.06 32.3592C157.738 32.3592 158.266 32.2623 158.521 32.205C158.864 32.1257 159.106 31.8216 159.106 31.4646V30.1694C159.106 30.0629 159.083 29.9575 159.04 29.8602C158.996 29.763 158.933 29.6759 158.854 29.6047C158.774 29.5335 158.681 29.4798 158.58 29.4471C158.478 29.4143 158.371 29.4032 158.265 29.4145C158.093 29.4321 157.927 29.4423 157.796 29.4423C156.69 29.4423 156.276 29.0368 156.276 27.9483V21.6022C156.276 21.5176 156.346 21.4489 156.43 21.4489" fill="#43AF79"/>
<path fill-rule="evenodd" clip-rule="evenodd" d="M19.003 38.7189C17.2825 38.7189 15.5832 38.4633 13.9526 37.9578C13.5061 37.8194 13.1328 37.5094 12.9149 37.0958C12.697 36.6823 12.6522 36.1991 12.7905 35.7525C13.0787 34.8183 14.0685 34.2982 14.9962 34.5891C16.2883 34.9901 17.636 35.1929 19.003 35.1929C24.9846 35.1929 30.1782 31.3544 31.9274 25.6385C31.995 25.4172 32.1057 25.2114 32.253 25.0329C32.4003 24.8544 32.5814 24.7067 32.7858 24.5982C32.9903 24.4897 33.2141 24.4226 33.4445 24.4007C33.675 24.3789 33.9074 24.4026 34.1286 24.4707C35.0594 24.7527 35.5829 25.7399 35.2983 26.6698C33.093 33.8756 26.5442 38.7189 19.003 38.7189Z" fill="#43AF79"/>
<path fill-rule="evenodd" clip-rule="evenodd" d="M4.39389 18.9651C4.11819 18.9651 3.84632 18.9005 3.60012 18.7764C3.35393 18.6522 3.14028 18.4721 2.97635 18.2504C2.81241 18.0288 2.70275 17.7717 2.65618 17.5C2.60962 17.2283 2.62744 16.9494 2.70822 16.6858C4.91392 9.48037 11.4627 4.64062 19.003 4.64062C20.7248 4.64062 22.4241 4.89623 24.0534 5.40215C24.2745 5.47066 24.48 5.58206 24.6581 5.72999C24.8362 5.87791 24.9834 6.05947 25.0913 6.26429C25.1992 6.46911 25.2657 6.69319 25.2871 6.92371C25.3084 7.15424 25.2841 7.38671 25.2155 7.60784C25.1472 7.82911 25.0359 8.03472 24.8881 8.21292C24.7402 8.39111 24.5586 8.53838 24.3537 8.64629C24.1488 8.7542 23.9246 8.82063 23.694 8.84177C23.4634 8.86292 23.2309 8.83837 23.0098 8.76952C21.7186 8.37289 20.3701 8.17017 19.003 8.17017C13.0227 8.17017 7.82825 12.0086 6.07912 17.7245C5.96857 18.0852 5.74528 18.401 5.44205 18.6255C5.13882 18.8499 4.77161 18.9713 4.39433 18.9717" fill="#43AF79"/>
<path fill-rule="evenodd" clip-rule="evenodd" d="M23.5321 27.9217H2.41123C1.43729 27.9217 0.648438 27.1329 0.648438 26.1589C0.648438 25.185 1.43729 24.3961 2.41123 24.3961H23.5321C24.506 24.3961 25.2949 25.185 25.2949 26.1589C25.2949 27.1329 24.506 27.9217 23.5321 27.9217Z" fill="#93C8A2"/>
<path fill-rule="evenodd" clip-rule="evenodd" d="M35.5957 18.9658H14.4758C13.5018 18.9658 12.713 18.1769 12.713 17.203C12.713 16.2291 13.5018 15.4402 14.4758 15.4402H35.5957C36.5697 15.4402 37.3585 16.2291 37.3585 17.203C37.3585 18.1769 36.5697 18.9658 35.5957 18.9658Z" fill="#93C8A2"/>
<path fill-rule="evenodd" clip-rule="evenodd" d="M31.2293 10.4854C31.2293 10.953 31.0436 11.4013 30.713 11.7319C30.3824 12.0625 29.9341 12.2482 29.4665 12.2482C28.999 12.2482 28.5506 12.0625 28.22 11.7319C27.8895 11.4013 27.7037 10.953 27.7037 10.4854C27.7037 10.0179 27.8895 9.56955 28.22 9.23897C28.5506 8.90838 28.999 8.72266 29.4665 8.72266C29.9341 8.72266 30.3824 8.90838 30.713 9.23897C31.0436 9.56955 31.2293 10.0179 31.2293 10.4854ZM10.3028 32.8791C10.3028 33.3466 10.1171 33.7949 9.78649 34.1255C9.4559 34.4561 9.00753 34.6418 8.54001 34.6418C8.07249 34.6418 7.62411 34.4561 7.29353 34.1255C6.96294 33.7949 6.77722 33.3466 6.77722 32.8791C6.77722 32.4115 6.96294 31.9632 7.29353 31.6326C7.62411 31.302 8.07249 31.1163 8.54001 31.1163C9.00753 31.1163 9.4559 31.302 9.78649 31.6326C10.1171 31.9632 10.3028 32.4115 10.3028 32.8791Z" fill="#93C8A2"/>
</g>
<defs>
<clipPath id="clip0_1074_4289">
<rect width="158.866" height="44.5938" fill="white" transform="translate(0.648438 0.628906)"/>
</clipPath>
</defs>
</svg>
