<svg width="101" height="46" viewBox="0 0 101 46" fill="none" xmlns="http://www.w3.org/2000/svg">
<g clip-path="url(#clip0_1074_4288)">
<path d="M11.0518 27.9226C11.0518 28.5848 10.9117 29.2001 10.6316 29.7691C10.3515 30.33 9.95458 30.8129 9.45645 31.2027C8.95064 31.6 8.35151 31.9038 7.65866 32.1218C6.96613 32.3399 6.20358 32.449 5.37859 32.449C4.3901 32.449 3.50317 32.3165 2.72526 32.0439C1.9471 31.779 1.16117 31.3271 0.375 30.7036L1.67483 28.592C2.29732 29.114 2.85739 29.4955 3.36361 29.7374C3.86166 29.979 4.37523 30.0958 4.90458 30.0958C5.55044 30.0958 6.06402 29.9322 6.46123 29.5972C6.85812 29.2622 7.04483 28.8182 7.04483 28.2495C7.04483 28.008 7.00592 27.7821 6.93591 27.5718C6.86587 27.3613 6.73358 27.1432 6.54687 26.9173C6.36007 26.6992 6.09556 26.4499 5.76094 26.1928C5.43409 25.9357 5.00615 25.6085 4.47681 25.2266C4.07992 24.9462 3.68312 24.6501 3.30168 24.3537C2.9204 24.0499 2.57802 23.7305 2.25868 23.3875C1.94743 23.0447 1.69845 22.663 1.50388 22.2347C1.31709 21.814 1.21601 21.323 1.21601 20.7854C1.21601 20.1622 1.3483 19.5855 1.60505 19.071C1.86179 18.5565 2.21978 18.1205 2.67117 17.7547C3.12247 17.3885 3.65967 17.1081 4.29719 16.9057C4.92745 16.7032 5.61188 16.6019 6.35924 16.6019C7.14517 16.6019 7.90021 16.7032 8.63105 16.9136C9.36247 17.1239 10.0399 17.4277 10.67 17.8327L9.49485 19.7337C8.6934 19.1728 7.84488 18.8848 6.95796 18.8848C6.42101 18.8848 5.96946 19.025 5.61932 19.3055C5.26917 19.5859 5.09014 19.9365 5.09014 20.365C5.09014 20.7701 5.2458 21.1363 5.55705 21.4559C5.8683 21.7831 6.40516 22.2272 7.16821 22.8193C7.93861 23.3803 8.57704 23.8788 9.07501 24.2991C9.58082 24.7198 9.97762 25.125 10.2733 25.4991C10.569 25.8731 10.7635 26.247 10.8802 26.6362C10.9969 27.0335 11.0514 27.4542 11.0514 27.922L11.0518 27.9226ZM24.3969 24.3625C24.3969 24.9467 24.3346 25.5781 24.2101 26.2552C24.0934 26.9331 23.8833 27.5567 23.5877 28.1331C23.2919 28.7096 22.9107 29.1852 22.4356 29.5511C21.961 29.925 21.3538 30.112 20.6304 30.112C19.4165 30.112 18.4594 29.6289 17.7591 28.6552C17.0587 27.689 16.7086 26.357 16.7086 24.6666C16.7086 22.929 17.0588 21.5582 17.7748 20.5375C18.4829 19.5168 19.4479 19.0106 20.6618 19.0106C21.8138 19.0106 22.7239 19.4936 23.3928 20.4442C24.062 21.4021 24.3969 22.711 24.3969 24.3627L24.3969 24.3625ZM28.6143 24.2144C28.6143 23.0847 28.4509 22.0566 28.1318 21.1374C27.805 20.2101 27.3537 19.4156 26.7544 18.7459C26.1553 18.0759 25.4546 17.5617 24.6378 17.1876C23.8211 16.8135 22.9185 16.6267 21.93 16.6267C20.8408 16.6267 19.8836 16.837 19.0587 17.2422C18.2338 17.6551 17.4632 18.3017 16.7629 19.1894L16.7396 16.9845H12.8566V39.6448H16.7322V30.0736C17.1135 30.5177 17.4791 30.8916 17.8371 31.1951C18.1873 31.4989 18.5452 31.7482 18.9107 31.9352C19.2763 32.1221 19.6576 32.2624 20.0619 32.3403C20.4665 32.4182 20.9025 32.4572 21.3617 32.4572C22.389 32.4572 23.3535 32.2468 24.2405 31.8417C25.1274 31.4288 25.8979 30.8524 26.5436 30.1042C27.1894 29.356 27.6957 28.4839 28.0615 27.4946C28.435 26.497 28.614 25.3987 28.614 24.2145L28.6143 24.2144ZM30.3419 32.091H34.3256V9.91797H30.3419V32.091ZM51.3175 32.0988V16.9699H47.3338V25.1108C47.3338 25.8353 47.3026 26.3965 47.2404 26.7938C47.1781 27.1911 47.077 27.5416 46.9369 27.869C46.3767 29.1151 45.3414 29.7469 43.8401 29.7469C42.665 29.7469 41.8482 29.3262 41.3808 28.4768C41.1941 28.1573 41.0696 27.7912 40.9996 27.3859C40.9295 26.9808 40.8906 26.3965 40.8906 25.6252V16.9707H36.9069V25.5674C36.9069 26.1517 36.9147 26.6501 36.9225 27.0473C36.9303 27.4446 36.9614 27.8107 37.0003 28.1225C37.0392 28.4342 37.0859 28.7146 37.1404 28.9566C37.187 29.198 37.2649 29.4317 37.3661 29.6499C37.7317 30.5773 38.3158 31.2784 39.1325 31.7533C39.9495 32.2284 40.9534 32.4622 42.136 32.4622C43.2021 32.4622 44.1435 32.2752 44.9528 31.9012C45.7621 31.5273 46.5483 30.9193 47.3105 30.0704L47.3183 32.0961L51.3177 32.1039L51.3175 32.0988ZM68.4861 32.091V23.5108C68.4861 22.9265 68.4784 22.4282 68.4705 22.0153C68.4627 21.6024 68.4395 21.2441 68.3927 20.9401C68.3538 20.6362 68.2994 20.3713 68.2449 20.1454C68.1826 19.9117 68.1126 19.6858 68.0348 19.4676C67.6691 18.5641 67.0851 17.863 66.2684 17.3717C65.4517 16.8803 64.4475 16.6316 63.2567 16.6316C62.1905 16.6316 61.2491 16.8185 60.4398 17.1925C59.6305 17.5664 58.8444 18.1818 58.0821 19.0233L58.0744 16.9976H54.0667V32.0934H58.0818V23.9443C58.0818 23.2431 58.1052 22.6899 58.1596 22.3001C58.2062 21.9106 58.3075 21.5444 58.4476 21.1935C58.7043 20.5858 59.1089 20.134 59.6458 19.8227C60.1827 19.5113 60.8209 19.3553 61.5675 19.3553C62.7426 19.3553 63.5593 19.7759 64.0267 20.6254C64.2058 20.9448 64.3302 21.3109 64.4003 21.708C64.4703 22.1054 64.5092 22.6973 64.5092 23.4612V32.0744L68.4855 32.0823L68.4861 32.091ZM84.9693 31.0934L78.9004 23.5439L84.0279 18.044L81.0087 16.7433L75.6707 22.9369H75.2505V9.9221H71.2354V32.0951H75.2505V24.0633L81.2575 32.3957L84.9687 31.0943L84.9693 31.0934ZM100.486 25.6712V23.2011L88.413 17.1397V19.8583L97.7694 24.4159L88.413 29.0355V31.6921L100.486 25.6703V25.6712ZM89.5856 13.2179C88.8465 13.2179 88.247 13.8255 88.247 14.5739C88.247 15.3374 88.8465 15.9373 89.5856 15.9373C90.333 15.9373 90.9242 15.3374 90.9242 14.5739C90.9242 13.8182 90.333 13.2179 89.5856 13.2179V13.2179ZM89.5939 13.4282C90.1926 13.4282 90.6748 13.9424 90.6748 14.5811C90.6748 15.2199 90.1926 15.7339 89.5939 15.7265C88.9869 15.7265 88.5038 15.2201 88.5038 14.5736C88.5038 13.9426 88.9869 13.4282 89.5939 13.4282ZM89.337 14.714H89.4997C89.6946 14.714 89.7879 14.7842 89.8267 14.979C89.8581 15.1815 89.8969 15.314 89.9283 15.3607H90.1851C90.1612 15.314 90.1224 15.2205 90.0918 14.9868C90.0604 14.7609 89.9746 14.644 89.835 14.6206V14.605C89.9985 14.5583 90.1306 14.4337 90.1306 14.2389C90.1306 14.0987 90.0836 13.9896 89.9902 13.9272C89.8969 13.8571 89.7491 13.8104 89.5237 13.8104C89.3445 13.8104 89.2198 13.8259 89.0959 13.8493V15.3606H89.337V14.7139V14.714ZM89.337 14.0128C89.3758 14.0051 89.4303 13.9973 89.508 13.9973C89.7805 13.9973 89.8738 14.1297 89.8738 14.2622C89.8738 14.4491 89.702 14.5193 89.508 14.5193H89.337V14.0129V14.0128Z" fill="#0C1724"/>
</g>
<defs>
<clipPath id="clip0_1074_4288">
<rect width="100.336" height="44.5938" fill="white" transform="translate(0.373047 0.628906)"/>
</clipPath>
</defs>
</svg>
