<svg width="119" height="46" viewBox="0 0 119 46" fill="none" xmlns="http://www.w3.org/2000/svg">
<g clip-path="url(#clip0_1074_4286)">
<path fill-rule="evenodd" clip-rule="evenodd" d="M114.57 30.3408C114.64 31.1486 115.286 32.1769 116.407 32.1769H117.061C117.316 32.1769 117.523 31.9688 117.523 31.7147V17.3093H117.52C117.508 17.0666 117.307 16.8722 117.061 16.8722H115.032C114.786 16.8722 114.585 17.0666 114.573 17.3093H114.57V18.4798C113.326 16.947 111.365 16.3108 109.4 16.3108C104.931 16.3108 101.308 19.9363 101.308 24.4089C101.308 28.8818 104.931 32.5073 109.4 32.5073C111.365 32.5073 113.509 31.7444 114.57 30.339V30.3408ZM109.407 29.6731C106.565 29.6731 104.261 27.3164 104.261 24.4089C104.261 21.5019 106.565 19.1451 109.407 19.1451C112.25 19.1451 114.554 21.5019 114.554 24.4089C114.554 27.3164 112.25 29.6731 109.407 29.6731Z" fill="#0D0E10"/>
<path fill-rule="evenodd" clip-rule="evenodd" d="M98.7413 23.382C98.7413 19.1801 96.0927 16.3455 91.8688 16.3455C89.8525 16.3455 88.1996 17.5123 87.6158 18.5147C87.4897 17.7309 87.0739 16.9071 85.7846 16.9071H85.1274C84.8732 16.9071 84.6656 17.1153 84.6656 17.3695V30.3768C84.6656 30.3772 84.6656 30.3782 84.6656 30.3788V31.7761H84.6681C84.6814 32.0184 84.8821 32.2129 85.1276 32.2129H87.1572C87.1883 32.2129 87.2188 32.2092 87.2482 32.2035C87.2616 32.2009 87.2741 32.1956 87.2872 32.1919C87.3023 32.1873 87.318 32.1837 87.3324 32.1778C87.3504 32.1703 87.3668 32.1603 87.3836 32.1509C87.3918 32.1458 87.4005 32.1423 87.4084 32.137C87.4286 32.1239 87.4472 32.1082 87.4652 32.0922C87.4681 32.0892 87.4716 32.0872 87.4746 32.0845C87.4947 32.0649 87.5132 32.0434 87.5295 32.021C87.5802 31.9512 87.6113 31.8668 87.6163 31.7761H87.619V23.2664C87.619 21.0097 89.4472 19.1801 91.7023 19.1801C93.9574 19.1801 95.7857 21.0097 95.7857 23.2664L95.7875 30.3794L95.788 30.3768C95.788 30.3832 95.7889 30.3896 95.7889 30.3964V31.7761H95.7917C95.8051 32.0184 96.0056 32.2129 96.2509 32.2129H98.2807C98.3119 32.2129 98.3422 32.2092 98.3716 32.2035C98.3836 32.2013 98.3947 32.1965 98.4065 32.1932C98.4231 32.1883 98.4402 32.1842 98.4561 32.1778C98.4727 32.1709 98.4878 32.1613 98.5035 32.1524C98.5131 32.1471 98.5232 32.1432 98.5323 32.137C98.551 32.1247 98.5682 32.1098 98.5851 32.0951C98.5894 32.0911 98.5942 32.0882 98.5982 32.0841C98.6175 32.0656 98.6346 32.0455 98.6503 32.0245C98.6514 32.0229 98.6527 32.0216 98.6539 32.0201C98.7039 31.9509 98.7345 31.8674 98.7398 31.7772C98.7398 31.7766 98.74 31.7761 98.74 31.7761H98.7428L98.7413 23.382Z" fill="#0D0E10"/>
<path fill-rule="evenodd" clip-rule="evenodd" d="M77.6042 30.3407C77.6752 31.1486 78.3214 32.1769 79.4409 32.1769H80.0958C80.3498 32.1769 80.5576 31.9688 80.5576 31.7147V17.3093H80.555C80.5418 17.0666 80.341 16.8722 80.0958 16.8722H78.0662C77.8208 16.8722 77.6203 17.0666 77.6066 17.3093H77.6042V18.4798C76.3606 16.947 74.4 16.3108 72.4339 16.3108C67.965 16.3108 64.3424 19.9363 64.3424 24.4089C64.3424 28.8817 67.965 32.5074 72.4339 32.5074C74.4 32.5074 76.5427 31.7444 77.604 30.3389L77.6042 30.3407ZM72.4418 29.6731C69.5998 29.6731 67.2956 27.3165 67.2956 24.4089C67.2956 21.5019 69.5998 19.1451 72.4418 19.1451C75.2842 19.1451 77.588 21.5019 77.588 24.4089C77.588 27.3165 75.2842 29.6731 72.4418 29.6731Z" fill="#0D0E10"/>
<path fill-rule="evenodd" clip-rule="evenodd" d="M52.34 28.2776C53.6949 29.217 55.1739 29.6733 56.5951 29.6733C57.9491 29.6733 59.3489 28.9708 59.3489 27.7481C59.3489 26.1157 56.2988 25.8617 54.3824 25.2099C52.4656 24.5581 50.8148 23.2106 50.8148 21.0285C50.8148 17.6896 53.7876 16.3105 56.5623 16.3105C58.3203 16.3105 60.1341 16.8907 61.3101 17.7218C61.7151 18.0289 61.4684 18.3815 61.4684 18.3815L60.3459 19.986C60.2197 20.1667 59.9991 20.3229 59.6825 20.1272C59.3658 19.9318 58.255 19.1449 56.5623 19.1449C54.8693 19.1449 53.8496 19.9273 53.8496 20.8971C53.8496 22.06 55.175 22.4258 56.7273 22.8221C59.4326 23.5519 62.3837 24.4291 62.3837 27.7481C62.3837 30.6899 59.634 32.508 56.5951 32.508C54.2923 32.508 52.3316 31.851 50.6872 30.6434C50.3446 30.3003 50.5838 29.9817 50.5838 29.9817L51.7009 28.3853C51.9282 28.0868 52.2147 28.1909 52.34 28.2776Z" fill="#0D0E10"/>
<path fill-rule="evenodd" clip-rule="evenodd" d="M44.5373 30.3407C44.6082 31.1486 45.2545 32.1769 46.3738 32.1769H47.0289C47.2828 32.1769 47.4909 31.9688 47.4909 31.7147V17.3093H47.4881C47.4748 17.0666 47.2743 16.8722 47.0289 16.8722H44.9993C44.7538 16.8722 44.5534 17.0666 44.5397 17.3093H44.5373V18.4798C43.2938 16.947 41.3332 16.3108 39.3671 16.3108C34.8982 16.3108 31.2754 19.9363 31.2754 24.4089C31.2754 28.8817 34.8982 32.5074 39.3671 32.5074C41.3332 32.5074 43.4758 31.7444 44.537 30.3389L44.5373 30.3407ZM39.375 29.6731C36.5328 29.6731 34.2287 27.3165 34.2287 24.4089C34.2287 21.5019 36.5328 19.1451 39.375 19.1451C42.2171 19.1451 44.521 21.5019 44.521 24.4089C44.521 27.3165 42.2171 29.6731 39.375 29.6731Z" fill="#0D0E10"/>
<path fill-rule="evenodd" clip-rule="evenodd" d="M19.9309 24.9592C16.9235 24.9592 14.4855 27.3972 14.4855 30.4049C14.4855 33.4123 16.9235 35.8503 19.9309 35.8503C22.9383 35.8503 25.3763 33.4123 25.3763 30.4049C25.3763 27.3972 22.9383 24.9592 19.9309 24.9592ZM5.7833 24.9598C2.77591 24.9598 0.337891 27.3972 0.337891 30.4049C0.337891 33.4123 2.77591 35.8503 5.7833 35.8503C8.79082 35.8503 11.229 33.4123 11.229 30.4049C11.229 27.3972 8.79082 24.9598 5.7833 24.9598ZM18.3024 18.1523C18.3024 21.16 15.8645 23.5982 12.8571 23.5982C9.84961 23.5982 7.41171 21.16 7.41171 18.1523C7.41171 15.1453 9.84961 12.707 12.8571 12.707C15.8645 12.707 18.3024 15.1453 18.3024 18.1523Z" fill="#F06A6A"/>
</g>
<defs>
<clipPath id="clip0_1074_4286">
<rect width="117.988" height="44.5938" fill="white" transform="translate(0.337891 0.628906)"/>
</clipPath>
</defs>
</svg>
