<svg width="135" height="46" viewBox="0 0 135 46" fill="none" xmlns="http://www.w3.org/2000/svg">
<g clip-path="url(#clip0_1074_4285)">
<path d="M133.86 22.5771V18.309C133.025 18.3424 130.52 18.683 129.411 20.0122V18.6029H124.736V32.8232H129.411V26.1038C130.079 22.9378 133.105 22.6038 133.873 22.5771H133.86ZM91.98 22.7441C91.4783 22.2954 90.9048 21.9341 90.2835 21.6754C89.7718 21.426 89.2096 21.298 88.6404 21.3013C88.2187 21.2972 87.8014 21.3861 87.4181 21.5618C87.2434 21.6327 87.0954 21.7565 86.9948 21.9159C86.8941 22.0752 86.846 22.2621 86.857 22.4502C86.8524 22.641 86.9098 22.8281 87.0206 22.9835C87.1314 23.1388 87.2896 23.2541 87.4715 23.3118C88.124 23.5534 88.7939 23.7454 89.4753 23.8863C90.0303 24.0065 90.5752 24.1695 91.1051 24.3738C91.638 24.5771 92.1377 24.8585 92.5879 25.2088C93.0271 25.5543 93.3908 25.9862 93.6566 26.4778C93.9364 27.0273 94.0741 27.6381 94.0573 28.2545C94.0866 29.0073 93.9168 29.7545 93.5649 30.4206C93.2131 31.0867 92.6918 31.6482 92.0535 32.0484C91.4414 32.4452 90.7625 32.7281 90.0497 32.8833C89.3321 33.0555 88.5968 33.1429 87.8589 33.1438C86.6895 33.1439 85.5278 32.9544 84.419 32.5828C83.3663 32.2553 82.4038 31.6883 81.607 30.9263L83.9181 28.0341C84.4814 28.5486 85.1213 28.9723 85.815 29.2898C86.4221 29.5952 87.0926 29.7531 87.7721 29.7507C88.1686 29.7466 88.559 29.653 88.9142 29.4769C89.0947 29.393 89.2452 29.2558 89.3455 29.0839C89.4458 28.912 89.4911 28.7135 89.4753 28.515C89.4777 28.3035 89.4149 28.0964 89.2954 27.9219C89.1759 27.7474 89.0055 27.614 88.8074 27.5399C88.1108 27.25 87.3884 27.0264 86.6499 26.8719C86.1392 26.7521 85.6372 26.5981 85.1471 26.411C84.6643 26.2236 84.2136 25.9622 83.8112 25.6362C83.4268 25.3082 83.1093 24.909 82.8761 24.4607C82.6154 23.9244 82.4871 23.3335 82.5021 22.7374C82.4802 21.9665 82.6696 21.2042 83.0498 20.5332C83.4076 19.9293 83.8988 19.4152 84.4858 19.0304C85.069 18.6397 85.7152 18.3527 86.3961 18.1821C87.0809 18.0028 87.7856 17.9108 88.4934 17.9082C89.5642 17.9071 90.6284 18.0762 91.6461 18.4092C92.6177 18.7128 93.5097 19.2284 94.2577 19.9187L91.98 22.7441ZM119.345 23.8662C119.34 23.2116 119.103 22.5801 118.677 22.0828C118.403 21.8018 118.069 21.5848 117.701 21.4474C117.333 21.31 116.938 21.2556 116.547 21.288C116.121 21.2844 115.698 21.3568 115.298 21.5017C114.934 21.6346 114.597 21.8314 114.302 22.0828C114.028 22.3284 113.801 22.6228 113.634 22.9511C113.486 23.2361 113.393 23.5466 113.361 23.8662H119.345ZM123.654 25.7965V26.3643C123.664 26.5445 123.664 26.7251 123.654 26.9053H113.341C113.371 27.287 113.492 27.6559 113.695 27.9807C113.896 28.3068 114.156 28.5922 114.463 28.8223C114.783 29.0617 115.139 29.2489 115.518 29.3767C115.907 29.5102 116.316 29.5779 116.727 29.5771C117.379 29.596 118.026 29.4538 118.611 29.1629C119.102 28.9056 119.529 28.5402 119.86 28.0942L123.112 30.1448C122.435 31.1115 121.513 31.8813 120.441 32.3757C119.258 32.9083 117.971 33.1707 116.674 33.1438C115.644 33.1498 114.621 32.9804 113.648 32.6429C112.729 32.3301 111.882 31.8374 111.156 31.1935C110.435 30.542 109.863 29.7422 109.48 28.849C109.053 27.8444 108.844 26.7609 108.865 25.6696C108.852 24.5918 109.054 23.5221 109.46 22.5237C109.834 21.6273 110.386 20.8161 111.083 20.1391C111.784 19.4774 112.607 18.96 113.508 18.6162C114.478 18.2469 115.509 18.0634 116.547 18.0752C117.531 18.066 118.508 18.2451 119.425 18.6029C120.278 18.9393 121.047 19.4592 121.676 20.1258C122.323 20.8225 122.823 21.6426 123.146 22.537C123.511 23.5797 123.69 24.6785 123.674 25.7832L123.654 25.7965ZM67.3266 22.4569V18.1621H63.319V14.976C63.2188 13.1392 62.3505 11.7699 58.8037 11.7699V28.3147C58.8005 28.9776 58.8858 29.638 59.0575 30.2784C59.209 30.841 59.4826 31.3633 59.8591 31.808C60.2622 32.251 60.7696 32.5862 61.3352 32.7831C62.1253 33.0345 62.9508 33.1563 63.7798 33.1438C64.9875 33.1586 66.1882 32.9596 67.3266 32.556V28.7488C66.5668 28.9436 65.7865 29.0467 65.0022 29.0561C64.758 29.0863 64.5101 29.0592 64.2782 28.9768C64.0463 28.8945 63.8368 28.7593 63.6663 28.5818C63.3992 28.1482 63.2797 27.6397 63.3256 27.1324V22.4569H67.3266Z" fill="#008FB4"/>
<path d="M104.831 25.2356L110.108 18.5563H104.524L99.8484 24.4608V15.1097C99.7616 13.1861 98.9267 11.77 95.3265 11.77V32.8233H99.8484V26.0238L105.192 32.8233H110.836L104.831 25.2356ZM80.8123 32.81V23.3921C80.8123 19.3377 77.5929 17.8816 74.7408 17.8816C72.4951 17.7696 70.2859 18.4822 68.529 19.8854L70.8868 22.811C71.8362 21.9771 73.0226 21.461 74.2799 21.3349C75.9965 21.3349 76.3505 22.3167 76.3505 23.5724V23.8129H74.8076C70.84 23.8129 68.4555 25.5295 68.4555 28.5886C68.4555 31.9283 71.3944 32.7966 74.9746 32.7966L80.8123 32.81ZM76.3505 29.851H74.8677C73.7122 29.851 73.0042 29.3701 73.0042 28.3749C73.0042 27.3797 73.7122 26.8052 75.1282 26.8052H76.3505V29.851ZM42.3326 14.3549C42.3326 15.0458 42.607 15.7084 43.0956 16.1969C43.5841 16.6854 44.2467 16.9599 44.9375 16.9599C45.6284 16.9599 46.291 16.6854 46.7795 16.1969C47.268 15.7084 47.5425 15.0458 47.5425 14.3549C47.5425 13.6641 47.268 13.0015 46.7795 12.513C46.291 12.0244 45.6284 11.75 44.9375 11.75C44.2467 11.75 43.5841 12.0244 43.0956 12.513C42.607 13.0015 42.3326 13.6641 42.3326 14.3549ZM42.7734 18.1956H42.5797V32.8233H47.2887V21.2747C47.1551 19.498 46.2467 18.1956 42.7734 18.1956ZM57.7686 22.5772V18.3091C56.9403 18.3425 54.4289 18.6832 53.3201 20.0124V18.603H48.6446V32.8233H53.3201V26.2175C53.3169 26.1797 53.3169 26.1417 53.3201 26.1039C53.988 22.9379 57.0071 22.6039 57.7819 22.5772H57.7686ZM132.504 30.6793H132.243V31.1735H132.504C132.537 31.1754 132.571 31.1703 132.602 31.1587C132.634 31.1471 132.663 31.1292 132.687 31.1061C132.712 31.0829 132.731 31.0551 132.744 31.0242C132.758 30.9933 132.764 30.96 132.764 30.9264C132.764 30.8928 132.758 30.8595 132.744 30.8286C132.731 30.7978 132.712 30.7699 132.687 30.7468C132.663 30.7236 132.634 30.7057 132.602 30.6941C132.571 30.6825 132.537 30.6775 132.504 30.6793ZM132.764 32.0485L132.444 31.3806H132.243V32.0485H131.949V30.4255H132.577C132.644 30.4237 132.71 30.4353 132.772 30.4598C132.834 30.4842 132.89 30.5209 132.938 30.5677C132.985 30.6145 133.023 30.6704 133.048 30.7321C133.073 30.7937 133.086 30.8598 133.085 30.9264C133.086 31.0236 133.056 31.1186 132.999 31.1978C132.943 31.2769 132.863 31.3363 132.771 31.3672L133.125 32.0352L132.764 32.0485ZM132.457 30.0447C132.213 30.0327 131.971 30.0941 131.762 30.2209C131.554 30.3477 131.388 30.5341 131.286 30.7561C131.184 30.9782 131.151 31.2256 131.191 31.4665C131.231 31.7074 131.343 31.9308 131.511 32.1078C131.679 32.2848 131.897 32.4074 132.135 32.4596C132.374 32.5119 132.623 32.4914 132.85 32.4009C133.077 32.3104 133.271 32.1541 133.408 31.952C133.545 31.7499 133.619 31.5113 133.619 31.2671C133.624 31.1104 133.597 30.9543 133.541 30.808C133.485 30.6616 133.4 30.5277 133.292 30.4141C133.184 30.3005 133.055 30.2094 132.912 30.146C132.768 30.0826 132.614 30.0482 132.457 30.0447ZM132.457 32.7699C132.159 32.7791 131.865 32.6996 131.613 32.5413C131.36 32.3831 131.16 32.1533 131.039 31.8812C130.917 31.6091 130.879 31.307 130.929 31.0133C130.98 30.7195 131.117 30.4474 131.322 30.2316C131.528 30.0157 131.793 29.8658 132.083 29.8009C132.374 29.7361 132.678 29.7592 132.956 29.8673C133.233 29.9754 133.473 30.1637 133.643 30.4082C133.814 30.6527 133.908 30.9423 133.913 31.2403C133.918 31.6325 133.768 32.0108 133.495 32.2924C133.222 32.5741 132.849 32.7362 132.457 32.7432V32.7699ZM29.4348 24.5743L31.5254 18.5629L33.616 24.5743H29.4348ZM33.7229 11.77H29.5216L23.036 28.9092H20.4844C18.7449 28.9829 17.0213 28.5514 15.5217 27.6669C14.924 27.2834 14.4389 26.7479 14.1162 26.1153C13.7935 25.4827 13.6446 24.7757 13.6849 24.0667V22.0629H11.6143C9.68827 22.0101 7.84388 21.2738 6.41106 19.9856C5.29164 18.8115 4.5878 17.303 4.40725 15.6908H18.9215C21.5598 15.6908 22.535 16.9799 23.1428 18.1355C23.4415 18.715 23.6659 19.3299 23.8108 19.9656L25.6476 15.1097C25.6476 15.1097 24.1113 11.77 18.9215 11.77H0.326172V13.7738C0.326172 17.5544 1.4483 20.5868 3.66585 22.7642C5.40657 24.4115 7.60871 25.4882 9.97783 25.8501C10.8127 30.1382 14.7536 32.81 20.4844 32.81H26.4424L27.7783 28.9493H35.2391L36.575 32.8033H41.6713L33.7229 11.77Z" fill="#008FB4"/>
</g>
<defs>
<clipPath id="clip0_1074_4285">
<rect width="133.781" height="44.5938" fill="white" transform="translate(0.326172 0.628906)"/>
</clipPath>
</defs>
</svg>
