<svg width="107" height="46" viewBox="0 0 107 46" fill="none" xmlns="http://www.w3.org/2000/svg">
<g clip-path="url(#clip0_1074_4287)">
<path d="M12.0035 12.8047V21.2475H4.24959V12.8047H0.568359V32.9586H4.24959V24.7899H12.0035V32.9586H15.6847V12.8047H12.0035Z" fill="#33475B"/>
<path d="M27.4661 26.4434C27.4661 27.2511 27.1452 28.0257 26.5741 28.5969C26.0029 29.168 25.2283 29.4888 24.4206 29.4888C23.6129 29.4888 22.8383 29.168 22.2672 28.5969C21.696 28.0257 21.3752 27.2511 21.3752 26.4434V17.8112H17.8833V26.4434C17.8833 28.1755 18.5714 29.8367 19.7962 31.0615C21.021 32.2863 22.6822 32.9744 24.4143 32.9744C26.1464 32.9744 27.8076 32.2863 29.0324 31.0615C30.2572 29.8367 30.9453 28.1755 30.9453 26.4434V17.8112H27.4661V26.4434Z" fill="#33475B"/>
<path d="M53.3383 18.7008C53.3383 16.9314 54.5089 16.3705 55.7913 16.3705C56.8248 16.3705 58.1901 17.1569 59.0829 18.111L61.37 15.4164C60.2283 13.8725 57.9124 12.8047 56.0168 12.8047C52.2291 12.8047 49.4894 15.0232 49.4894 18.7008C49.4894 25.524 57.8294 23.3596 57.8294 27.1779C57.8294 28.3557 56.6859 29.3964 55.3765 29.3964C53.3113 29.3964 52.6421 28.3864 51.6934 27.3186L49.1557 29.9573C50.779 31.9504 52.781 32.9622 55.1799 32.9622C58.7781 32.9622 61.673 30.7167 61.673 27.2068C61.673 19.6315 53.3329 21.9852 53.3329 18.7008" fill="#33475B"/>
<path d="M104.933 29.7389C102.87 29.7389 102.284 28.8461 102.284 27.4789V21.4277H105.491V18.3615H102.284V14.3159L98.7433 15.9049V28.231C98.7433 31.3838 100.919 32.9728 103.902 32.9728C104.37 32.9813 104.837 32.9439 105.298 32.861L106.162 29.6811C105.772 29.7082 105.325 29.7353 104.933 29.7353" fill="#33475B"/>
<path d="M40.758 17.9129C39.0283 17.9129 37.8216 18.4144 36.6547 19.5597V12.9259H33.1574V25.2213C33.1574 29.8242 36.4851 32.977 40.2241 32.977C44.3725 32.977 48.0212 29.7683 48.0212 25.4468C48.0212 21.1793 44.6629 17.9147 40.758 17.9147V17.9129ZM40.7363 29.4581C39.9515 29.4581 39.1843 29.2253 38.5318 28.7893C37.8793 28.3533 37.3707 27.7336 37.0704 27.0085C36.77 26.2835 36.6914 25.4856 36.8446 24.7159C36.9977 23.9462 37.3756 23.2392 37.9305 22.6842C38.4855 22.1293 39.1925 21.7514 39.9622 21.5983C40.7319 21.4452 41.5298 21.5237 42.2548 21.8241C42.9799 22.1244 43.5996 22.633 44.0356 23.2855C44.4716 23.9381 44.7043 24.7052 44.7043 25.49C44.7043 26.5424 44.2863 27.5517 43.5421 28.2959C42.798 29.04 41.7887 29.4581 40.7363 29.4581Z" fill="#33475B"/>
<path d="M78.7317 25.262C78.7317 20.9333 75.0901 17.7318 70.9345 17.7318C67.1956 17.7318 63.8679 20.8846 63.8679 25.4875V37.7901H67.3651V31.1473C68.5303 32.2908 69.7387 32.794 71.4666 32.794C75.3715 32.794 78.7299 29.5312 78.7299 25.262H78.7317ZM75.4202 25.2187C75.4202 26.0035 75.1875 26.7707 74.7515 27.4232C74.3155 28.0758 73.6957 28.5843 72.9707 28.8847C72.2456 29.185 71.4478 29.2636 70.6781 29.1105C69.9083 28.9574 69.2013 28.5795 68.6464 28.0245C68.0914 27.4696 67.7135 26.7626 67.5604 25.9928C67.4073 25.2231 67.4859 24.4253 67.7862 23.7002C68.0866 22.9752 68.5951 22.3554 69.2477 21.9194C69.9002 21.4834 70.6674 21.2507 71.4522 21.2507C72.5046 21.2507 73.5138 21.6688 74.258 22.4129C75.0021 23.1571 75.4202 24.1663 75.4202 25.2187Z" fill="#33475B"/>
<path d="M89.9958 17.6758V14.1983C90.4553 13.9837 90.8444 13.6429 91.1178 13.2157C91.3911 12.7884 91.5374 12.2923 91.5397 11.7851V11.7039C91.5378 10.9951 91.2554 10.3158 90.7542 9.81464C90.2529 9.31343 89.5737 9.03101 88.8649 9.0291H88.7837C88.0749 9.03101 87.3957 9.31343 86.8945 9.81464C86.3932 10.3158 86.1108 10.9951 86.1089 11.7039V11.7851C86.1112 12.2923 86.2575 12.7884 86.5308 13.2157C86.8042 13.6429 87.1933 13.9837 87.6528 14.1983V17.6758C86.3316 17.8778 85.0872 18.4254 84.0456 19.263L74.4971 11.8338C74.565 11.5887 74.6014 11.3359 74.6053 11.0816C74.606 10.4848 74.4297 9.90123 74.0988 9.40461C73.7678 8.90799 73.297 8.52067 72.7459 8.29162C72.1948 8.06258 71.5881 8.0021 71.0027 8.11783C70.4172 8.23356 69.8792 8.5203 69.4567 8.9418C69.0342 9.3633 68.7461 9.90062 68.629 10.4858C68.5119 11.071 68.5709 11.6778 68.7986 12.2295C69.0264 12.7811 69.4125 13.2528 69.9084 13.585C70.4042 13.9171 70.9874 14.0948 71.5842 14.0955C72.1084 14.0936 72.6229 13.9536 73.0758 13.6897L82.4638 20.9981C81.6182 22.2738 81.177 23.7749 81.1979 25.3052C81.2189 26.8356 81.7009 28.3241 82.581 29.5762L79.724 32.4332C79.4947 32.3601 79.2559 32.3213 79.0152 32.3177C78.5247 32.3177 78.0452 32.4632 77.6374 32.7357C77.2295 33.0082 76.9117 33.3955 76.724 33.8487C76.5363 34.3018 76.4872 34.8005 76.5828 35.2816C76.6785 35.7626 76.9147 36.2045 77.2616 36.5514C77.6084 36.8982 78.0503 37.1344 78.5314 37.2301C79.0124 37.3258 79.5111 37.2767 79.9643 37.089C80.4174 36.9013 80.8047 36.5834 81.0772 36.1756C81.3498 35.7677 81.4952 35.2882 81.4952 34.7977C81.4919 34.5571 81.453 34.3182 81.3798 34.0889L84.2061 31.2626C85.1287 31.9673 86.2001 32.4519 87.3385 32.6794C88.4769 32.9069 89.6523 32.8712 90.7749 32.5752C91.8974 32.2792 92.9375 31.7306 93.8157 30.9713C94.6939 30.212 95.3871 29.2621 95.8422 28.194C96.2973 27.126 96.5023 25.9681 96.4417 24.8088C96.3811 23.6494 96.0564 22.5193 95.4924 21.5045C94.9283 20.4898 94.1399 19.6174 93.1873 18.9538C92.2347 18.2902 91.1431 17.8531 89.9958 17.6758ZM88.8252 29.1145C88.0518 29.1145 87.2958 28.8851 86.6528 28.4555C86.0097 28.0258 85.5085 27.4151 85.2126 26.7006C84.9166 25.9861 84.8392 25.1998 84.99 24.4413C85.1409 23.6828 85.5133 22.986 86.0602 22.4392C86.6071 21.8923 87.3038 21.5199 88.0623 21.369C88.8209 21.2181 89.6071 21.2956 90.3216 21.5915C91.0361 21.8875 91.6468 22.3887 92.0765 23.0317C92.5062 23.6748 92.7355 24.4308 92.7355 25.2042C92.7355 26.2412 92.3235 27.2358 91.5902 27.9692C90.8569 28.7025 89.8623 29.1145 88.8252 29.1145Z" fill="#FF7A59"/>
</g>
<defs>
<clipPath id="clip0_1074_4287">
<rect width="105.91" height="44.5938" fill="white" transform="translate(0.568359 0.628906)"/>
</clipPath>
</defs>
</svg>
