<svg width="75" height="75" viewBox="0 0 75 75" fill="none" xmlns="http://www.w3.org/2000/svg">
<rect x="0.425781" y="0.300781" width="74.323" height="74.323" rx="5.30879" fill="#EA4C89"/>
<g clip-path="url(#clip0_1149_3800)">
<path d="M21.6602 37.4635C21.6602 34.5755 22.3716 31.9105 23.7943 29.4684C25.2171 27.0264 27.1495 25.094 29.5915 23.6712C32.0335 22.2485 34.6986 21.5371 37.5865 21.5371C40.4745 21.5371 43.1395 22.2485 45.5816 23.6712C48.0236 25.094 49.956 27.0264 51.3788 29.4684C52.8015 31.9105 53.5129 34.5755 53.5129 37.4635C53.5129 40.3515 52.8015 43.0165 51.3788 45.4585C49.956 47.9006 48.0236 49.8329 45.5816 51.2557C43.1395 52.6785 40.4745 53.3898 37.5865 53.3898C34.6986 53.3898 32.0335 52.6785 29.5915 51.2557C27.1495 49.8329 25.2171 47.9006 23.7943 45.4585C22.3716 43.0165 21.6602 40.3515 21.6602 37.4635ZM24.3039 37.4635C24.3039 40.7762 25.4188 43.696 27.6485 46.223C28.6678 44.2269 30.2816 42.3263 32.4901 40.5213C34.6986 38.7163 36.8539 37.5803 38.9562 37.1131C38.6377 36.3699 38.3298 35.701 38.0325 35.1064C34.38 36.2743 30.4303 36.8583 26.1832 36.8583C25.3551 36.8583 24.7393 36.8477 24.3358 36.8264C24.3358 36.9114 24.3305 37.0175 24.3199 37.1449C24.3093 37.2724 24.3039 37.3785 24.3039 37.4635ZM24.718 34.1826C25.1852 34.2251 25.8754 34.2464 26.7884 34.2464C30.3347 34.2464 33.7005 33.7686 36.8858 32.813C35.2719 29.9462 33.4988 27.5573 31.5664 25.6461C29.8888 26.4955 28.4501 27.6741 27.2503 29.1818C26.0505 30.6895 25.2064 32.3564 24.718 34.1826ZM29.4641 47.943C31.8637 49.8117 34.5712 50.7461 37.5865 50.7461C39.1579 50.7461 40.7187 50.4488 42.2689 49.8542C41.8442 46.223 41.016 42.7086 39.7844 39.3109C37.8307 39.7356 35.8612 40.808 33.8757 42.5281C31.8902 44.2481 30.4197 46.0531 29.4641 47.943ZM34.3375 24.6268C36.2062 26.5592 37.9369 28.9694 39.5295 31.8574C42.4175 30.647 44.5941 29.1075 46.0593 27.2387C43.5961 25.2002 40.7718 24.1809 37.5865 24.1809C36.5035 24.1809 35.4205 24.3295 34.3375 24.6268ZM40.6762 34.1189C40.9948 34.7985 41.3558 35.6585 41.7592 36.699C43.3307 36.5504 45.0401 36.476 46.8875 36.476C48.2041 36.476 49.5101 36.5079 50.8054 36.5716C50.6355 33.6836 49.595 31.1142 47.6838 28.8632C46.3036 30.9231 43.9677 32.675 40.6762 34.1189ZM42.5555 38.9287C43.6385 42.0715 44.3712 45.2992 44.7534 48.6119C46.431 47.5289 47.8006 46.138 48.8624 44.4392C49.9242 42.7404 50.5612 40.9036 50.7736 38.9287C49.2234 38.8225 47.8113 38.7694 46.5371 38.7694C45.3692 38.7694 44.042 38.8225 42.5555 38.9287Z" fill="white"/>
</g>
<defs>
<clipPath id="clip0_1149_3800">
<rect width="31.8527" height="31.8527" fill="white" transform="translate(21.6602 21.5352)"/>
</clipPath>
</defs>
</svg>
