<svg width="594" height="437" viewBox="0 0 594 437" fill="none" xmlns="http://www.w3.org/2000/svg">
<g clip-path="url(#clip0_1979_23481)">
<circle cx="297.153" cy="297.126" r="296.216" fill="#83CD20"/>
<path d="M531.904 178.725C532.263 178.389 532.607 178.306 532.951 178.486C533.288 178.65 533.46 178.897 533.46 179.233C533.797 179.576 533.624 180.092 532.951 180.786C503.899 192.722 474.428 204.054 444.546 214.787C414.656 225.528 384.692 235.672 354.645 245.233L387.924 420.675C388.62 425.791 386.405 429.04 381.28 430.415C380.263 430.415 379.23 430.325 378.198 430.146C377.18 429.982 376.148 429.728 375.115 429.369C356.68 417.433 338.23 405.676 319.78 394.083C301.344 382.491 282.73 371.07 263.935 359.814C247.191 348.901 228.576 337.57 208.091 325.813C187.599 314.041 168.124 304.405 149.673 296.891C145.918 295.181 144.893 292.619 146.591 289.213C146.95 287.525 148.491 286.329 151.23 285.627C181.613 280.533 212.087 274.483 242.657 267.491C273.243 260.5 303.567 252.747 333.636 244.217L330.045 226.798C317.73 170.553 305.938 114.293 294.671 58.0187C258.474 113.591 220.309 168.327 180.169 222.227C140.022 276.111 96.0439 326.403 48.2202 373.109C47.876 373.453 47.3673 373.453 46.6939 373.109C46.3572 372.437 46.3572 371.929 46.6939 371.586C69.2366 343.964 91.1807 315.826 112.534 287.181C133.879 258.543 154.462 229.547 174.274 200.207C194.759 171.225 214.653 141.736 233.948 111.739C253.259 81.7266 272.136 51.707 290.571 21.6873C292.621 17.9451 295.875 16.0703 300.327 16.0703C301.344 16.0703 302.362 16.2421 303.38 16.5782C304.412 16.9218 305.445 17.4297 306.462 18.102C309.193 19.82 310.899 22.3745 311.58 25.7806C318.418 58.5266 324.994 91.3547 331.302 124.258C337.624 157.168 343.871 190.16 350.036 223.243L353.089 238.57C383.495 229.711 413.639 220.337 443.529 210.455C473.411 200.558 502.874 189.981 531.904 178.725ZM171.7 293.814C188.773 301.664 205.592 310.202 222.157 319.419C238.737 328.621 255.055 337.995 271.118 347.534C287.174 357.08 303.32 366.626 319.54 376.187C335.761 385.725 351.727 395.443 367.454 405.347L335.162 251.358C308.168 259.544 281.091 267.223 253.94 274.393C226.781 281.549 199.368 288.017 171.7 293.814Z" fill="#034833"/>
</g>
<defs>
<clipPath id="clip0_1979_23481">
<rect width="592.725" height="435.718" fill="white" transform="translate(0.9375 0.566406)"/>
</clipPath>
</defs>
</svg>
