<svg width="1684" height="721" viewBox="0 0 1684 721" fill="none" xmlns="http://www.w3.org/2000/svg">
<g opacity="0.4" clip-path="url(#clip0_3940_255)">
<path style="mix-blend-mode:multiply" d="M1493.36 651.328L1534.43 645.981L1576.82 640.46L1524.76 578.597L1493.36 651.328Z" fill="url(#paint0_linear_3940_255)"/>
<path style="mix-blend-mode:multiply" d="M1222.89 550.464L1181.8 555.817L1139.42 561.338L1191.49 623.196L1222.89 550.464Z" fill="url(#paint1_linear_3940_255)"/>
<path opacity="0.5" d="M1562.51 740.295L1713.69 749.315L1649.58 638.002L1562.51 740.295Z" stroke="white" stroke-width="0.929038" stroke-miterlimit="10"/>
<path opacity="0.5" d="M1336.21 803.473L1541.62 794.514L1396.46 684.02L1336.21 803.473Z" stroke="white" stroke-width="0.929038" stroke-miterlimit="10"/>
<path opacity="0.5" d="M1468.75 692.461L1567.34 684.921L1555.12 592.227L1468.75 692.461Z" stroke="white" stroke-width="0.929038" stroke-miterlimit="10"/>
<path opacity="0.5" d="M1417.27 554.492L1504.43 564.996L1499.02 494.921L1417.27 554.492Z" stroke="white" stroke-width="0.929038" stroke-miterlimit="10"/>
<path opacity="0.5" d="M220.904 621.912L308.067 632.416L302.656 562.341L220.904 621.912Z" stroke="white" stroke-width="0.929038" stroke-miterlimit="10"/>
<path opacity="0.5" d="M1545.67 522.15L1516.8 493.781L1549.21 503.409L1545.67 522.15Z" stroke="white" stroke-width="0.929038" stroke-miterlimit="10"/>
<path opacity="0.5" d="M1671.59 70.2401L1647.84 53.5089L1689.73 49.7309L1671.59 70.2401Z" stroke="white" stroke-width="0.929038" stroke-miterlimit="10"/>
<path opacity="0.5" d="M1585.27 626.868L1609.89 605.57L1567.17 607.354L1585.27 626.868Z" stroke="white" stroke-width="0.929038" stroke-miterlimit="10"/>
<path opacity="0.5" d="M184.069 558.358L208.69 537.06L165.966 538.844L184.069 558.358Z" stroke="white" stroke-width="0.929038" stroke-miterlimit="10"/>
<path opacity="0.5" d="M1587.47 577.666L1561.32 440.786L1637.43 500.951L1587.47 577.666Z" stroke="white" stroke-width="0.929038" stroke-miterlimit="10"/>
<path opacity="0.5" d="M1650.02 618.199L1629.55 540.754L1734.09 528.688L1650.02 618.199Z" stroke="white" stroke-width="0.929038" stroke-miterlimit="10"/>
<path opacity="0.5" d="M1637.39 385.279L1706.37 376.488L1615.47 312.176L1637.39 385.279Z" stroke="white" stroke-width="0.929038" stroke-miterlimit="10"/>
<path opacity="0.5" d="M97.7417 737.099L166.718 728.308L75.813 663.997L97.7417 737.099Z" stroke="white" stroke-width="0.929038" stroke-miterlimit="10"/>
<path opacity="0.5" d="M1670.51 493.941L1653.56 481.458L1685.29 472.244L1670.51 493.941Z" stroke="white" stroke-width="0.929038" stroke-miterlimit="10"/>
<path opacity="0.5" d="M1523.04 114.041L1574.12 100.865L1548.82 33.1746L1523.04 114.041Z" stroke="white" stroke-width="0.929038" stroke-miterlimit="10"/>
<path opacity="0.5" d="M1444.17 699.236L1464.26 703.619L1443.53 683.632L1444.17 699.236Z" stroke="white" stroke-width="0.929038" stroke-miterlimit="10"/>
<path opacity="0.5" d="M1475.38 646.368L1431.02 619.864L1440.74 589.541L1475.38 646.368Z" stroke="white" stroke-width="0.929038" stroke-miterlimit="10"/>
<path opacity="0.5" d="M62.7855 452.458L18.4316 425.954L28.1468 395.631L62.7855 452.458Z" stroke="white" stroke-width="0.929038" stroke-miterlimit="10"/>
<path opacity="0.5" d="M1243.76 661.642L1136.86 616.493L1227.97 583.787L1243.76 661.642Z" stroke="white" stroke-width="0.929038" stroke-miterlimit="10"/>
<path opacity="0.5" d="M1253.18 641.043L1366.9 538.16L1386.07 656.58L1253.18 641.043Z" stroke="white" stroke-width="0.929038" stroke-miterlimit="10"/>
<path opacity="0.5" d="M1566.11 282.285L1740.74 220.211L1592.07 133.813L1566.11 282.285Z" stroke="white" stroke-width="0.929038" stroke-miterlimit="10"/>
<path opacity="0.5" d="M1545.24 202.464L1575.13 165.339L1501.15 154.808L1545.24 202.464Z" stroke="white" stroke-width="0.929038" stroke-miterlimit="10"/>
<path opacity="0.5" d="M1194.95 776.928L1041.88 703.429L1165.14 662.598L1194.95 776.928Z" stroke="white" stroke-width="0.929038" stroke-miterlimit="10"/>
<path opacity="0.5" d="M1028.57 706.495L982.229 737.301L940.68 667.268L1028.57 706.495Z" stroke="white" stroke-width="0.929038" stroke-miterlimit="10"/>
<path opacity="0.5" d="M60.4279 49.7507L7.61404 69.4757L-15.0598 -7.73421L60.4279 49.7507Z" stroke="white" stroke-width="0.929038" stroke-miterlimit="10"/>
<path opacity="0.5" d="M1256.9 578.329L1272.7 600.344L1283.9 560.468L1256.9 578.329Z" stroke="white" stroke-width="0.929038" stroke-miterlimit="10"/>
<path opacity="0.5" d="M1504.11 295.458L1518.87 285.627L1483.51 271.267L1504.11 295.458Z" stroke="white" stroke-width="0.929038" stroke-miterlimit="10"/>
<path opacity="0.5" d="M1437.83 418.216L1509.42 346.598L1343.41 370.123L1437.83 418.216Z" stroke="white" stroke-width="0.929038" stroke-miterlimit="10"/>
<path opacity="0.5" d="M28.7458 337.214L100.332 265.596L-65.6721 289.121L28.7458 337.214Z" stroke="white" stroke-width="0.929038" stroke-miterlimit="10"/>
<path opacity="0.5" d="M1440.57 511.196L1446.45 479.44L1407.09 488.108L1440.57 511.196Z" stroke="white" stroke-width="0.929038" stroke-miterlimit="10"/>
<path opacity="0.2" d="M1562.51 773.842L1713.69 782.872L1649.6 671.553L1562.51 773.842Z" fill="white"/>
<path opacity="0.5" d="M1357.41 832.486L1562.65 823.917L1417.38 713.706L1357.41 832.486Z" fill="#034833"/>
<path opacity="0.3" d="M1493.29 711.951L1591.96 704.194L1579.92 611.042L1493.29 711.951Z" fill="#83CD20"/>
<path opacity="0.5" d="M1438.19 584.176L1525.42 594.518L1520.22 523.932L1438.19 584.176Z" fill="#034833"/>
<path d="M1565.86 551.583L1537.97 522.857L1569.76 532.195L1565.86 551.583Z" fill="white"/>
<path d="M1651.43 81.6923L1627.69 64.9621L1669.57 61.184L1651.43 81.6923Z" fill="white"/>
<path d="M63.5812 742.788L39.8411 726.058L81.7258 722.28L63.5812 742.788Z" fill="white"/>
<path d="M1606.45 655.88L1630.81 635.258L1588.24 636.674L1606.45 655.88Z" fill="#83CD20"/>
<path opacity="0.2" d="M1608.07 606.468L1582.24 470.471L1657.7 530.209L1608.07 606.468Z" fill="white"/>
<path opacity="0.5" d="M1670.93 647.881L1650.63 570.039L1755.28 557.701L1670.93 647.881Z" fill="#034833"/>
<path d="M1651.42 404.099L1720.39 395.306L1629.48 330.995L1651.42 404.099Z" fill="#83CD20"/>
<path opacity="0.2" d="M190.633 755.101L259.605 746.308L168.7 681.997L190.633 755.101Z" fill="white"/>
<path d="M1679.91 522.521L1662.96 510.042L1694.69 500.828L1679.91 522.521Z" fill="#034833"/>
<path opacity="0.2" d="M1556.34 406.806L1607.51 393.398L1582.39 325.267L1556.34 406.806Z" fill="white"/>
<path d="M1436.28 688.602L1456.37 692.985L1435.64 672.997L1436.28 688.602Z" fill="#034833"/>
<path d="M1437.7 647.333L1393.28 620.99L1402.78 591.179L1437.7 647.333Z" fill="#83CD20"/>
<path d="M104.7 481.52L52.284 485.869L40.3894 456.814L104.7 481.52Z" fill="#83CD20"/>
<path opacity="0.2" d="M1271.57 698.138L1164.64 653.059L1255.52 620.958L1271.57 698.138Z" fill="white"/>
<path opacity="0.1" d="M1606.43 284.744L1781.05 222.675L1632.38 136.268L1606.43 284.744Z" fill="white"/>
<path opacity="0.3" d="M-53.2709 715.109L121.346 653.041L-27.3212 566.633L-53.2709 715.109Z" fill="#83CD20"/>
<path d="M1561.89 211.321L1592.05 173.523L1517.98 163.213L1561.89 211.321Z" fill="#83CD20"/>
<path opacity="0.1" d="M1267.2 661.046L1390.14 548.582L1392.2 670.315L1267.2 661.046Z" fill="white"/>
<path opacity="0.5" d="M1353.67 754.768L1307.33 785.574L1265.79 715.542L1353.67 754.768Z" fill="#034833"/>
<path d="M67.2684 112.491L20.9325 143.297L-20.6173 73.2645L67.2684 112.491Z" fill="#83CD20"/>
<path opacity="0.5" d="M1277.92 607.773L1293.62 630.031L1305.09 589.482L1277.92 607.773Z" fill="#034833"/>
<path opacity="0.1" d="M111.119 372.249L182.978 299.958L16.7424 324.054L111.119 372.249Z" fill="white"/>
<path opacity="0.2" d="M1461.76 540.21L1467.38 509.126L1428.2 517.336L1461.76 540.21Z" fill="white"/>
<path opacity="0.5" d="M1175.44 806.898L1040.19 728.765L1159.17 682.738L1175.44 806.898Z" fill="#034833"/>
<path opacity="0.5" d="M-59.414 660.287L115.217 598.213L-33.454 511.815L-59.414 660.287Z" stroke="white" stroke-width="0.929038" stroke-miterlimit="10"/>
</g>
<defs>
<linearGradient id="paint0_linear_3940_255" x1="1384.7" y1="566.843" x2="1655.85" y2="687.488" gradientUnits="userSpaceOnUse">
<stop offset="0.18" stop-color="#747378" stop-opacity="0.7"/>
<stop offset="0.27" stop-color="#8E8D91" stop-opacity="0.57"/>
<stop offset="0.46" stop-color="#BFBEC1" stop-opacity="0.32"/>
<stop offset="0.65" stop-color="#E2E2E3" stop-opacity="0.14"/>
<stop offset="0.83" stop-color="#F7F7F8" stop-opacity="0.04"/>
<stop offset="1" stop-color="white" stop-opacity="0"/>
</linearGradient>
<linearGradient id="paint1_linear_3940_255" x1="1331.51" y1="634.953" x2="1060.4" y2="514.326" gradientUnits="userSpaceOnUse">
<stop offset="0.18" stop-color="#747378" stop-opacity="0.7"/>
<stop offset="0.27" stop-color="#8E8D91" stop-opacity="0.57"/>
<stop offset="0.46" stop-color="#BFBEC1" stop-opacity="0.32"/>
<stop offset="0.65" stop-color="#E2E2E3" stop-opacity="0.14"/>
<stop offset="0.83" stop-color="#F7F7F8" stop-opacity="0.04"/>
<stop offset="1" stop-color="white" stop-opacity="0"/>
</linearGradient>
<clipPath id="clip0_3940_255">
<rect width="1682.49" height="720.004" fill="white" transform="translate(0.955078 0.447266)"/>
</clipPath>
</defs>
</svg>
