<svg width="1683" height="837" viewBox="0 0 1683 837" fill="none" xmlns="http://www.w3.org/2000/svg">
<g opacity="0.3">
<path d="M158.179 618.21C148.052 608.083 148.052 591.663 158.179 581.536C168.307 571.408 184.727 571.408 194.854 581.536C204.981 591.663 204.981 608.083 194.854 618.21C184.727 628.338 168.307 628.338 158.179 618.21Z" stroke="#034833" stroke-width="2.79569" stroke-miterlimit="10" stroke-linecap="round" stroke-dasharray="5.85 10.98"/>
<path d="M1681.35 883.837C1647.34 786.485 1546.54 724.328 1444.52 709.2C1342.51 694.073 1238.93 718.342 1140.15 747.963C1041.38 777.583 943.05 813.018 840.244 821.165C737.438 829.312 626.673 806.123 553.574 733.367C503.303 683.302 471.573 611.42 407.375 581.182C349.283 553.842 281.311 568.575 218.091 579.69C154.871 590.804 82.5945 595.452 33.6956 553.962C-15.9407 511.821 -22.1838 433.765 4.22943 374.249C30.6427 314.734 82.8003 270.74 136.81 234.379C190.82 198.018 248.844 166.665 296.199 121.968C343.554 77.2716 379.984 15.269 375.096 -49.6493C370.207 -114.568 312.304 -176.776 247.626 -169.246" stroke="#034833" stroke-width="2.79569" stroke-miterlimit="10" stroke-linecap="round" stroke-dasharray="5.85 10.98"/>
</g>
</svg>
