<svg width="66" height="97" viewBox="0 0 66 97" fill="none" xmlns="http://www.w3.org/2000/svg">
<path d="M35.005 32.3708C36.1425 26.9087 37.6663 22.1876 39.9289 17.7304C42.7496 12.1867 46.1844 7.11845 51.2047 3.29551C57.5436 -1.53547 64.7741 -1.09149 65.7909 9.17542C66.5407 16.6779 65.0272 23.9638 63.4584 31.2208C60.362 45.5126 54.6899 58.8574 48.1504 71.8616C47.1294 73.897 46.1819 75.9802 45.0229 77.9389C43.9121 79.7961 44.4349 80.7067 46.3973 81.1317C46.9712 81.2534 47.5248 81.4769 48.0692 81.6909C48.4846 81.847 48.8411 82.1785 48.8148 82.6148C48.786 83.1903 48.3252 83.4981 47.7858 83.5257C46.9487 83.5759 46.0253 83.7733 45.2868 83.5C42.9789 82.6508 41.9269 83.8122 41.0295 85.6918C39.4951 88.9075 37.4551 91.8169 35.186 94.5457C34.4455 95.4339 33.8271 97.2998 32.4373 96.5505C31.2041 95.8782 32.3642 94.3842 32.7352 93.3687C33.9941 89.9716 35.2532 86.5559 36.8256 83.2944C37.7996 81.286 37.5389 80.2686 35.6469 79.0179C27.068 73.393 19.1346 66.9898 12.6422 58.9767C6.93166 51.9346 2.47753 44.255 0.844691 35.1944C-0.0945701 29.9929 0.375947 24.9372 2.94049 20.2159C5.97583 14.6202 11.6538 12.4815 17.5878 14.7794C23.4016 17.0381 27.4489 21.4584 31.0801 26.2894C32.3873 28.0316 33.4589 29.9554 35.0052 32.3615L35.005 32.3708ZM40.2668 40.0926C40.1304 42.0229 40.0775 43.9639 39.8113 45.8733C39.6307 47.1524 38.7333 47.982 37.3755 48.0509C36.148 48.1035 35.267 47.4839 34.8037 46.3607C34.4207 45.4247 34.122 44.4531 33.8324 43.4909C32.6749 39.5957 31.3301 35.7808 29.227 32.287C26.0946 27.1024 22.4146 22.4006 16.9565 19.4699C12.5476 17.106 8.58325 18.4946 6.50518 23.0294C5.10367 26.0895 4.73057 29.3164 5.11721 32.6683C5.67374 37.4449 7.35202 41.8418 9.62906 46.0077C16.4788 58.5058 26.9278 67.6668 37.944 76.2803C39.5479 77.5352 39.9619 76.1952 40.4638 75.1356C43.2422 69.3588 46.1128 63.6208 48.7437 57.7764C54.5767 44.7875 58.922 31.3356 60.5858 17.1393C60.9579 13.968 61.2659 10.7399 60.4486 7.57552C59.8224 5.15784 58.7436 4.68345 56.5586 5.81552C54.5142 6.87575 52.7877 8.35043 51.3068 10.1175C44.0727 18.798 40.3372 28.7764 40.2575 40.0924L40.2668 40.0926Z" fill="#83CD20"/>
</svg>
