<svg width="106" height="50" viewBox="0 0 106 50" fill="none" xmlns="http://www.w3.org/2000/svg">
<g clip-path="url(#clip0_1136_3677)">
<path d="M11.4898 13.7031V22.9176H3.73592V13.7031H0.0546875V35.6989H3.73592V26.7837H11.4898V35.6989H15.171V13.7031H11.4898Z" fill="#33475B"/>
<path d="M26.9524 28.5883C26.9524 29.4698 26.6315 30.3152 26.0604 30.9386C25.4893 31.5619 24.7146 31.9121 23.9069 31.9121C23.0992 31.9121 22.3246 31.5619 21.7535 30.9386C21.1823 30.3152 20.8615 29.4698 20.8615 28.5883V19.1672H17.3696V28.5883C17.3696 30.4787 18.0577 32.2917 19.2825 33.6285C20.5073 34.9652 22.1685 35.7162 23.9006 35.7162C25.6328 35.7162 27.2939 34.9652 28.5187 33.6285C29.7435 32.2917 30.4316 30.4787 30.4316 28.5883V19.1672H26.9524V28.5883Z" fill="#33475B"/>
<path d="M52.8247 20.1381C52.8247 18.207 53.9952 17.5948 55.2776 17.5948C56.3111 17.5948 57.6765 18.4531 58.5693 19.4944L60.8563 16.5535C59.7146 14.8685 57.3987 13.7031 55.5031 13.7031C51.7154 13.7031 48.9757 16.1244 48.9757 20.1381C48.9757 27.5849 57.3157 25.2227 57.3157 29.39C57.3157 30.6754 56.1722 31.8112 54.8628 31.8112C52.7976 31.8112 52.1285 30.7089 51.1797 29.5435L48.642 32.4234C50.2653 34.5986 52.2673 35.7029 54.6662 35.7029C58.2645 35.7029 61.1593 33.2521 61.1593 29.4215C61.1593 21.1538 52.8193 23.7227 52.8193 20.1381" fill="#33475B"/>
<path d="M104.42 32.185C102.356 32.185 101.77 31.2106 101.77 29.7184V23.1142H104.977V19.7678H101.77V15.3525L98.2297 17.0867V30.5393C98.2297 33.9802 100.405 35.7144 103.388 35.7144C103.856 35.7237 104.324 35.6829 104.784 35.5924L105.648 32.122C105.258 32.1515 104.811 32.181 104.42 32.181" fill="#33475B"/>
<path d="M40.2443 19.2782C38.5146 19.2782 37.308 19.8255 36.141 21.0755V13.8354H32.6437V27.2545C32.6437 32.2781 35.9715 35.719 39.7104 35.719C43.8588 35.719 47.5076 32.2171 47.5076 27.5006C47.5076 22.8432 44.1492 19.2802 40.2443 19.2802V19.2782ZM40.2227 31.8785C39.4379 31.8785 38.6707 31.6245 38.0181 31.1486C37.3656 30.6728 36.857 29.9964 36.5567 29.2051C36.2564 28.4138 36.1778 27.543 36.3309 26.703C36.484 25.8629 36.8619 25.0912 37.4168 24.4856C37.9718 23.8799 38.6788 23.4675 39.4485 23.3004C40.2183 23.1333 41.0161 23.219 41.7411 23.5468C42.4662 23.8746 43.0859 24.4297 43.5219 25.1418C43.9579 25.854 44.1907 26.6913 44.1907 27.5478C44.1907 28.6964 43.7726 29.7979 43.0285 30.6101C42.2843 31.4222 41.275 31.8785 40.2227 31.8785Z" fill="#33475B"/>
<path d="M78.218 27.2989C78.218 22.5746 74.5765 19.0805 70.4209 19.0805C66.6819 19.0805 63.3542 22.5214 63.3542 27.545V40.972H66.8515V33.7221C68.0166 34.9701 69.2251 35.5193 70.9529 35.5193C74.8578 35.5193 78.2162 31.9583 78.2162 27.2989H78.218ZM74.9065 27.2517C74.9065 28.1082 74.6738 28.9455 74.2378 29.6577C73.8018 30.3699 73.1821 30.9249 72.457 31.2527C71.7319 31.5805 70.9341 31.6662 70.1644 31.4991C69.3947 31.332 68.6876 30.9196 68.1327 30.3139C67.5778 29.7083 67.1999 28.9366 67.0468 28.0966C66.8936 27.2565 66.9722 26.3857 67.2726 25.5944C67.5729 24.8031 68.0815 24.1267 68.734 23.6509C69.3866 23.175 70.1537 22.921 70.9385 22.921C71.9909 22.921 73.0002 23.3773 73.7443 24.1895C74.4885 25.0016 74.9065 26.1031 74.9065 27.2517Z" fill="#33475B"/>
<path d="M89.4801 19.0194V15.2241C89.9397 14.9899 90.3288 14.6179 90.6022 14.1516C90.8755 13.6853 91.0218 13.1439 91.0241 12.5903V12.5017C91.0222 11.7281 90.7397 10.9868 90.2385 10.4398C89.7373 9.89277 89.0581 9.58454 88.3493 9.58246H88.2681C87.5593 9.58454 86.88 9.89277 86.3788 10.4398C85.8776 10.9868 85.5952 11.7281 85.5933 12.5017V12.5903C85.5955 13.1439 85.7419 13.6853 86.0152 14.1516C86.2885 14.6179 86.6777 14.9899 87.1372 15.2241V19.0194C85.816 19.2399 84.5715 19.8375 83.5299 20.7516L73.9815 12.6435C74.0494 12.376 74.0858 12.1001 74.0897 11.8226C74.0904 11.1712 73.9141 10.5343 73.5831 9.99229C73.2522 9.45029 72.7814 9.02756 72.2303 8.77759C71.6792 8.52761 71.0725 8.4616 70.487 8.58791C69.9016 8.71421 69.3636 9.02717 68.941 9.48719C68.5185 9.94721 68.2305 10.5336 68.1134 11.1723C67.9962 11.811 68.0553 12.4732 68.283 13.0753C68.5107 13.6774 68.8969 14.1922 69.3928 14.5547C69.8886 14.9172 70.4718 15.1111 71.0686 15.1119C71.5928 15.1098 72.1072 14.957 72.5602 14.669L81.9481 22.6453C81.1026 24.0376 80.6614 25.6759 80.6823 27.3461C80.7032 29.0163 81.1852 30.6408 82.0654 32.0074L79.2084 35.1255C78.9791 35.0458 78.7402 35.0033 78.4996 34.9995C78.0091 34.9995 77.5296 35.1582 77.1218 35.4557C76.7139 35.7531 76.3961 36.1758 76.2083 36.6704C76.0206 37.1649 75.9715 37.7092 76.0672 38.2342C76.1629 38.7592 76.3991 39.2415 76.7459 39.6201C77.0928 39.9986 77.5347 40.2564 78.0157 40.3608C78.4968 40.4652 78.9955 40.4116 79.4486 40.2068C79.9018 40.0019 80.2891 39.655 80.5616 39.2099C80.8341 38.7648 80.9796 38.2415 80.9796 37.7062C80.9763 37.4435 80.9374 37.1828 80.8642 36.9325L83.6905 33.8479C84.613 34.617 85.6845 35.1459 86.8229 35.3942C87.9613 35.6425 89.1367 35.6036 90.2593 35.2805C91.3818 34.9574 92.4219 34.3587 93.3001 33.53C94.1783 32.7013 94.8714 31.6646 95.3265 30.4989C95.7816 29.3333 95.9867 28.0696 95.9261 26.8043C95.8655 25.539 95.5408 24.3055 94.9767 23.198C94.4127 22.0906 93.6243 21.1384 92.6717 20.4142C91.7191 19.69 90.6275 19.2129 89.4801 19.0194ZM88.3096 31.5035C87.5362 31.5035 86.7802 31.2532 86.1371 30.7842C85.4941 30.3153 84.9929 29.6488 84.6969 28.869C84.401 28.0892 84.3235 27.2311 84.4744 26.4032C84.6253 25.5754 84.9977 24.815 85.5446 24.2181C86.0915 23.6213 86.7882 23.2148 87.5467 23.0501C88.3052 22.8855 89.0915 22.97 89.806 23.293C90.5205 23.616 91.1312 24.163 91.5609 24.8648C91.9905 25.5666 92.2199 26.3917 92.2199 27.2358C92.2199 28.3677 91.8079 29.4532 91.0746 30.2535C90.3413 31.0538 89.3467 31.5035 88.3096 31.5035Z" fill="#FF7A59"/>
</g>
<defs>
<clipPath id="clip0_1136_3677">
<rect width="105.91" height="48.6693" fill="white" transform="translate(0.0546875 0.414062)"/>
</clipPath>
</defs>
</svg>
