<svg width="50" height="10" viewBox="0 0 50 10" fill="none" xmlns="http://www.w3.org/2000/svg">
<g clip-path="url(#clip0_1136_3681)">
<path d="M5.31209 2.67146C6.05521 2.8789 6.81908 3.0031 7.58964 3.04179L13.7989 3.71456C15.2036 3.87502 16.5889 4.17482 17.9343 4.60954C18.6675 4.85634 19.3729 5.17905 20.039 5.5724C20.7601 6.05833 21.5104 6.49945 22.2857 6.89326C22.7529 7.11193 23.2636 7.22168 23.7794 7.21422C24.3472 7.18118 24.8841 6.94451 25.2916 6.54762C26.0754 5.73905 26.2915 4.75767 26.8038 4.12811C27.0157 3.81895 27.3344 3.59911 27.6987 3.51088C28.0892 3.42432 28.4964 3.45217 28.8715 3.59112C29.7136 3.89743 30.4199 4.49224 30.8651 5.26996C31.4021 6.06618 31.8218 6.97349 32.4328 7.82526C33.0276 8.7405 33.9088 9.43289 34.9387 9.7942C35.4793 9.94857 36.0523 9.94857 36.5929 9.7942C37.1051 9.64229 37.5773 9.3788 37.9755 9.02267C38.6875 8.36923 39.2424 7.56318 39.5988 6.66488C39.9568 5.8378 40.216 5.03541 40.574 4.33178C40.9845 3.36996 41.7299 2.58968 42.672 2.13567C43.6141 1.68166 44.6888 1.58474 45.6969 1.86289C46.2324 1.99787 46.7329 2.24552 47.165 2.58931C47.5971 2.9331 47.951 3.36512 48.2028 3.85653C48.6057 4.61491 48.7976 5.46756 48.7584 6.32542C48.7429 6.87506 48.6257 7.41708 48.4127 7.92402C48.2707 8.28201 48.172 8.461 48.2028 8.48569C48.2337 8.51038 48.3818 8.35607 48.5917 8.0166C48.8947 7.51028 49.0822 6.94337 49.141 6.35627C49.2592 5.41705 49.105 4.46365 48.6966 3.60963C48.4292 3.02865 48.0401 2.51193 47.5556 2.09448C47.071 1.67704 46.5024 1.36862 45.8883 1.19012C45.1382 0.971193 44.3486 0.922973 43.5775 1.049C42.8064 1.17503 42.0733 1.47212 41.4319 1.91845C40.7341 2.43992 40.1746 3.12441 39.8025 3.91207C39.4013 4.6836 39.1173 5.49833 38.7655 6.26986C38.455 7.03857 37.9738 7.72664 37.3583 8.28201C37.0774 8.55201 36.731 8.74411 36.3533 8.83936C35.9755 8.93461 35.5794 8.92971 35.2041 8.82516C34.3945 8.52167 33.7041 7.96546 33.2352 7.2389C32.6982 6.49206 32.2785 5.58474 31.6922 4.70829C31.3939 4.25386 31.0393 3.83907 30.6367 3.47384C30.2125 3.10514 29.7196 2.82405 29.1862 2.64677C28.6358 2.45853 28.044 2.42648 27.4765 2.55419C26.9007 2.69649 26.3936 3.03747 26.0446 3.51705C25.3903 4.39351 25.1681 5.36871 24.6373 5.85632C24.3964 6.09799 24.0765 6.2448 23.7362 6.26986C23.3612 6.27273 22.9902 6.19264 22.6499 6.03532C21.9045 5.66598 21.1811 5.25381 20.4834 4.80088C19.761 4.38678 18.9951 4.05353 18.1997 3.80715C16.792 3.38615 15.3438 3.11512 13.8791 2.99859C11.2251 2.77639 9.09566 2.70849 7.61433 2.63442C6.84791 2.56162 6.07577 2.57404 5.31209 2.67146Z" fill="#034833"/>
<path d="M6.9245 6.50389C6.97388 6.37428 6.30729 6.01012 5.30122 5.40524C4.7951 5.1028 4.19638 4.73247 3.55447 4.29424C3.23352 4.07821 2.93725 3.83749 2.56691 3.5906C2.40834 3.48276 2.26147 3.35865 2.12869 3.22028C2.01762 3.11129 1.92949 2.98117 1.86947 2.83759C1.83861 2.72032 1.86947 2.72649 1.86947 2.68329C1.95897 2.60144 2.0706 2.54777 2.19042 2.52898L3.38783 2.20803C4.15319 1.99818 4.8383 1.79449 5.41232 1.59081C6.56035 1.22048 7.26398 0.924206 7.22077 0.794589C7.17757 0.664972 6.43691 0.714352 5.24567 0.911863C4.62845 1.01062 3.9495 1.14641 3.1718 1.30688L1.93735 1.57846C1.62178 1.6359 1.33236 1.79141 1.11028 2.02286C0.972737 2.17886 0.884654 2.37221 0.857215 2.57836C0.831953 2.76782 0.853139 2.96058 0.918941 3.14004C1.02239 3.41963 1.18685 3.67265 1.40037 3.8807C1.57433 4.05968 1.76912 4.21717 1.98056 4.34979C2.33855 4.60902 2.7027 4.83739 3.04835 5.04725C3.66516 5.41612 4.30891 5.73798 4.9741 6.01011C6.12213 6.49155 6.87512 6.62734 6.9245 6.50389Z" fill="#034833"/>
</g>
<defs>
<clipPath id="clip0_1136_3681">
<rect width="48.31" height="9.16575" fill="white" transform="matrix(-1 0 0 1 49.1719 0.740234)"/>
</clipPath>
</defs>
</svg>
