<svg width="53" height="53" viewBox="0 0 53 53" fill="none" xmlns="http://www.w3.org/2000/svg">
<rect x="0.728516" y="0.729492" width="52.0261" height="52.0261" rx="3.71615" fill="#EA4C89"/>
<g clip-path="url(#clip0_1149_3208)">
<path d="M15.5938 26.7432C15.5938 24.7216 16.0917 22.8561 17.0876 21.1467C18.0836 19.4372 19.4363 18.0846 21.1457 17.0886C22.8551 16.0927 24.7206 15.5947 26.7422 15.5947C28.7638 15.5947 30.6293 16.0927 32.3387 17.0886C34.0482 18.0846 35.4009 19.4372 36.3968 21.1467C37.3927 22.8561 37.8907 24.7216 37.8907 26.7432C37.8907 28.7648 37.3927 30.6303 36.3968 32.3397C35.4009 34.0491 34.0482 35.4018 32.3387 36.3977C30.6293 37.3937 28.7638 37.8916 26.7422 37.8916C24.7206 37.8916 22.8551 37.3937 21.1457 36.3977C19.4363 35.4018 18.0836 34.0491 17.0876 32.3397C16.0917 30.6303 15.5938 28.7648 15.5938 26.7432ZM17.4444 26.7432C17.4444 29.0621 18.2248 31.106 19.7856 32.8748C20.4991 31.4776 21.6288 30.1472 23.1747 28.8837C24.7206 27.6202 26.2294 26.8249 27.701 26.4979C27.478 25.9777 27.2625 25.5094 27.0544 25.0932C24.4977 25.9108 21.7328 26.3195 18.7599 26.3195C18.1802 26.3195 17.7491 26.3121 17.4667 26.2972C17.4667 26.3567 17.463 26.431 17.4555 26.5202C17.4481 26.6094 17.4444 26.6837 17.4444 26.7432ZM17.7343 24.4466C18.0613 24.4763 18.5444 24.4912 19.1836 24.4912C21.666 24.4912 24.022 24.1567 26.2517 23.4878C25.122 21.4811 23.8808 19.8088 22.5281 18.471C21.3538 19.0656 20.3467 19.8906 19.5069 20.946C18.667 22.0014 18.0762 23.1683 17.7343 24.4466ZM21.0565 34.0789C22.7362 35.387 24.6314 36.041 26.7422 36.041C27.8422 36.041 28.9348 35.8329 30.0199 35.4167C29.7226 32.8748 29.1428 30.4147 28.2807 28.0364C26.9132 28.3337 25.5345 29.0844 24.1446 30.2884C22.7548 31.4924 21.7254 32.7559 21.0565 34.0789ZM24.4679 17.7575C25.776 19.1102 26.9875 20.7973 28.1023 22.8189C30.1239 21.9716 31.6475 20.894 32.6732 19.5859C30.9489 18.1589 28.9719 17.4454 26.7422 17.4454C25.9841 17.4454 25.226 17.5494 24.4679 17.7575ZM28.905 24.402C29.128 24.8777 29.3807 25.4797 29.6631 26.2081C30.7631 26.104 31.9597 26.052 33.2529 26.052C34.1745 26.052 35.0887 26.0743 35.9954 26.1189C35.8765 24.0973 35.1481 22.2987 33.8103 20.723C32.8441 22.1649 31.209 23.3912 28.905 24.402ZM30.2205 27.7688C30.9786 29.9688 31.4914 32.2282 31.759 34.5471C32.9333 33.789 33.8921 32.8154 34.6353 31.6262C35.3786 30.437 35.8245 29.1512 35.9731 27.7688C34.888 27.6945 33.8995 27.6574 33.0076 27.6574C32.1901 27.6574 31.2611 27.6945 30.2205 27.7688Z" fill="white"/>
</g>
<defs>
<clipPath id="clip0_1149_3208">
<rect width="22.2969" height="22.2969" fill="white" transform="translate(15.5938 15.5938)"/>
</clipPath>
</defs>
</svg>
