<svg width="207" height="176" viewBox="0 0 207 176" fill="none" xmlns="http://www.w3.org/2000/svg">
<g clip-path="url(#clip0_1160_1206)">
<path d="M83.4589 73.4227C83.5141 73.3675 83.5648 73.356 83.6154 73.3859C83.6637 73.4112 83.6891 73.4481 83.6891 73.4964C83.7443 73.547 83.719 73.623 83.6154 73.7266C79.2691 75.513 74.8606 77.2143 70.3922 78.828C65.9216 80.4372 61.4371 81.9566 56.9389 83.3861L61.9206 109.676C62.0242 110.443 61.6927 110.931 60.9261 111.14C60.7718 111.14 60.6176 111.124 60.4656 111.094C60.3114 111.069 60.1572 111.032 60.0052 110.984C57.2427 109.197 54.4802 107.431 51.7177 105.689C48.9598 103.953 46.1766 102.243 43.3658 100.56C40.8657 98.9206 38.0825 97.2217 35.0138 95.4583C31.9497 93.6972 29.0376 92.2538 26.2751 91.1304C25.7088 90.8725 25.5569 90.4904 25.8147 89.9793C25.863 89.7215 26.0932 89.5442 26.5053 89.4452C31.0542 88.6786 35.6147 87.7693 40.1889 86.7196C44.7608 85.6698 49.2982 84.5073 53.7988 83.2296L53.2555 80.6236C51.4185 72.1957 49.6574 63.7632 47.9699 55.3284C42.5554 63.6596 36.8417 71.8642 30.8332 79.9422C24.8294 88.0156 18.25 95.5504 11.0998 102.549C11.0445 102.604 10.9663 102.604 10.8696 102.549C10.8143 102.452 10.8143 102.374 10.8696 102.318C14.2398 98.1816 17.5203 93.9665 20.7133 89.6754C23.9109 85.3797 26.9934 81.0334 29.9584 76.6364C33.0202 72.297 35.9945 67.8793 38.8813 63.3856C41.7727 58.8874 44.5951 54.3868 47.353 49.8862C47.6592 49.3222 48.1472 49.0391 48.8171 49.0391C48.969 49.0391 49.121 49.0667 49.2683 49.1219C49.4202 49.1726 49.5745 49.2486 49.7287 49.3521C50.1385 49.6054 50.3963 49.9875 50.5022 50.5032C51.5198 55.4089 52.5027 60.3262 53.4489 65.2549C54.3927 70.186 55.3274 75.1309 56.2482 80.0896L56.7086 82.3916C61.2576 81.061 65.765 79.6545 70.2357 78.1742C74.7109 76.6894 79.1171 75.1056 83.4589 73.4227ZM29.5717 90.6699C32.1247 91.844 34.6409 93.1194 37.1225 94.5006C39.6019 95.8819 42.0421 97.2884 44.4431 98.718C46.8419 100.15 49.2545 101.58 51.6809 103.009C54.1119 104.439 56.5015 105.896 58.8542 107.383L54.029 84.307C49.9889 85.5363 45.9372 86.6873 41.874 87.7601C37.8085 88.8283 33.7085 89.7997 29.5717 90.6699Z" fill="#83CD20"/>
<path d="M196.702 83.7567V85.8286H210.634V92.8177H161.793V94.8896H210.634V101.879H157.263C156.637 101.879 156.093 101.681 155.633 101.289C155.172 100.896 154.892 100.387 154.795 99.7608V88.2872C154.795 87.6012 155.039 87.0211 155.532 86.5468C156.029 86.068 156.604 85.8286 157.263 85.8286H189.713V76.7676H207.144C208.095 76.7676 208.915 77.1129 209.603 77.7989C210.289 78.4872 210.634 79.3068 210.634 80.2575V83.7567H196.702Z" fill="#034833"/>
<path d="M131.07 82.8145V104.426C131.07 105.377 130.725 106.197 130.039 106.885C129.351 107.578 128.531 107.926 127.58 107.926H110.094V100.936H124.081V98.8646H110.094V85.2731C110.094 84.5871 110.329 84.0069 110.803 83.5327C111.282 83.0539 111.866 82.8145 112.562 82.8145H131.07ZM124.081 91.8755V89.7575H117.092V91.8755H124.081Z" fill="#034833"/>
<path d="M127.629 98.8661V91.877H138.062V98.8661H127.629Z" fill="#034833"/>
<path d="M134.619 98.8661V91.877H145.052V98.8661H134.619Z" fill="#034833"/>
<path d="M141.611 98.8661V91.877H152.044V98.8661H141.611Z" fill="#034833"/>
<path d="M148.604 98.8661V91.877H159.037V98.8661H148.604Z" fill="#034833"/>
<path d="M98.934 86.2589L95.4348 89.7581L91.9448 86.2589L95.4348 82.7598L98.934 86.2589ZM96.4753 91.876H103.464V105.468C103.464 106.154 103.218 106.734 102.728 107.208C102.235 107.687 101.662 107.926 101.006 107.926H82.8838C82.1886 107.926 81.6039 107.687 81.1251 107.208C80.6508 106.734 80.416 106.154 80.416 105.468V94.3346C80.416 93.6486 80.6508 93.0685 81.1251 92.5943C81.6039 92.1154 82.1886 91.876 82.8838 91.876H94.3574V98.8651H87.4143V100.937H96.4753V91.876Z" fill="#034833"/>
<path d="M184.047 69.2L194.374 65.9172" stroke="#83CD20" stroke-width="1.25948" stroke-linecap="round"/>
<mask id="mask0_1160_1206" style="mask-type:luminance" maskUnits="userSpaceOnUse" x="117" y="69" width="7" height="7">
<path d="M117.291 69.2852H123.311V75.3051H117.291V69.2852Z" fill="white"/>
</mask>
<g mask="url(#mask0_1160_1206)">
<mask id="mask1_1160_1206" style="mask-type:luminance" maskUnits="userSpaceOnUse" x="117" y="69" width="7" height="7">
<path d="M120.302 69.2852C118.64 69.2852 117.291 70.6319 117.291 72.294C117.291 73.9561 118.64 75.3051 120.302 75.3051C121.964 75.3051 123.311 73.9561 123.311 72.294C123.311 70.6319 121.964 69.2852 120.302 69.2852Z" fill="white"/>
</mask>
<g mask="url(#mask1_1160_1206)">
<path d="M120.302 69.2852C118.64 69.2852 117.291 70.6319 117.291 72.294C117.291 73.9561 118.64 75.3051 120.302 75.3051C121.964 75.3051 123.311 73.9561 123.311 72.294C123.311 70.6319 121.964 69.2852 120.302 69.2852Z" stroke="#83CD20" stroke-width="2"/>
</g>
</g>
</g>
<defs>
<clipPath id="clip0_1160_1206">
<rect width="205.317" height="205.317" fill="white" transform="translate(0.808594 -30.0742)"/>
</clipPath>
</defs>
</svg>
