<svg width="211" height="141" viewBox="0 0 211 141" fill="none" xmlns="http://www.w3.org/2000/svg">
<g clip-path="url(#clip0_1184_2778)">
<path d="M83.5389 51.5262C83.5942 51.471 83.6448 51.4595 83.6955 51.4894C83.7438 51.5147 83.7691 51.5516 83.7691 51.5999C83.8244 51.6506 83.7991 51.7265 83.6955 51.8301C79.3491 53.6165 74.9407 55.3178 70.4723 56.9315C66.0017 58.5407 61.5172 60.0601 57.0189 61.4897L62.0006 87.7794C62.1042 88.546 61.7727 89.0341 61.0061 89.2436C60.8519 89.2436 60.6977 89.2275 60.5457 89.1975C60.3915 89.1722 60.2372 89.1354 60.0853 89.087C57.3228 87.3006 54.5603 85.5349 51.7978 83.7922C49.0399 82.0565 46.2567 80.346 43.4459 78.6632C40.9458 77.0241 38.1626 75.3252 35.0939 73.5618C32.0298 71.8007 29.1177 70.3573 26.3552 69.2339C25.7889 68.976 25.6369 68.5939 25.8948 68.0828C25.9431 67.825 26.1733 67.6477 26.5854 67.5487C31.1343 66.7822 35.6947 65.8728 40.269 64.8231C44.8409 63.7733 49.3783 62.6108 53.8789 61.3331L53.3356 58.7272C51.4985 50.2992 49.7374 41.8667 48.05 33.4319C42.6355 41.7631 36.9217 49.9677 30.9133 58.0457C24.9095 66.1191 18.3301 73.6539 11.1798 80.6522C11.1246 80.7075 11.0463 80.7075 10.9496 80.6522C10.8944 80.5555 10.8944 80.4772 10.9496 80.422C14.3199 76.2851 17.6004 72.07 20.7933 67.7789C23.9909 63.4833 27.0734 59.1369 30.0385 54.74C33.1003 50.4005 36.0746 45.9828 38.9614 41.4892C41.8528 36.9909 44.6752 32.4903 47.4331 27.9897C47.7392 27.4257 48.2273 27.1426 48.8972 27.1426C49.0491 27.1426 49.2011 27.1702 49.3484 27.2255C49.5003 27.2761 49.6546 27.3521 49.8088 27.4557C50.2186 27.7089 50.4764 28.091 50.5823 28.6067C51.5998 33.5124 52.5828 38.4297 53.529 43.3585C54.4728 48.2895 55.4075 53.2344 56.3283 58.1931L56.7887 60.4952C61.3376 59.1646 65.8451 57.758 70.3158 56.2777C74.791 54.7929 79.1972 53.2091 83.5389 51.5262ZM29.6518 68.7734C32.2048 69.9475 34.721 71.2229 37.2026 72.6041C39.6819 73.9854 42.1222 75.3919 44.5232 76.8215C46.922 78.2534 49.3346 79.683 51.761 81.1126C54.192 82.5422 56.5815 83.9994 58.9343 85.4866L54.1091 62.4105C50.0689 63.6398 46.0173 64.7908 41.9541 65.8636C37.8886 66.9318 33.7886 67.9033 29.6518 68.7734Z" fill="#83CD20"/>
<path d="M196.782 61.8602V63.9321H210.714V70.9212H161.873V72.9931H210.714V79.9822H157.343C156.717 79.9822 156.173 79.7842 155.713 79.3929C155.253 78.9992 154.972 78.4905 154.875 77.8643V66.3907C154.875 65.7047 155.119 65.1246 155.612 64.6503C156.109 64.1715 156.684 63.9321 157.343 63.9321H189.793V54.8711H207.224C208.175 54.8711 208.995 55.2164 209.683 55.9024C210.369 56.5908 210.714 57.4103 210.714 58.3611V61.8602H196.782Z" fill="#034833"/>
<path d="M131.15 60.918V82.5299C131.15 83.4807 130.805 84.3002 130.119 84.9886C129.431 85.6815 128.611 86.0291 127.66 86.0291H110.174V79.04H124.161V76.9681H110.174V63.3766C110.174 62.6906 110.409 62.1104 110.883 61.6362C111.362 61.1574 111.946 60.918 112.642 60.918H131.15ZM124.161 69.979V67.8611H117.172V69.979H124.161Z" fill="#034833"/>
<path d="M127.709 76.9696V69.9805H138.142V76.9696H127.709Z" fill="#034833"/>
<path d="M134.699 76.9696V69.9805H145.132V76.9696H134.699Z" fill="#034833"/>
<path d="M141.691 76.9696V69.9805H152.124V76.9696H141.691Z" fill="#034833"/>
<path d="M148.684 76.9696V69.9805H159.117V76.9696H148.684Z" fill="#034833"/>
<path d="M99.0141 64.3624L95.5149 67.8616L92.0249 64.3624L95.5149 60.8633L99.0141 64.3624ZM96.5554 69.9795H103.545V83.571C103.545 84.2571 103.298 84.8372 102.808 85.3114C102.315 85.7902 101.742 86.0297 101.086 86.0297H82.9639C82.2687 86.0297 81.684 85.7902 81.2051 85.3114C80.7309 84.8372 80.4961 84.2571 80.4961 83.571V72.4382C80.4961 71.7521 80.7309 71.172 81.2051 70.6978C81.684 70.2189 82.2687 69.9795 82.9639 69.9795H94.4375V76.9687H87.4944V79.0405H96.5554V69.9795Z" fill="#034833"/>
<path d="M184.127 47.3035L194.454 44.0207" stroke="#83CD20" stroke-width="1.25948" stroke-linecap="round"/>
<mask id="mask0_1184_2778" style="mask-type:luminance" maskUnits="userSpaceOnUse" x="117" y="47" width="7" height="7">
<path d="M117.371 47.3887H123.391V53.4086H117.371V47.3887Z" fill="white"/>
</mask>
<g mask="url(#mask0_1184_2778)">
<mask id="mask1_1184_2778" style="mask-type:luminance" maskUnits="userSpaceOnUse" x="117" y="47" width="7" height="7">
<path d="M120.382 47.3887C118.72 47.3887 117.371 48.7354 117.371 50.3975C117.371 52.0596 118.72 53.4086 120.382 53.4086C122.044 53.4086 123.391 52.0596 123.391 50.3975C123.391 48.7354 122.044 47.3887 120.382 47.3887Z" fill="white"/>
</mask>
<g mask="url(#mask1_1184_2778)">
<path d="M120.382 47.3887C118.72 47.3887 117.371 48.7354 117.371 50.3975C117.371 52.0596 118.72 53.4086 120.382 53.4086C122.044 53.4086 123.391 52.0596 123.391 50.3975C123.391 48.7354 122.044 47.3887 120.382 47.3887Z" stroke="#83CD20" stroke-width="2"/>
</g>
</g>
</g>
<defs>
<clipPath id="clip0_1184_2778">
<rect width="209.463" height="209.463" fill="white" transform="translate(0.888672 -51.9707)"/>
</clipPath>
</defs>
</svg>
