<svg width="558" height="624" viewBox="0 0 558 624" fill="none" xmlns="http://www.w3.org/2000/svg">
<g clip-path="url(#clip0_3843_1050)">
<path d="M555.776 346.762C549.71 398.048 526.296 457.693 479.511 485.146C408.837 526.564 414.75 590.248 276.827 617.939C256.707 622.073 236.197 624.013 215.659 623.726C205.608 623.546 195.579 622.724 185.634 621.266C97.9622 608.462 38.9462 547.517 17.308 473.95C-11.1796 377.193 45.6977 313.857 83.3969 275.683C121.096 237.508 148.689 118.54 284.096 90.2341C304.764 85.8307 325.871 83.8278 346.998 84.2654C395.167 85.4536 447.711 101.263 484.082 134.293C486.803 136.772 489.459 139.34 492.05 141.995C542.567 193.882 564.037 276.829 555.776 346.762Z" fill="#83CD20"/>
<path d="M555.776 346.762C549.71 398.048 526.296 457.693 479.511 485.146C408.837 526.564 414.75 590.248 276.827 617.939C256.707 622.073 236.197 624.013 215.659 623.726C205.608 623.546 195.579 622.724 185.634 621.266C97.9622 608.462 38.9462 547.517 17.308 473.95C-11.1796 377.193 45.6977 313.857 83.3969 275.683C121.096 237.508 148.689 118.54 284.096 90.2341C304.764 85.8307 325.871 83.8278 346.998 84.2654C395.167 85.4536 447.711 101.263 484.082 134.293C486.803 136.772 489.459 139.34 492.05 141.995C542.567 193.882 564.037 276.829 555.776 346.762Z" fill="white"/>
<g opacity="0.15">
<path d="M374.62 97.2203C367.994 101.819 350.186 104.908 350.172 104.908C350.158 104.908 351.696 92.5515 351.891 91.7827C354.184 82.8786 363.829 67.0134 374.117 66.3843C381.511 65.937 386.949 72.367 386.697 79.4819C386.445 86.5968 380.267 93.2644 374.62 97.2203Z" fill="#D9D9D9"/>
<path d="M325.57 321.304C325.57 321.723 325.57 322.115 325.57 322.534L319.42 326.462C319.42 324.784 319.42 323.093 319.42 321.332C319.42 316.383 319.518 311.086 319.658 305.648C314.555 304.695 309.514 303.439 304.561 301.888C300.493 308.5 288.542 317.669 286.991 318.844C289.66 322.925 292.316 326.853 294.86 330.543C296.622 333.073 298.327 335.492 299.976 337.826L293.281 339.14C292.135 337.463 290.988 335.743 289.814 333.954C287.019 329.83 284.223 325.357 281.357 320.745C279.54 321.513 264.583 327.734 257.035 327.524C250.172 327.342 241.478 325.19 237.256 319.277C233.035 313.364 234.153 305.131 240.597 301.455C249.543 296.339 266.303 304.334 273.082 310.541C273.488 310.904 277.388 315.363 279.806 318.215C278.646 316.328 277.485 314.496 276.311 312.539C273.963 308.667 271.74 304.74 269.322 300.532L265.995 294.242C264.849 292.159 263.899 289.825 262.822 287.588C260.432 282.374 258.279 276.979 256.225 271.499C252.842 273.554 240.695 280.655 233.859 281.508C227.024 282.361 218.134 281.508 213.06 276.35C207.986 271.192 207.846 262.833 213.661 258.178C221.726 251.776 239.507 257.144 247.209 262.246C247.698 262.553 252.8 266.845 255.512 269.235C254.296 265.922 253.079 262.623 251.961 259.241C248.746 249.456 245.797 239.475 242.805 229.523C241.874 226.476 240.942 223.438 240.01 220.409C238.822 221.15 224.634 229.914 216.904 230.865C210.082 231.731 201.164 230.865 196.104 225.707C191.044 220.549 190.89 212.19 196.705 207.535C204.771 201.133 222.551 206.501 230.253 211.603C230.826 211.994 238.123 218.159 239.898 219.822C237.829 213.126 235.705 206.487 233.356 200.029C230.17 191.328 226.42 182.844 222.132 174.631C221.573 174.966 206.756 184.178 198.9 185.156C192.079 186.009 183.16 185.156 178.086 179.998C173.012 174.84 172.873 166.481 178.687 161.826C186.753 155.424 204.533 160.792 212.235 165.894C212.822 166.299 220.622 172.883 222.02 174.281C221.782 173.806 221.573 173.289 221.321 172.883C216.829 164.718 211.623 156.968 205.763 149.721C202.59 145.668 199.319 141.991 195.978 138.539C193.393 140.538 181.483 149.54 174.508 151.203C167.826 152.797 158.866 152.978 153.261 148.407C147.656 143.837 146.593 135.547 151.863 130.334C159.188 123.079 177.443 126.462 185.607 130.697C186.054 130.921 190.303 133.758 193.379 135.869C191.883 134.303 190.359 132.668 188.906 131.2C183.412 125.609 178.058 120.94 173.278 116.789C170.482 114.454 168.022 112.4 165.632 110.499C162.081 111.128 147.698 113.518 140.862 111.812C134.027 110.107 126.171 106.221 123.32 99.4977C120.468 92.7741 123.32 85.0162 130.421 82.8077C140.205 79.7465 154.897 91.1946 160.194 98.6729C160.656 99.3299 166.638 110.303 166.457 110.345H166.247C168.567 112.12 171.041 114.063 173.711 116.244C178.59 120.297 184.069 124.91 189.688 130.348C195.814 136.133 201.592 142.276 206.993 148.743C213.094 155.942 218.534 163.675 223.25 171.849L223.404 172.156C222.761 169.207 221.265 160.904 221.223 160.247C220.622 151.077 224.843 132.989 234.419 129.187C241.31 126.392 248.481 130.865 250.424 137.714C252.367 144.563 248.69 152.685 244.497 158.164C239.828 164.357 225.067 172.352 223.893 172.995C228.487 181.425 232.512 190.153 235.942 199.12C237.969 204.334 239.856 209.66 241.673 215.014C241.212 212.442 240.807 210.135 240.793 209.814C240.192 200.644 244.413 182.556 253.988 178.754C260.879 175.958 268.05 180.431 269.993 187.281C271.936 194.13 268.26 202.405 264.066 207.885C259.873 213.364 247.418 220.465 244.091 222.352C244.776 224.421 245.489 226.462 246.146 228.53C249.347 238.427 252.506 248.324 255.931 257.885C257.119 261.267 258.419 264.552 259.719 267.851C259.3 265.573 258.978 263.658 258.95 263.35C258.349 254.18 262.571 236.093 272.146 232.291C279.037 229.565 286.208 233.968 288.151 240.817C290.094 247.667 286.431 255.998 282.238 261.477C278.045 266.957 266.862 273.428 262.864 275.609C264.262 278.95 265.66 282.291 267.239 285.394C268.33 287.532 269.238 289.671 270.454 291.768C271.67 293.865 272.775 295.961 273.907 297.988C276.255 301.86 278.646 305.872 281.022 309.59C282.657 312.19 284.265 314.636 285.872 317.11C284.642 313.742 282.364 307.13 282.238 306.543C280.798 298.6 281.409 290.421 284.013 282.78C283.813 281.898 283.696 281 283.664 280.096C283.412 272.995 288.878 266.593 296.244 267.082C306.518 267.753 316.079 283.674 318.316 292.593C318.455 293.11 319.252 298.981 319.714 302.685C319.797 300.476 319.839 298.31 319.937 296.031C320.119 291.516 320.412 287.001 320.72 282.151C320.958 279.816 321.195 277.454 321.433 275.078C321.67 272.702 322.118 270.227 322.439 267.781C323.334 262.19 324.508 256.431 325.822 250.714C321.866 250.56 307.818 249.791 301.64 246.73C295.461 243.669 288.486 238.078 287.13 230.949C285.774 223.82 290.247 216.789 297.628 216.16C307.888 215.265 319.769 229.551 323.334 238.022C323.558 238.553 325.431 244.927 326.395 248.435C327.206 245.011 328.003 241.586 328.939 238.161C331.651 228.223 334.698 218.27 337.69 208.318C338.612 205.271 339.493 202.223 340.387 199.162C338.989 199.162 322.216 198.575 315.338 195.137C309.188 192.089 302.185 186.498 300.829 179.355C299.473 172.212 303.946 165.209 311.341 164.566C321.587 163.686 333.468 177.957 337.033 186.442C337.298 187.071 339.982 196.227 340.555 198.617C342.512 191.894 344.413 185.184 346.007 178.502C348.215 169.481 349.83 160.324 350.843 151.091C350.186 151.091 332.671 150.574 325.682 147.051C319.518 144.004 312.529 138.413 311.173 131.27C309.817 124.127 314.276 117.124 321.67 116.481C331.93 115.601 343.798 129.872 347.362 138.357C347.656 139.014 350.535 148.883 350.927 150.714C350.927 150.183 351.095 149.623 351.15 149.092C351.917 139.786 351.851 130.43 350.955 121.136C350.535 116.006 349.837 111.128 349.054 106.403C345.797 106.641 330.882 107.577 324.159 105.117C317.701 102.769 310.18 97.974 308.014 91.0269C305.847 84.0797 309.551 76.6153 316.82 75.1756C326.926 73.1627 340.289 86.0506 344.776 94.0881C345.014 94.5214 346.999 99.2321 348.397 102.699C348.005 100.56 347.656 98.3514 347.251 96.3246C345.727 88.6925 343.868 81.7873 342.163 75.6928C341.17 72.2262 340.206 69.123 339.269 66.2156C335.942 64.8177 322.635 58.849 317.882 53.6352C313.13 48.4213 308.727 40.8311 310.041 33.6743C311.355 26.5175 318.022 21.7369 325.151 23.7777C335.048 26.6572 340.96 44.2558 341.24 53.4535C341.24 54.2362 340.192 66.7048 340.024 66.6349L339.814 66.551C340.779 69.3467 341.771 72.2961 342.792 75.5809C344.623 81.6475 346.636 88.5248 348.383 96.1708C350.301 104.374 351.738 112.682 352.688 121.052C353.79 130.427 354.056 139.88 353.485 149.302V149.637C354.589 146.842 357.916 139.07 358.237 138.455C362.794 130.473 376.297 117.725 386.376 119.836C393.63 121.36 397.181 128.992 395.028 135.785C392.875 142.578 385.243 147.415 378.729 149.763C371.419 152.335 354.687 150.868 353.359 150.742C352.541 160.315 351.084 169.823 348.998 179.201C347.81 184.667 346.454 190.146 345.014 195.612C346.048 193.208 346.985 191.069 347.139 190.789C351.696 182.808 365.199 170.046 375.277 172.17C382.546 173.694 386.082 181.326 383.929 188.105C381.777 194.885 374.145 199.749 367.631 202.084C361.117 204.418 346.775 203.482 342.987 203.132C342.428 205.229 341.869 207.326 341.296 209.408C338.5 219.445 335.705 229.439 333.216 239.336C332.35 242.816 331.623 246.325 330.882 249.735C331.791 247.611 332.573 245.821 332.727 245.542C337.284 237.56 350.787 224.812 360.865 226.923C368.12 228.447 371.671 236.079 369.518 242.872C367.365 249.665 359.733 254.502 353.219 256.85C346.705 259.199 333.748 258.248 329.261 257.941C328.604 261.519 327.947 265.097 327.471 268.578C327.206 270.968 326.773 273.247 326.647 275.665C326.521 278.083 326.269 280.418 326.088 282.752C325.906 287.281 325.682 291.936 325.612 296.353C325.612 299.428 325.528 302.349 325.514 305.299C326.339 301.818 328.1 295.039 328.31 294.494C331.609 285.911 343.029 271.262 353.303 271.821C360.712 272.226 365.366 279.243 364.262 286.274C363.158 293.305 356.322 299.26 350.284 302.503C343.616 306.068 327.513 307.186 325.501 307.312C325.375 312.078 325.403 316.831 325.57 321.304Z" fill="#D9D9D9"/>
<path d="M196.021 136.443C195.881 136.569 190.429 125.261 190.206 124.534C187.2 115.854 186.501 97.2905 194.735 91.0981C200.661 86.6391 208.713 89.0014 212.431 95.0959C216.149 101.19 214.709 110.15 212.165 116.538C209.174 124.017 196.035 136.429 196.021 136.443Z" fill="#D9D9D9"/>
</g>
<g opacity="0.15">
<path d="M103.217 356.196C102.071 360.194 95.9765 367.253 95.9765 367.267C95.9765 367.281 92.5518 361.829 92.3701 361.466C90.3712 357.16 89.0433 347.683 92.9292 344.063C93.5953 343.483 94.3756 343.05 95.2196 342.792C96.0636 342.533 96.9525 342.455 97.8288 342.561C98.7051 342.668 99.5492 342.958 100.306 343.411C101.064 343.865 101.717 344.473 102.225 345.195C104.475 348.186 104.182 352.785 103.217 356.196Z" fill="#D9D9D9"/>
<path d="M156.895 461.645L157.3 462.12L156.154 465.698L154.476 463.658C152.855 461.687 151.163 459.548 149.444 457.325C147.095 458.612 144.672 459.76 142.189 460.764C142.735 464.734 140.959 472.296 140.722 473.261C143.126 474.015 145.46 474.728 147.711 475.357C149.248 475.805 150.716 476.21 152.142 476.587L149.891 479.383L146.816 478.447C144.37 477.692 141.784 476.839 139.128 475.93C138.653 476.839 134.725 484.206 131.65 486.596C128.854 488.762 124.661 490.789 121.054 489.769C120.196 489.566 119.39 489.185 118.689 488.65C117.988 488.115 117.407 487.439 116.983 486.666C116.56 485.892 116.305 485.038 116.233 484.159C116.161 483.28 116.275 482.396 116.567 481.564C118.454 476.601 127.75 474.309 132.489 474.575C132.768 474.575 135.787 475.092 137.674 475.441C136.598 475.064 135.536 474.714 134.432 474.309C132.237 473.54 130.056 472.702 127.722 471.807L124.339 470.409C123.193 469.962 122.047 469.347 120.901 468.802C118.245 467.502 115.617 466.006 113.003 464.538C112.318 466.467 109.802 473.261 107.412 475.847C105.021 478.433 101.149 481.005 97.4312 480.585C96.5521 480.516 95.6974 480.262 94.9225 479.841C94.1477 479.42 93.47 478.841 92.9336 478.141C92.3971 477.441 92.0138 476.636 91.8085 475.779C91.6033 474.921 91.5806 474.03 91.7421 473.163C92.8604 467.977 101.709 464.301 106.433 463.839C106.727 463.839 110.151 463.839 112.024 463.909C110.459 462.987 108.893 462.078 107.342 461.114C102.869 458.318 98.4237 455.257 93.9786 452.265C92.5808 451.343 91.183 450.448 89.883 449.47C89.6454 450.155 86.8218 458.304 84.0821 461.197C81.6498 463.769 77.8198 466.355 74.1016 465.936C73.2225 465.867 72.3678 465.613 71.5929 465.192C70.8181 464.771 70.1404 464.192 69.604 463.492C69.0675 462.792 68.6842 461.987 68.4789 461.129C68.2737 460.272 68.251 459.381 68.4125 458.514C69.5307 453.328 78.379 449.651 83.1036 449.19C83.453 449.19 88.3873 449.19 89.6314 449.302C86.6261 447.317 83.6068 445.36 80.5596 443.557C76.4493 441.09 72.1814 438.895 67.7835 436.987C67.6856 437.309 64.7782 445.835 61.9685 448.785C59.5224 451.357 55.7063 453.957 51.9741 453.537C51.0948 453.466 50.2402 453.211 49.4659 452.789C48.6916 452.366 48.0148 451.785 47.4796 451.084C46.9444 450.382 46.5627 449.576 46.3593 448.718C46.1559 447.859 46.1354 446.968 46.299 446.101C47.4172 440.915 56.2654 437.239 60.9761 436.778C61.3535 436.778 66.6512 436.778 67.6157 436.903C67.3641 436.805 67.0985 436.666 66.8469 436.554C62.3939 434.742 57.7854 433.338 53.0784 432.36C50.4785 431.787 47.9764 431.382 45.5302 431.046C45.1528 432.682 43.3356 440.174 41.0991 443.11C38.8626 446.045 35.4379 448.939 31.6917 448.925C30.8108 448.953 29.9339 448.795 29.118 448.462C28.3021 448.128 27.5655 447.627 26.9563 446.99C26.3471 446.353 25.8788 445.595 25.5821 444.765C25.2853 443.935 25.1666 443.052 25.2338 442.173C25.779 436.889 34.1659 432.263 38.8066 431.284C39.0583 431.284 41.6862 430.977 43.6012 430.809C42.4829 430.683 41.3507 430.515 40.2883 430.403C36.2906 429.998 32.6003 429.858 29.3434 429.774C27.4843 429.774 25.8069 429.774 24.2414 429.774C23.0253 431.172 18.063 436.833 14.7921 438.385C11.5212 439.937 7.0901 440.943 3.76329 439.21C2.96701 438.83 2.25986 438.286 1.68798 437.614C1.11609 436.942 0.692333 436.157 0.444352 435.31C0.19637 434.463 0.12974 433.573 0.248812 432.699C0.367884 431.825 0.669985 430.985 1.13539 430.236C4.05684 425.805 13.6319 425.567 18.2028 426.839C18.5942 426.937 24.5768 429.369 24.5209 429.439L24.4371 429.523C25.9467 429.523 27.5682 429.439 29.3434 429.439C32.6143 429.439 36.3325 429.509 40.3303 429.844C44.6642 430.155 48.9767 430.715 53.2461 431.522C58.0109 432.409 62.6884 433.714 67.2243 435.422L67.3921 435.492C66.176 434.527 62.8631 431.703 62.6255 431.466C59.3826 427.999 55.1612 419.403 57.7331 414.692C58.1846 413.933 58.7904 413.278 59.5113 412.768C60.2321 412.259 61.0519 411.906 61.9177 411.734C62.7834 411.561 63.6758 411.572 64.5369 411.766C65.3981 411.961 66.2089 412.333 66.9168 412.861C69.992 414.999 71.1103 419.472 71.292 423.009C71.4458 427.007 68.1749 435.016 67.9093 435.589C72.5018 437.444 76.962 439.611 81.2585 442.075C83.7745 443.473 86.2627 444.997 88.7368 446.534C87.7164 445.668 86.8078 444.871 86.696 444.745C83.453 441.292 79.2176 432.696 81.8036 428.055C82.2522 427.295 82.8559 426.638 83.5754 426.128C84.2949 425.617 85.1141 425.264 85.9793 425.091C86.8446 424.918 87.7367 424.93 88.5972 425.125C89.4577 425.32 90.2673 425.695 90.9733 426.224C94.0485 428.363 95.1668 432.836 95.3485 436.372C95.5302 439.909 92.8464 446.856 92.1195 448.673L94.9152 450.462C99.4301 453.356 103.931 456.277 108.432 459.003C110.012 459.953 111.605 460.848 113.199 461.799C112.29 461.016 111.535 460.401 111.423 460.247C108.18 456.78 103.959 448.184 106.531 443.543C106.981 442.785 107.586 442.13 108.305 441.62C109.025 441.111 109.844 440.758 110.708 440.586C111.573 440.413 112.464 440.424 113.324 440.618C114.184 440.812 114.994 441.185 115.701 441.712C118.776 443.85 119.894 448.323 120.09 451.86C120.286 455.396 117.825 461.645 116.973 463.839C118.636 464.706 120.3 465.573 121.935 466.341C123.081 466.831 124.13 467.39 125.304 467.823L128.714 469.221C130.909 470.004 133.174 470.814 135.34 471.527C136.85 472.031 138.29 472.478 139.729 472.925C138.15 471.989 135.075 470.129 134.837 469.892C131.654 467.195 129.218 463.724 127.764 459.814C127.391 459.534 127.049 459.215 126.744 458.863C126.137 458.223 125.673 457.461 125.381 456.629C125.09 455.797 124.977 454.912 125.051 454.033C125.125 453.154 125.383 452.301 125.81 451.529C126.237 450.757 126.822 450.084 127.526 449.554C131.832 446.464 140.862 449.679 144.664 452.503C144.887 452.671 147.124 454.753 148.522 456.081C147.823 455.173 147.124 454.306 146.425 453.356C145.027 451.497 143.629 449.596 142.231 447.569L140.205 444.507C139.506 443.515 138.891 442.355 138.22 441.279C136.724 438.72 135.326 436.065 134.026 433.367C132.405 434.597 126.548 438.874 123.081 439.671C119.615 440.468 115.016 440.524 112.136 438.119C111.441 437.577 110.868 436.895 110.454 436.116C110.04 435.338 109.794 434.481 109.734 433.601C109.673 432.722 109.798 431.839 110.101 431.011C110.405 430.183 110.879 429.428 111.493 428.796C115.295 425.078 124.689 426.895 128.882 429.117C129.148 429.257 131.985 431.186 133.509 432.263C132.726 430.641 131.915 429.006 131.175 427.328C129.008 422.492 126.981 417.544 124.898 412.567C124.269 411.058 123.626 409.548 122.983 408.038C122.41 408.486 115.561 413.727 111.689 414.622C108.236 415.419 103.61 415.475 100.744 413.07C100.049 412.527 99.4762 411.843 99.062 411.064C98.6479 410.285 98.4019 409.428 98.34 408.548C98.2781 407.668 98.4016 406.784 98.7025 405.955C99.0035 405.126 99.4752 404.369 100.087 403.733C103.889 400.029 113.297 401.846 117.49 404.055C117.811 404.222 121.879 407.004 122.872 407.759C121.474 404.446 120.076 401.147 118.468 397.974C116.413 393.656 114.078 389.477 111.479 385.464C111.2 385.673 104.085 391.167 100.101 392.089C96.6485 392.886 92.0357 392.942 89.1562 390.538C88.4604 389.994 87.8868 389.31 87.4726 388.531C87.0585 387.751 86.8132 386.893 86.7525 386.012C86.6919 385.132 86.8173 384.248 87.1206 383.419C87.424 382.59 87.8984 381.834 88.5132 381.2C92.3152 377.496 101.723 379.313 105.916 381.522C106.238 381.703 110.613 384.695 111.368 385.296C111.214 385.058 111.088 384.807 110.934 384.569C108.2 380.62 105.122 376.92 101.737 373.512C99.8914 371.597 98.0183 369.878 96.1452 368.256C94.9291 369.417 89.282 374.658 85.8014 375.874C82.3208 377.091 77.8757 377.608 74.7446 375.539C73.995 375.074 73.3513 374.456 72.8553 373.727C72.3594 372.997 72.0221 372.171 71.8653 371.303C71.7085 370.435 71.7357 369.543 71.9452 368.686C72.1546 367.829 72.5416 367.025 73.0812 366.327C76.45 362.232 85.9971 363.001 90.4142 364.748C90.6518 364.832 92.9862 366.146 94.6076 366.998C93.755 366.271 92.9023 365.503 92.0636 364.832C88.9604 362.288 85.9691 360.135 83.2993 358.262C81.7757 357.2 80.3639 356.277 79.1058 355.466C77.3026 355.97 70.0619 357.954 66.5254 357.437C62.9889 356.92 58.6837 355.326 56.8805 352.042C56.4254 351.284 56.1361 350.438 56.0314 349.56C55.9267 348.682 56.0092 347.792 56.2732 346.948C56.5373 346.104 56.9771 345.326 57.5636 344.664C58.1501 344.003 58.8701 343.473 59.6761 343.11C64.5545 341.027 72.6758 346.101 75.793 349.679C76.0586 349.987 79.7069 355.271 79.609 355.271H79.5112C80.7972 356.067 82.167 356.934 83.7047 357.912C86.4164 359.73 89.4637 361.812 92.6367 364.301C96.0584 366.954 99.3254 369.801 102.421 372.827C105.923 376.205 109.118 379.886 111.969 383.828L112.066 383.982C111.577 382.5 110.375 378.391 110.319 377.985C109.522 373.302 110.738 363.811 115.449 361.365C116.242 360.977 117.108 360.761 117.991 360.731C118.873 360.7 119.752 360.856 120.57 361.189C121.388 361.521 122.126 362.023 122.737 362.66C123.348 363.297 123.818 364.056 124.116 364.888C125.513 368.368 124.004 372.743 122.173 375.777C120.09 379.187 112.947 384.066 112.388 384.457C115.188 388.544 117.714 392.812 119.95 397.233C121.264 399.805 122.508 402.433 123.724 405.075C123.347 403.789 123.025 402.629 122.997 402.461C122.201 397.778 123.417 388.287 128.127 385.841C128.921 385.453 129.787 385.237 130.669 385.206C131.551 385.176 132.43 385.332 133.248 385.665C134.066 385.997 134.805 386.498 135.416 387.136C136.027 387.773 136.496 388.532 136.794 389.363C138.192 392.844 136.682 397.219 134.837 400.252C132.992 403.286 126.967 407.605 125.36 408.723C125.807 409.744 126.282 410.75 126.758 411.784C128.924 416.691 131.063 421.569 133.313 426.35C134.11 428.027 134.949 429.649 135.787 431.27C135.452 430.124 135.186 429.145 135.158 428.992C134.362 424.323 135.578 414.818 140.288 412.372C141.083 411.986 141.949 411.772 142.832 411.744C143.714 411.716 144.593 411.873 145.41 412.207C146.228 412.541 146.966 413.043 147.577 413.68C148.187 414.318 148.657 415.077 148.955 415.908C150.353 419.389 148.843 423.75 146.998 426.783C145.153 429.816 139.715 433.772 137.814 435.058C138.709 436.694 139.617 438.329 140.61 439.881C141.281 440.915 141.868 441.963 142.595 442.97C143.322 443.976 143.993 444.983 144.692 445.989C146.089 447.848 147.487 449.777 148.955 451.58C149.933 452.824 150.884 453.999 151.834 455.173C151.024 453.523 149.514 450.239 149.416 449.945C147.934 445.458 147.697 435.883 151.974 432.738C152.702 432.239 153.525 431.898 154.393 431.738C155.26 431.578 156.151 431.601 157.009 431.806C157.866 432.012 158.671 432.395 159.371 432.931C160.072 433.467 160.652 434.144 161.074 434.918C162.975 438.147 162.15 442.704 160.794 445.975C159.299 449.568 153.246 455.285 152.491 455.984C153.819 458.01 155.385 459.897 156.895 461.645Z" fill="#D9D9D9"/>
<path d="M44.8166 430.237C44.8166 430.335 38.9598 427.609 38.6103 427.441C34.5706 424.967 28.2245 417.782 29.4825 412.624C29.7133 411.769 30.1224 410.973 30.683 410.287C31.2436 409.601 31.943 409.042 32.7352 408.646C33.5273 408.25 34.3944 408.026 35.2793 407.989C36.1642 407.952 37.0469 408.102 37.8695 408.431C41.4059 409.675 43.7123 413.687 44.7747 417.055C46.0048 420.983 44.8166 430.237 44.8166 430.237Z" fill="#D9D9D9"/>
</g>
<g opacity="0.15">
<path d="M444.258 356.195C445.39 360.193 451.484 367.252 451.498 367.266C451.512 367.28 454.923 361.829 455.105 361.465C457.104 357.16 458.432 347.683 454.532 344.062C453.867 343.483 453.088 343.051 452.245 342.792C451.402 342.534 450.514 342.455 449.639 342.562C448.764 342.669 447.921 342.958 447.165 343.412C446.409 343.865 445.756 344.473 445.25 345.195C442.986 348.186 443.279 352.785 444.258 356.195Z" fill="#D9D9D9"/>
<path d="M390.582 461.645L390.177 462.12L391.323 465.699L393 463.658C394.622 461.687 396.313 459.548 398.033 457.326C400.38 458.615 402.803 459.763 405.287 460.765C404.742 464.734 406.517 472.297 406.755 473.261C404.351 474.016 402.002 474.729 399.766 475.358C398.242 475.805 396.775 476.21 395.349 476.588L397.599 479.384L400.674 478.447C403.107 477.692 405.707 476.84 408.362 475.931C408.838 476.84 412.752 484.206 415.841 486.596C418.636 488.763 422.83 490.79 426.436 489.769C427.294 489.566 428.1 489.185 428.802 488.651C429.503 488.116 430.084 487.44 430.507 486.666C430.93 485.892 431.186 485.038 431.258 484.159C431.329 483.28 431.215 482.396 430.923 481.564C429.022 476.602 419.741 474.309 414.988 474.575C414.709 474.575 411.703 475.092 409.802 475.442C410.892 475.064 411.941 474.715 413.059 474.309C415.254 473.541 417.434 472.702 419.769 471.807L423.151 470.41C424.284 469.962 425.43 469.347 426.59 468.802C429.246 467.502 431.874 466.006 434.474 464.539C435.159 466.468 437.689 473.261 440.135 475.847C442.581 478.433 446.397 481.005 450.115 480.586C450.994 480.516 451.849 480.263 452.624 479.842C453.399 479.421 454.077 478.841 454.613 478.142C455.149 477.442 455.533 476.637 455.738 475.779C455.943 474.921 455.966 474.03 455.804 473.163C454.672 467.977 445.838 464.301 441.113 463.84C440.82 463.84 437.395 463.84 435.522 463.91C437.074 462.987 438.639 462.079 440.191 461.114C444.678 458.318 449.123 455.257 453.568 452.266C454.966 451.343 456.294 450.449 457.664 449.47C457.901 450.155 460.711 458.304 463.464 461.198C465.897 463.77 469.727 466.356 473.445 465.937C474.324 465.867 475.179 465.614 475.954 465.193C476.728 464.772 477.406 464.192 477.943 463.492C478.479 462.792 478.862 461.988 479.068 461.13C479.273 460.272 479.296 459.381 479.134 458.514C478.002 453.328 469.168 449.652 464.443 449.191C464.094 449.191 459.159 449.191 457.915 449.302C460.92 447.318 463.94 445.361 466.987 443.557C471.094 441.093 475.357 438.899 479.749 436.988C479.861 437.309 482.768 445.836 485.578 448.785C488.024 451.357 491.84 453.957 495.558 453.538C496.439 453.469 497.295 453.215 498.071 452.793C498.847 452.371 499.526 451.791 500.062 451.089C500.599 450.387 500.982 449.581 501.186 448.721C501.39 447.862 501.411 446.969 501.248 446.101C500.129 440.916 491.281 437.239 486.557 436.778C486.193 436.778 480.895 436.778 479.931 436.904C480.182 436.806 480.434 436.666 480.7 436.554C485.153 434.743 489.761 433.339 494.468 432.361C497.054 431.788 499.57 431.382 502.016 431.047C502.394 432.682 504.211 440.175 506.447 443.11C508.684 446.046 512.039 448.939 515.855 448.925C516.735 448.951 517.611 448.792 518.426 448.458C519.241 448.123 519.976 447.622 520.585 446.985C521.194 446.349 521.662 445.592 521.96 444.763C522.257 443.934 522.378 443.052 522.313 442.174C521.768 436.89 513.381 432.263 508.74 431.285C508.488 431.285 505.86 430.977 503.945 430.809C505.064 430.683 506.196 430.516 507.258 430.404C511.256 429.999 514.932 429.859 518.203 429.775C520.062 429.775 521.74 429.775 523.305 429.775C524.521 431.173 529.47 436.834 532.754 438.385C536.039 439.937 540.456 440.944 543.783 439.21C544.578 438.829 545.284 438.284 545.855 437.611C546.425 436.939 546.847 436.154 547.094 435.307C547.341 434.46 547.406 433.571 547.286 432.697C547.166 431.824 546.863 430.985 546.397 430.236C543.49 425.805 533.915 425.567 529.344 426.839C528.938 426.937 522.97 429.37 523.026 429.439L523.096 429.523C521.586 429.523 519.964 429.439 518.203 429.439C514.932 429.439 511.214 429.509 507.216 429.845C502.882 430.154 498.57 430.714 494.3 431.522C489.512 432.408 484.812 433.713 480.252 435.422L480.099 435.492C481.315 434.528 484.627 431.704 484.865 431.466C488.094 428 492.33 419.403 489.744 414.692C489.295 413.933 488.691 413.276 487.972 412.765C487.252 412.254 486.433 411.901 485.568 411.728C484.702 411.555 483.81 411.567 482.95 411.762C482.089 411.957 481.28 412.332 480.574 412.861C477.499 415 476.38 419.473 476.199 423.009C476.045 427.007 479.316 435.017 479.581 435.59C474.985 437.447 470.521 439.614 466.218 442.076C463.716 443.474 461.228 444.997 458.74 446.535C459.774 445.668 460.683 444.871 460.795 444.746C464.038 441.293 468.259 432.696 465.687 428.056C465.238 427.296 464.635 426.639 463.915 426.128C463.196 425.617 462.377 425.264 461.511 425.091C460.646 424.919 459.754 424.93 458.894 425.125C458.033 425.321 457.223 425.695 456.517 426.224C453.442 428.363 452.324 432.836 452.142 436.373C451.96 439.909 454.644 446.856 455.371 448.673L452.575 450.463C448.061 453.356 443.574 456.278 439.073 459.003C437.493 459.954 435.899 460.848 434.306 461.799C435.215 461.016 435.969 460.401 436.081 460.247C439.324 456.781 443.546 448.184 440.974 443.543C440.522 442.785 439.916 442.13 439.195 441.62C438.475 441.11 437.655 440.758 436.789 440.585C435.923 440.413 435.031 440.424 434.17 440.618C433.309 440.812 432.498 441.185 431.79 441.712C428.715 443.851 427.596 448.324 427.415 451.86C427.233 455.397 429.679 461.645 430.532 463.84C428.868 464.706 427.205 465.573 425.556 466.342C424.423 466.831 423.361 467.39 422.201 467.824L418.79 469.221C416.582 470.004 414.331 470.815 412.165 471.528C410.655 472.031 409.215 472.478 407.775 472.926C409.355 471.989 412.43 470.13 412.668 469.892C415.851 467.195 418.286 463.725 419.741 459.814C420.11 459.531 420.452 459.212 420.761 458.864C421.365 458.222 421.828 457.46 422.118 456.628C422.409 455.796 422.521 454.912 422.447 454.034C422.373 453.156 422.115 452.303 421.69 451.531C421.264 450.759 420.681 450.086 419.978 449.554C415.659 446.465 406.643 449.68 402.841 452.503C402.603 452.671 400.381 454.754 398.983 456.082C399.682 455.173 400.381 454.307 401.08 453.356C402.478 451.497 403.875 449.596 405.273 447.569L407.3 444.508C407.999 443.516 408.614 442.355 409.285 441.279C410.781 438.721 412.165 436.065 413.478 433.367C415.114 434.597 420.971 438.875 424.437 439.671C427.904 440.468 432.503 440.524 435.382 438.12C436.078 437.578 436.651 436.895 437.065 436.117C437.479 435.338 437.724 434.481 437.785 433.602C437.846 432.722 437.72 431.84 437.417 431.012C437.114 430.184 436.64 429.429 436.025 428.796C432.223 425.078 422.816 426.895 418.622 429.118C418.371 429.258 415.533 431.187 413.996 432.263C414.792 430.642 415.603 429.006 416.344 427.329C418.511 422.492 420.537 417.544 422.606 412.568C423.235 411.058 423.878 409.548 424.521 408.039C425.108 408.486 431.944 413.728 435.83 414.623C439.282 415.419 443.895 415.475 446.775 413.071C447.47 412.528 448.044 411.844 448.458 411.064C448.872 410.284 449.118 409.426 449.178 408.546C449.239 407.665 449.113 406.781 448.81 405.952C448.507 405.123 448.032 404.367 447.418 403.734C443.615 400.029 434.222 401.846 430.029 404.055C429.707 404.223 425.639 407.004 424.647 407.759C426.045 404.446 427.443 401.148 429.036 397.975C431.097 393.66 433.431 389.481 436.025 385.464C436.291 385.674 443.42 391.167 447.39 392.09C450.842 392.886 455.469 392.942 458.335 390.538C459.03 389.995 459.604 389.311 460.018 388.531C460.432 387.752 460.677 386.893 460.738 386.013C460.799 385.132 460.673 384.248 460.37 383.419C460.067 382.59 459.592 381.834 458.978 381.201C455.189 377.496 445.782 379.314 441.589 381.522C441.253 381.704 436.878 384.695 436.137 385.296C436.277 385.059 436.417 384.807 436.57 384.569C439.305 380.62 442.383 376.92 445.768 373.513C447.613 371.598 449.486 369.878 451.359 368.257C452.575 369.417 458.223 374.659 461.703 375.875C465.184 377.091 469.629 377.608 472.76 375.539C473.51 375.074 474.153 374.457 474.649 373.727C475.145 372.997 475.483 372.172 475.639 371.303C475.796 370.435 475.769 369.544 475.559 368.687C475.35 367.829 474.963 367.026 474.423 366.328C471.055 362.232 461.508 363.001 457.09 364.748C456.853 364.832 454.518 366.146 452.897 366.999C453.736 366.272 454.602 365.503 455.427 364.832C458.53 362.288 461.535 360.136 464.205 358.262C465.729 357.2 467.141 356.278 468.399 355.467C470.188 355.97 477.443 357.955 480.979 357.438C484.516 356.921 488.807 355.327 490.624 352.042C491.075 351.283 491.36 350.437 491.463 349.561C491.565 348.684 491.482 347.795 491.218 346.953C490.954 346.11 490.516 345.333 489.932 344.671C489.348 344.009 488.631 343.477 487.828 343.11C482.936 341.027 474.829 346.101 471.712 349.68C471.446 349.987 467.798 355.271 467.882 355.271H467.993C466.707 356.068 465.338 356.934 463.8 357.913C461.088 359.73 458.027 361.813 454.868 364.301C451.446 366.954 448.179 369.801 445.083 372.828C441.582 376.205 438.387 379.887 435.536 383.829L435.438 383.982C435.913 382.501 437.13 378.391 437.185 377.986C437.968 373.303 436.752 363.812 432.042 361.366C431.249 360.978 430.384 360.762 429.503 360.731C428.621 360.701 427.744 360.857 426.927 361.19C426.11 361.523 425.372 362.024 424.763 362.661C424.153 363.298 423.685 364.057 423.389 364.888C421.991 368.369 423.501 372.744 425.332 375.777C427.401 379.188 434.558 384.066 435.117 384.458C432.312 388.541 429.785 392.81 427.554 397.234C426.241 399.806 424.997 402.434 423.78 405.075C424.158 403.789 424.479 402.629 424.507 402.461C425.304 397.779 424.088 388.288 419.377 385.841C418.584 385.454 417.718 385.237 416.836 385.207C415.953 385.177 415.074 385.333 414.256 385.665C413.439 385.998 412.7 386.499 412.089 387.136C411.478 387.774 411.008 388.533 410.711 389.364C409.313 392.845 410.823 397.22 412.654 400.253C414.485 403.286 420.537 407.605 422.145 408.724C421.684 409.744 421.222 410.751 420.747 411.785C418.58 416.691 416.428 421.57 414.191 426.35C413.395 428.028 412.556 429.649 411.717 431.271C412.053 430.124 412.318 429.146 412.346 428.992C413.143 424.323 411.927 414.818 407.202 412.372C406.409 411.989 405.543 411.777 404.662 411.75C403.781 411.723 402.905 411.881 402.089 412.215C401.273 412.548 400.537 413.049 399.927 413.686C399.317 414.322 398.848 415.079 398.55 415.909C397.152 419.389 398.662 423.75 400.493 426.784C402.324 429.817 407.789 433.773 409.69 435.059C408.782 436.694 407.887 438.33 406.895 439.881C406.21 440.916 405.637 441.964 404.91 442.97L402.799 445.99C401.401 447.849 400.003 449.778 398.606 451.581C397.627 452.825 396.677 453.999 395.726 455.173C396.523 453.524 398.047 450.239 398.13 449.945C399.626 445.458 399.864 435.883 395.586 432.738C394.859 432.24 394.035 431.899 393.168 431.738C392.301 431.578 391.41 431.601 390.552 431.807C389.694 432.012 388.889 432.396 388.189 432.932C387.489 433.468 386.909 434.145 386.487 434.919C384.585 438.148 385.41 442.705 386.766 445.976C388.248 449.568 394.314 455.285 395.069 455.984C393.657 458.011 392.092 459.898 390.582 461.645Z" fill="#D9D9D9"/>
<path d="M502.66 430.237C502.66 430.335 508.517 427.609 508.867 427.442C512.906 424.968 519.253 417.783 517.994 412.625C517.764 411.77 517.355 410.973 516.794 410.288C516.233 409.602 515.534 409.043 514.742 408.646C513.95 408.25 513.083 408.026 512.198 407.989C511.313 407.952 510.43 408.103 509.608 408.431C506.071 409.675 503.765 413.687 502.702 417.056C501.472 420.984 502.66 430.237 502.66 430.237Z" fill="#D9D9D9"/>
</g>
<path d="M381.902 381.004L289.297 342.186L367.421 154.487L460.027 193.304L381.902 381.004Z" fill="#D9D9D9" stroke="#727272" stroke-width="1.39782" stroke-linecap="round" stroke-linejoin="round"/>
<path d="M441.434 212.469C439.845 211.811 438.414 210.82 437.239 209.564C436.064 208.308 435.171 206.815 434.62 205.185C434.07 203.556 433.874 201.827 434.046 200.115C434.218 198.404 434.755 196.749 435.619 195.262L382.502 172.98C382.365 173.455 382.202 173.922 382.013 174.378C381.401 175.855 380.503 177.195 379.371 178.323C378.239 179.451 376.895 180.343 375.416 180.949C373.937 181.554 372.353 181.861 370.755 181.851C369.157 181.842 367.577 181.516 366.105 180.892C365.868 180.794 365.644 180.668 365.42 180.557L306.488 322.491C306.726 322.575 306.964 322.645 307.187 322.743C308.785 323.391 310.223 324.377 311.405 325.632C312.587 326.887 313.483 328.383 314.034 330.016C314.585 331.65 314.776 333.383 314.596 335.097C314.415 336.812 313.867 338.467 312.988 339.95L366.175 362.231C366.303 361.756 366.462 361.289 366.65 360.834C367.266 359.366 368.165 358.034 369.296 356.914C370.426 355.793 371.767 354.907 373.24 354.305C374.713 353.702 376.29 353.396 377.882 353.404C379.474 353.411 381.048 353.732 382.516 354.348C382.977 354.543 383.424 354.781 383.914 355.019L442.902 212.972C442.4 212.842 441.909 212.674 441.434 212.469ZM366.105 286.19C362.485 284.672 359.397 282.114 357.231 278.841C355.064 275.568 353.917 271.726 353.933 267.801C353.95 263.875 355.131 260.043 357.325 256.789C359.52 253.534 362.63 251.003 366.263 249.516C369.895 248.029 373.887 247.652 377.734 248.434C381.581 249.215 385.109 251.12 387.874 253.907C390.638 256.693 392.514 260.237 393.265 264.09C394.016 267.943 393.607 271.932 392.091 275.553C391.085 277.959 389.615 280.143 387.764 281.981C385.913 283.818 383.718 285.272 381.304 286.26C378.891 287.249 376.306 287.751 373.698 287.739C371.09 287.727 368.51 287.2 366.105 286.19Z" fill="#D9D9D9" stroke="#727272" stroke-width="1.39782" stroke-linecap="round" stroke-linejoin="round"/>
<path d="M380.687 381.481L292.82 332.865L390.808 154.727L478.661 203.329L380.687 381.481Z" fill="#D9D9D9" stroke="#727272" stroke-width="1.39782" stroke-linecap="round" stroke-linejoin="round"/>
<path d="M458.113 220.363C456.72 219.594 455.492 218.558 454.499 217.314C453.507 216.07 452.769 214.642 452.329 213.113C451.889 211.583 451.755 209.982 451.934 208.401C452.113 206.82 452.603 205.289 453.374 203.897C453.628 203.464 453.903 203.044 454.199 202.639L403.738 174.683C403.555 175.16 403.345 175.627 403.109 176.08C401.551 178.889 398.941 180.965 395.853 181.851C392.766 182.737 389.453 182.361 386.642 180.805C386.42 180.688 386.205 180.557 385.999 180.414L312.055 315.136C312.284 315.231 312.508 315.339 312.726 315.457C315.537 317.013 317.615 319.621 318.504 322.709C319.393 325.797 319.019 329.111 317.464 331.923C317.217 332.36 316.942 332.781 316.64 333.181L367.087 361.138C367.274 360.66 367.489 360.193 367.73 359.74C368.499 358.347 369.535 357.119 370.779 356.126C372.023 355.134 373.451 354.396 374.98 353.956C376.51 353.516 378.111 353.382 379.692 353.561C381.274 353.741 382.804 354.23 384.196 355.001C384.631 355.252 385.051 355.527 385.454 355.826L459.539 220.992C459.049 220.817 458.573 220.607 458.113 220.363ZM375.278 285.516C371.84 283.614 369.044 280.735 367.242 277.244C365.44 273.752 364.715 269.805 365.157 265.901C365.598 261.997 367.188 258.312 369.725 255.311C372.261 252.311 375.631 250.13 379.407 249.045C383.183 247.96 387.196 248.019 390.938 249.214C394.681 250.41 397.985 252.689 400.432 255.762C402.879 258.836 404.36 262.566 404.688 266.481C405.015 270.396 404.173 274.321 402.27 277.758C399.719 282.365 395.442 285.771 390.38 287.225C385.319 288.68 379.886 288.065 375.278 285.516Z" fill="#D9D9D9" stroke="#727272" stroke-width="1.39782" stroke-linecap="round" stroke-linejoin="round"/>
<path d="M379.064 381.888L298.773 321.586L420.468 158.726L500.758 219.028L379.064 381.888Z" fill="#D9D9D9" stroke="#727272" stroke-width="1.39782" stroke-linecap="round" stroke-linejoin="round"/>
<path d="M478.042 233.046C476.761 232.091 475.682 230.893 474.867 229.519C474.052 228.146 473.516 226.625 473.291 225.044C473.067 223.462 473.157 221.852 473.557 220.306C473.958 218.76 474.66 217.308 475.624 216.034C475.929 215.635 476.26 215.257 476.616 214.902L430.488 180.264C430.236 180.703 429.961 181.127 429.664 181.536C427.732 184.101 424.862 185.795 421.683 186.246C418.504 186.697 415.276 185.867 412.708 183.94C412.498 183.787 412.317 183.619 412.121 183.465L320.242 306.641C320.452 306.781 320.662 306.907 320.857 307.06C323.425 308.992 325.122 311.864 325.576 315.045C326.029 318.227 325.202 321.458 323.275 324.03C322.971 324.43 322.639 324.808 322.283 325.162L368.411 359.786C368.65 359.347 368.921 358.927 369.222 358.528C370.178 357.256 371.376 356.185 372.746 355.376C374.116 354.566 375.633 354.035 377.209 353.812C378.784 353.588 380.389 353.678 381.93 354.074C383.471 354.471 384.919 355.168 386.191 356.124C386.591 356.423 386.969 356.75 387.324 357.102L479.328 233.871C478.883 233.623 478.453 233.347 478.042 233.046ZM386.988 286.163C383.848 283.803 381.477 280.566 380.177 276.859C378.876 273.152 378.704 269.143 379.681 265.339C380.659 261.534 382.743 258.105 385.669 255.485C388.596 252.864 392.234 251.171 396.123 250.618C400.012 250.064 403.977 250.677 407.518 252.378C411.059 254.078 414.017 256.79 416.016 260.172C418.016 263.553 418.968 267.451 418.752 271.373C418.537 275.295 417.163 279.066 414.805 282.207C413.235 284.291 411.271 286.045 409.023 287.369C406.775 288.693 404.288 289.561 401.705 289.923C399.121 290.286 396.492 290.135 393.967 289.48C391.441 288.825 389.07 287.679 386.988 286.107V286.163Z" fill="#D9D9D9" stroke="#727272" stroke-width="1.39782" stroke-linecap="round" stroke-linejoin="round"/>
<path d="M377.458 382.069L305.945 311.577L448.327 166.441L519.826 236.933L377.458 382.069Z" fill="#D9D9D9" stroke="#727272" stroke-width="1.39782" stroke-linecap="round" stroke-linejoin="round"/>
<path d="M495.449 247.804C493.16 245.548 491.861 242.475 491.837 239.261C491.814 236.047 493.067 232.956 495.323 230.666C495.68 230.313 496.058 229.982 496.455 229.674L455.401 189.137C455.094 189.531 454.768 189.909 454.423 190.269C452.167 192.558 449.094 193.858 445.88 193.881C442.667 193.905 439.575 192.651 437.286 190.395C437.107 190.219 436.939 190.032 436.782 189.836L329.248 299.635C329.43 299.803 329.625 299.956 329.807 300.138C332.096 302.394 333.395 305.467 333.419 308.681C333.443 311.895 332.189 314.986 329.933 317.275C329.57 317.625 329.192 317.96 328.801 318.268L369.855 358.805C370.159 358.4 370.49 358.017 370.847 357.658C371.963 356.525 373.291 355.623 374.756 355.004C376.22 354.384 377.793 354.06 379.383 354.048C380.973 354.036 382.55 354.338 384.023 354.936C385.497 355.534 386.838 356.416 387.971 357.533C388.324 357.89 388.655 358.268 388.963 358.665L496.595 248.782C496.194 248.479 495.811 248.152 495.449 247.804ZM398.133 288.201C395.339 285.444 393.426 281.92 392.635 278.076C391.843 274.231 392.209 270.238 393.687 266.602C395.165 262.966 397.687 259.849 400.935 257.646C404.184 255.443 408.013 254.253 411.938 254.225C415.863 254.198 419.708 255.335 422.986 257.492C426.265 259.65 428.831 262.731 430.359 266.346C431.887 269.962 432.309 273.949 431.571 277.804C430.834 281.659 428.97 285.209 426.215 288.005C424.384 289.863 422.206 291.342 419.803 292.357C417.401 293.372 414.822 293.904 412.214 293.922C409.606 293.941 407.02 293.445 404.604 292.463C402.188 291.481 399.989 290.033 398.133 288.201Z" fill="#D9D9D9" stroke="#727272" stroke-width="1.39782" stroke-linecap="round" stroke-linejoin="round"/>
<path d="M286.528 366.353L157.928 448.07L21.1797 232.079L149.779 150.362C152.028 148.934 154.752 148.458 157.352 149.037C159.952 149.616 162.216 151.204 163.646 153.451L289.673 352.487C290.378 353.604 290.855 354.849 291.078 356.15C291.301 357.451 291.266 358.784 290.974 360.072C290.682 361.36 290.139 362.577 289.376 363.655C288.613 364.733 287.645 365.65 286.528 366.353Z" fill="#D9D9D9" stroke="#727272" stroke-width="1.39782" stroke-linecap="round" stroke-linejoin="round"/>
<path d="M282.908 366.495L154.309 448.212L17.5742 232.22L146.174 150.504C148.423 149.076 151.146 148.599 153.746 149.179C156.346 149.758 158.61 151.346 160.04 153.593L286.054 352.629C286.758 353.745 287.236 354.99 287.459 356.292C287.682 357.593 287.646 358.926 287.354 360.213C287.062 361.501 286.519 362.719 285.756 363.797C284.994 364.874 284.026 365.791 282.908 366.495Z" fill="#D9D9D9" stroke="#727272" stroke-width="1.39782" stroke-linecap="round" stroke-linejoin="round"/>
<path d="M278.715 369.349L150.116 451.065L13.3672 235.074L141.967 153.357C144.218 151.929 146.943 151.452 149.546 152.031C152.148 152.61 154.414 154.198 155.847 156.446L281.861 355.482C282.565 356.599 283.042 357.844 283.266 359.145C283.489 360.447 283.453 361.779 283.161 363.067C282.869 364.355 282.326 365.572 281.563 366.65C280.801 367.728 279.833 368.645 278.715 369.349Z" fill="#D9D9D9" stroke="#727272" stroke-width="1.39782" stroke-linecap="round" stroke-linejoin="round"/>
<path d="M82.0857 261.923L72.2031 246.379L76.0611 243.989C76.8164 243.461 77.7002 243.147 78.6191 243.08C79.3955 243.06 80.1552 243.307 80.7718 243.779C81.521 244.34 82.1527 245.043 82.6309 245.848C83.1213 246.567 83.4372 247.39 83.5534 248.252C83.6581 249.011 83.5212 249.784 83.162 250.461C82.7371 251.218 82.12 251.85 81.3728 252.292L79.6535 253.368L84.2523 260.609L82.0857 261.923ZM78.675 251.747L79.6675 251.118C80.1986 250.823 80.6722 250.435 81.0653 249.971C81.1995 249.799 81.2962 249.601 81.3492 249.389C81.4021 249.177 81.4102 248.957 81.3728 248.741C81.2447 248.152 80.9973 247.596 80.646 247.106C80.3019 246.519 79.8838 245.979 79.4019 245.498C79.2464 245.343 79.0565 245.227 78.8476 245.159C78.6388 245.091 78.4168 245.073 78.1998 245.107C77.5671 245.257 76.9691 245.528 76.4385 245.904L75.4181 246.547L78.675 251.747Z" fill="#D9D9D9"/>
<path d="M89.7322 257.058L83.1484 239.417L85.2452 238.089L98.4406 251.522L96.3858 252.822L93.1848 249.37L90.0257 251.383L91.759 255.772L89.7322 257.058ZM89.3408 249.579L91.9267 247.944L86.1677 241.766L89.3408 249.579Z" fill="#D9D9D9"/>
<path d="M103.791 248.362C103.026 248.892 102.122 249.188 101.191 249.214C100.344 249.204 99.5185 248.946 98.8152 248.474C98.0182 247.932 97.3266 247.25 96.7744 246.461L98.3679 244.727C98.7521 245.228 99.1776 245.696 99.6399 246.125C100.035 246.509 100.513 246.796 101.038 246.964C101.312 247.022 101.596 247.022 101.87 246.965C102.144 246.907 102.404 246.792 102.631 246.629C102.876 246.496 103.091 246.313 103.259 246.091C103.428 245.869 103.548 245.614 103.61 245.343C103.675 244.767 103.521 244.187 103.176 243.721C102.823 243.101 102.279 242.611 101.625 242.323C100.963 242.085 100.279 241.912 99.584 241.806L95.5163 241.163C94.7815 241.059 94.0767 240.802 93.4476 240.408C92.7943 239.952 92.2462 239.361 91.8401 238.675C91.503 238.208 91.2657 237.676 91.1431 237.114C91.0204 236.551 91.015 235.969 91.1272 235.404C91.4424 234.286 92.1857 233.336 93.1959 232.762C93.7404 232.405 94.3403 232.141 94.9712 231.979C95.5083 231.847 96.0695 231.847 96.6066 231.979C97.1696 232.137 97.6966 232.403 98.1582 232.762C98.7193 233.214 99.2259 233.73 99.6679 234.3L98.1442 235.977C97.8067 235.519 97.4277 235.093 97.012 234.705C96.6641 234.373 96.2269 234.15 95.754 234.062C95.2215 234.028 94.6922 234.167 94.246 234.459C93.7997 234.752 93.4606 235.182 93.2798 235.684C93.2261 235.955 93.2307 236.235 93.2934 236.505C93.3561 236.775 93.4753 237.029 93.6432 237.249C93.8832 237.659 94.219 238.004 94.6217 238.256C95.0538 238.495 95.5287 238.647 96.0195 238.703L100.115 239.346C101.084 239.481 102.027 239.764 102.911 240.185C103.855 240.651 104.646 241.379 105.189 242.281C105.638 242.968 105.907 243.756 105.972 244.574C106.005 245.311 105.831 246.042 105.469 246.684C105.054 247.372 104.479 247.947 103.791 248.362Z" fill="#D9D9D9"/>
<path d="M112.862 242.59C112.096 243.12 111.193 243.416 110.262 243.442C109.419 243.433 108.597 243.175 107.9 242.702C107.097 242.168 106.404 241.484 105.859 240.689L107.509 238.955C107.889 239.459 108.315 239.927 108.781 240.353C109.174 240.738 109.653 241.026 110.178 241.192C110.453 241.251 110.736 241.252 111.011 241.194C111.285 241.136 111.545 241.021 111.772 240.856C112.018 240.729 112.234 240.549 112.403 240.33C112.572 240.11 112.691 239.855 112.75 239.584C112.824 239.006 112.674 238.421 112.331 237.949C111.968 237.331 111.421 236.842 110.765 236.551C110.108 236.313 109.429 236.14 108.739 236.034L104.657 235.391C103.922 235.287 103.217 235.03 102.588 234.636C101.935 234.18 101.387 233.589 100.981 232.903C100.644 232.436 100.406 231.904 100.284 231.342C100.161 230.779 100.156 230.197 100.268 229.632C100.59 228.516 101.338 227.572 102.351 227.004C102.891 226.646 103.486 226.377 104.112 226.207C104.653 226.068 105.22 226.068 105.761 226.207C106.324 226.36 106.851 226.621 107.313 226.976C107.873 227.425 108.375 227.942 108.808 228.514L107.285 230.191C106.947 229.733 106.568 229.307 106.153 228.919C105.808 228.582 105.369 228.358 104.895 228.276C104.363 228.248 103.837 228.39 103.392 228.682C102.947 228.974 102.607 229.399 102.42 229.898C102.37 230.169 102.377 230.449 102.439 230.718C102.502 230.988 102.619 231.241 102.784 231.463C103.028 231.873 103.363 232.222 103.762 232.484C104.201 232.706 104.673 232.857 105.16 232.931L109.256 233.56C110.195 233.708 111.108 233.991 111.968 234.399C112.909 234.869 113.699 235.596 114.246 236.495C114.701 237.179 114.971 237.969 115.029 238.788C115.062 239.524 114.887 240.256 114.526 240.898C114.121 241.592 113.549 242.174 112.862 242.59Z" fill="#D9D9D9"/>
<path d="M118.164 238.98L108.281 223.437L112.139 220.99C112.891 220.453 113.776 220.134 114.697 220.068C115.473 220.055 116.23 220.301 116.85 220.767C117.599 221.333 118.231 222.041 118.709 222.85C119.205 223.565 119.522 224.39 119.632 225.254C119.736 226.008 119.599 226.777 119.24 227.448C118.819 228.208 118.201 228.841 117.451 229.28L115.732 230.37L120.33 237.597L118.164 238.98ZM114.753 228.818L115.746 228.175C116.28 227.885 116.754 227.496 117.143 227.029C117.276 226.856 117.371 226.657 117.421 226.445C117.472 226.233 117.477 226.013 117.437 225.799C117.309 225.212 117.067 224.657 116.724 224.164C116.384 223.578 115.966 223.042 115.48 222.57C115.324 222.415 115.135 222.299 114.926 222.231C114.717 222.163 114.495 222.145 114.278 222.179C113.643 222.316 113.044 222.583 112.517 222.961L111.496 223.618L114.753 228.818Z" fill="#D9D9D9"/>
<path d="M131.453 230.782C130.603 231.379 129.598 231.719 128.56 231.76C127.662 231.749 126.795 231.433 126.1 230.866C125.265 230.178 124.552 229.356 123.989 228.433L120.243 222.549C119.65 221.664 119.223 220.679 118.985 219.641C118.78 218.792 118.874 217.899 119.25 217.111C119.739 216.199 120.476 215.443 121.375 214.93C122.221 214.332 123.22 213.988 124.255 213.938C125.127 213.941 125.974 214.236 126.659 214.777C127.49 215.432 128.196 216.232 128.742 217.139L132.502 223.052C133.087 223.942 133.517 224.925 133.774 225.959C133.981 226.832 133.902 227.748 133.55 228.573C133.084 229.5 132.354 230.268 131.453 230.782ZM130.377 229.076C130.857 228.81 131.235 228.392 131.453 227.888C131.609 227.435 131.609 226.943 131.453 226.49C131.251 225.927 130.978 225.392 130.643 224.897L126.323 218.076C126.008 217.57 125.637 217.102 125.219 216.678C124.898 216.35 124.473 216.142 124.017 216.091C123.468 216.09 122.934 216.266 122.493 216.594C122.016 216.859 121.63 217.264 121.389 217.754C121.218 218.204 121.218 218.702 121.389 219.152C121.584 219.709 121.847 220.239 122.172 220.731L126.505 227.539C126.818 228.049 127.194 228.519 127.623 228.937C127.949 229.279 128.384 229.496 128.853 229.552C129.399 229.561 129.933 229.394 130.377 229.076Z" fill="#D9D9D9"/>
<path d="M137.719 226.561L127.836 211.017L130.967 209.019C131.814 208.441 132.763 208.028 133.763 207.802C134.564 207.643 135.396 207.772 136.111 208.166C136.941 208.682 137.628 209.398 138.11 210.249C138.472 210.794 138.759 211.387 138.963 212.01C139.15 212.533 139.213 213.093 139.144 213.645C139.06 214.161 138.838 214.644 138.501 215.043L145.658 221.431L143.575 222.759L136.908 216.762L135.216 217.825L139.843 225.121L137.719 226.561ZM134.266 216.329L135.091 215.812C135.628 215.508 136.102 215.105 136.488 214.624C136.764 214.245 136.884 213.775 136.824 213.31C136.714 212.687 136.471 212.096 136.111 211.577C135.726 210.849 135.112 210.269 134.364 209.927C133.946 209.86 133.518 209.884 133.111 209.997C132.703 210.111 132.325 210.311 132.001 210.584L131.037 211.185L134.266 216.329Z" fill="#D9D9D9"/>
<path d="M149.444 219.136L140.581 205.157L137.954 206.835L136.863 205.269L144.216 200.586L145.236 202.208L142.678 203.829L151.54 217.808L149.444 219.136Z" fill="#D9D9D9"/>
<path d="M205.111 315.835C211.223 289.634 194.937 263.44 168.736 257.328C142.536 251.217 116.342 267.502 110.23 293.703C104.118 319.904 120.404 346.098 146.605 352.209C172.805 358.321 198.999 342.036 205.111 315.835Z" stroke="#D9D9D9" stroke-width="1.39782" stroke-miterlimit="10"/>
<path d="M183.773 345.907C193.507 339.72 189.699 316.298 175.267 293.592C160.835 270.886 141.245 257.495 131.511 263.682C121.778 269.869 125.586 293.291 140.018 315.997C154.449 338.702 174.04 352.094 183.773 345.907Z" stroke="#D9D9D9" stroke-width="1.39782" stroke-miterlimit="10"/>
<path d="M114.109 283.587L157.232 256.162" stroke="#D9D9D9" stroke-width="1.39782" stroke-miterlimit="10"/>
<path d="M109.242 311.36L184.445 263.569" stroke="#D9D9D9" stroke-width="1.39782" stroke-miterlimit="10"/>
<path d="M131.117 345.774L206.32 297.969" stroke="#D9D9D9" stroke-width="1.39782" stroke-miterlimit="10"/>
<path d="M116.457 330.959L199.124 278.401" stroke="#D9D9D9" stroke-width="1.39782" stroke-miterlimit="10"/>
<path d="M158.738 353.803L201.861 326.392" stroke="#D9D9D9" stroke-width="1.39782" stroke-miterlimit="10"/>
<path d="M384.688 572.776C445.652 511.811 445.652 412.969 384.688 352.005C323.723 291.041 224.881 291.041 163.917 352.005C102.953 412.969 102.952 511.811 163.917 572.776C224.881 633.74 323.723 633.74 384.688 572.776Z" fill="#D9D9D9" stroke="#727272" stroke-width="1.39782" stroke-linecap="round" stroke-linejoin="round"/>
<path d="M242.949 606.826C251.318 608.647 259.831 609.733 268.39 610.069" stroke="#D9D9D9" stroke-width="1.39782" stroke-linecap="round" stroke-linejoin="round"/>
<path d="M223.812 601.271C228.053 602.808 232.358 604.159 236.728 605.324" stroke="#D9D9D9" stroke-width="1.39782" stroke-linecap="round" stroke-linejoin="round"/>
<path d="M132.155 421.962C122.223 456.95 125.535 494.372 141.459 527.071C157.383 559.77 184.801 585.452 218.471 599.206" stroke="#D9D9D9" stroke-width="1.39782" stroke-linecap="round" stroke-linejoin="round"/>
<path d="M152.018 379.455C146.679 387.324 142.11 395.689 138.375 404.434" stroke="#D9D9D9" stroke-width="1.39782" stroke-linecap="round" stroke-linejoin="round"/>
<path d="M253.139 393.057L269.06 396.356L274.483 401.975L281.556 403.065L283.807 409.775L282.157 414.318L277.335 416.527L265.523 414.598L265.202 413.158L270.779 409.258L266.921 402.143L256.354 400.689L250.734 395.867L253.139 393.057Z" fill="#D9D9D9"/>
<path d="M381.4 539.907L368.82 537.782L353.528 535.853L342.345 538.341L331.372 538.495L320.371 543.597L313.941 545.414L309.957 546.295L303.332 552.32L296.734 556.821L285.552 552.837L285.831 542.143L279.122 540.983L271.895 542.591L270.078 539.571L269.365 532.904L266.024 529.857L261.118 531.702L260.475 535.644L254.408 537.363L247.531 532.065L243.435 523.86L246.622 512.524L257.26 510.916L260.726 512.817L265.06 511.853L269.77 507.394L274.788 507.785L283.79 517.57L286.236 516.647L283.664 508.484L280.533 504.626L279.737 497.637L291.828 488.887L290.668 475.104L295.406 469.107L298.202 459.742L301.668 458.218L308.769 450.95L308.49 447.972L302.787 449.622L301.067 446.966L297.084 447.847L291.255 450.642L293.1 445.289L304.953 438.859L307.134 434.973L313.955 441.794L317.939 444.338L322.678 441.766L319.463 437.573L310.67 433.826L299.823 425.999L289.41 421.805L280.408 422.294L275.25 418.898L269.099 418.716L268.694 420.323L270.301 430.975L272.552 434.26L271.867 446.561L263.34 442.367V437.055L254.953 435.126L250.76 431.869L250.55 422.434L259.356 412.51L258.154 403.661L254.254 404.905L250.997 402.222L248.691 397.078L246.077 397.273L245.895 403.34L242.079 404.947L237.508 392.73L234.224 391.57L228.632 390.522L223.488 394.715L232.253 399.985L235.048 405.814L219.854 398.937L208.671 391.179L205.778 381.576L195.728 380.765L189.549 387.069C188.028 388.522 186.433 389.893 184.769 391.179C182.058 392.502 179.255 393.628 176.382 394.548L176.298 401.02L168.051 403.228L169.658 407.044L183.525 406.247L192.079 412.314L194.875 424.978L193.379 437.069L196.748 448.839L190.556 468.814L194.26 495.694L200.886 510.161L208.154 520.701L213.746 520.212L210.642 514.83L206.798 511.126L203.22 503.578L206.309 502.18L214.263 514.075L220.455 524.852L222.538 534.26L231.26 541.053L245.644 547.315L265.577 548.196L272.566 552.39L278.157 557.212L285.552 559.742L293.938 560.147L301.808 558.009C301.808 558.009 302.256 561.713 302.647 563.516C303.038 565.319 299.348 572.602 299.348 572.602L296.986 580.723L301.64 588.034L310.321 589.516L324.103 598.601L329.695 599.65L330.897 605.073L332.085 607.464C359.217 596.673 382.761 578.458 400.019 554.906L399.628 552.236L405.457 532.345L400.033 530.136L381.4 539.907Z" fill="#D9D9D9"/>
<path d="M387.286 388.693L381.778 382.71L374.943 375.875L371.099 365.349L377.85 364.986L377.403 361.295L372.623 361.98L376.201 359.283L379.975 355.788L379.178 352.168L373.587 347.345L370.931 339.769C344.2 318.718 311.324 306.972 277.305 306.319C243.286 305.665 209.984 316.14 182.463 336.149L192.108 340.202L188.502 347.848L181.946 350.812L183.344 360.736L180.702 362.47L177.906 367.25L179.709 373.68L186.028 373.037L184.853 379.747L191.004 378.349L198.524 362.637L198.328 356.599L208.295 353.635L209.86 348.729L220.106 345.318L219.827 338.93L227.333 336.876C227.333 336.876 232.128 332.78 233.204 332.542C235.397 332.523 237.588 332.668 239.76 332.976L246.148 336.121L253.738 334.429L259.329 329.006L267.8 327.888C269.17 328.416 270.646 328.608 272.105 328.447C273.909 328.041 278.773 324.253 278.773 324.253L290.71 328.447L295.77 330.739L296.973 336.163L302.564 335.673L303.654 332.025L308.84 333.143L309.12 336.121L298.902 341.432L306.827 348.016L321.448 352.363L328.438 358.388L336.559 357.34L337.565 353.328L340.291 351.93L329.29 346.786L323.335 347.345L327.711 344.857L322.008 339.671L328.074 337.952L337.006 340.524L340.738 348.799L345.757 352.615L351.348 362.4L360.587 366.411L363.229 378.349L372.762 381.927L373.28 385.981V390.929L376.9 396.954L378.298 400.057L384.686 399.777L386.223 392.984L387.286 388.693Z" fill="#D9D9D9"/>
<path d="M383.888 351.214L384.349 353.297L383.832 359.475L386.041 364.297L390.346 364.871L391.869 371.734L387.131 370.895L390.374 390.66L387.802 399.592L392.946 409.07L398.607 412.369L402.954 431.938L411.02 446.084L418.652 456.54L427.458 456.861L428.744 448.977L429.722 447.803C429.109 441.312 428.096 434.866 426.689 428.499C420.2 399.139 405.332 372.292 383.888 351.214Z" fill="#D9D9D9"/>
<path d="M299.838 367.501L273.643 362.315L263.229 365.013L262.223 372.436L256.841 368.703L249.293 372.282L251.208 384.373L258.77 387.63L261.943 379.718L268.583 383.94L281.96 391.208L286.461 401.217L298.51 411.057L313.131 405.159L311.566 399.819L306.953 394.381L303.011 380.082L305.262 373.135L299.838 367.501Z" fill="#D9D9D9"/>
<path d="M321.143 371.121L315.398 370.883L311.582 375.901L316.432 385.826L321.143 384.778V371.121Z" fill="#D9D9D9"/>
<path d="M356.297 370.52L342.557 366.746L339.062 362.972L336.406 364.692L340.544 371.359L344.807 380.291L350.72 381.256L351.475 379.564L347.016 374.868L357.22 376.391L356.297 370.52Z" fill="#D9D9D9"/>
<path d="M279.681 524.545L278.562 526.306L290.136 527.159L295.602 531.254L302.633 530.458L304.282 525.915L295.644 526.306L279.681 524.545Z" fill="#D9D9D9"/>
<path d="M313.396 524.266L306.281 528.124L308.015 530.779L317.422 528.683L318.582 525.398L315.409 526.474L313.396 524.266Z" fill="#D9D9D9"/>
<path d="M253.139 393.057L269.06 396.356L274.483 401.975L281.556 403.065L283.807 409.775L282.157 414.318L277.335 416.527L265.523 414.598L265.202 413.158L270.779 409.258L266.921 402.143L256.354 400.689L250.734 395.867L253.139 393.057Z" stroke="#D9D9D9" stroke-width="1.39782" stroke-linecap="round" stroke-linejoin="round"/>
<path d="M381.4 539.907L368.82 537.782L353.528 535.853L342.345 538.341L331.372 538.495L320.371 543.597L313.941 545.414L309.957 546.295L303.332 552.32L296.734 556.821L285.552 552.837L285.831 542.143L279.122 540.983L271.895 542.591L270.078 539.571L269.365 532.904L266.024 529.857L261.118 531.702L260.475 535.644L254.408 537.363L247.531 532.065L243.435 523.86L246.622 512.524L257.26 510.916L260.726 512.817L265.06 511.853L269.77 507.394L274.788 507.785L283.79 517.57L286.236 516.647L283.664 508.484L280.533 504.626L279.737 497.637L291.828 488.887L290.668 475.104L295.406 469.107L298.202 459.742L301.668 458.218L308.769 450.95L308.49 447.972L302.787 449.622L301.067 446.966L297.084 447.847L291.255 450.642L293.1 445.289L304.953 438.859L307.134 434.973L313.955 441.794L317.939 444.338L322.678 441.766L319.463 437.573L310.67 433.826L299.823 425.999L289.41 421.805L280.408 422.294L275.25 418.898L269.099 418.716L268.694 420.323L270.301 430.975L272.552 434.26L271.867 446.561L263.34 442.367V437.055L254.953 435.126L250.76 431.869L250.55 422.434L259.356 412.51L258.154 403.661L254.254 404.905L250.997 402.222L248.691 397.078L246.077 397.273L245.895 403.34L242.079 404.947L237.508 392.73L234.224 391.57L228.632 390.522L223.488 394.715L232.253 399.985L235.048 405.814L219.854 398.937L208.671 391.179L205.778 381.576L195.728 380.765L189.549 387.069C188.028 388.522 186.433 389.893 184.769 391.179C182.058 392.502 179.255 393.628 176.382 394.548L176.298 401.02L168.051 403.228L169.658 407.044L183.525 406.247L192.079 412.314L194.875 424.978L193.379 437.069L196.748 448.839L190.556 468.814L194.26 495.694L200.886 510.161L208.154 520.701L213.746 520.212L210.642 514.83L206.798 511.126L203.22 503.578L206.309 502.18L214.263 514.075L220.455 524.852L222.538 534.26L231.26 541.053L245.644 547.315L265.577 548.196L272.566 552.39L278.157 557.212L285.552 559.742L293.938 560.147L301.808 558.009C301.808 558.009 302.256 561.713 302.647 563.516C303.038 565.319 299.348 572.602 299.348 572.602L296.986 580.723L301.64 588.034L310.321 589.516L324.103 598.601L329.695 599.65L330.897 605.073L332.085 607.464C359.217 596.673 382.761 578.458 400.019 554.906L399.628 552.236L405.457 532.345L400.033 530.136L381.4 539.907Z" stroke="#D9D9D9" stroke-width="1.39782" stroke-linecap="round" stroke-linejoin="round"/>
<path d="M387.286 388.693L381.778 382.71L374.943 375.875L371.099 365.349L377.85 364.986L377.403 361.295L372.623 361.98L376.201 359.283L379.975 355.788L379.178 352.168L373.587 347.345L370.931 339.769C344.2 318.718 311.324 306.972 277.305 306.319C243.286 305.665 209.984 316.14 182.463 336.149L192.108 340.202L188.502 347.848L181.946 350.812L183.344 360.736L180.702 362.47L177.906 367.25L179.709 373.68L186.028 373.037L184.853 379.747L191.004 378.349L198.524 362.637L198.328 356.599L208.295 353.635L209.86 348.729L220.106 345.318L219.827 338.93L227.333 336.876C227.333 336.876 232.128 332.78 233.204 332.542C235.397 332.523 237.588 332.668 239.76 332.976L246.148 336.121L253.738 334.429L259.329 329.006L267.8 327.888C269.17 328.416 270.646 328.608 272.105 328.447C273.909 328.041 278.773 324.253 278.773 324.253L290.71 328.447L295.77 330.739L296.973 336.163L302.564 335.673L303.654 332.025L308.84 333.143L309.12 336.121L298.902 341.432L306.827 348.016L321.448 352.363L328.438 358.388L336.559 357.34L337.565 353.328L340.291 351.93L329.29 346.786L323.335 347.345L327.711 344.857L322.008 339.671L328.074 337.952L337.006 340.524L340.738 348.799L345.757 352.615L351.348 362.4L360.587 366.411L363.229 378.349L372.762 381.927L373.28 385.981V390.929L376.9 396.954L378.298 400.057L384.686 399.777L386.223 392.984L387.286 388.693Z" stroke="#D9D9D9" stroke-width="1.39782" stroke-linecap="round" stroke-linejoin="round"/>
<path d="M383.888 351.214L384.349 353.297L383.832 359.475L386.041 364.297L390.346 364.871L391.869 371.734L387.131 370.895L390.374 390.66L387.802 399.592L392.946 409.07L398.607 412.369L402.954 431.938L411.02 446.084L418.652 456.54L427.458 456.861L428.744 448.977L429.723 447.803C429.109 441.312 428.096 434.866 426.689 428.499C420.2 399.139 405.332 372.292 383.888 351.214Z" stroke="#D9D9D9" stroke-width="1.39782" stroke-linecap="round" stroke-linejoin="round"/>
<path d="M299.838 367.501L273.643 362.315L263.229 365.013L262.223 372.436L256.841 368.703L249.293 372.282L251.208 384.373L258.77 387.63L261.943 379.718L268.583 383.94L281.96 391.208L286.461 401.217L298.51 411.057L313.131 405.159L311.566 399.819L306.953 394.381L303.011 380.082L305.262 373.135L299.838 367.501Z" stroke="#D9D9D9" stroke-width="1.39782" stroke-linecap="round" stroke-linejoin="round"/>
<path d="M321.143 371.121L315.398 370.883L311.582 375.901L316.432 385.826L321.143 384.778V371.121Z" stroke="#D9D9D9" stroke-width="1.39782" stroke-linecap="round" stroke-linejoin="round"/>
<path d="M356.297 370.52L342.557 366.746L339.062 362.972L336.406 364.692L340.544 371.359L344.807 380.291L350.72 381.256L351.475 379.564L347.016 374.868L357.22 376.391L356.297 370.52Z" stroke="#D9D9D9" stroke-width="1.39782" stroke-linecap="round" stroke-linejoin="round"/>
<path d="M279.681 524.545L278.562 526.306L290.136 527.159L295.602 531.254L302.633 530.458L304.282 525.915L295.644 526.306L279.681 524.545Z" stroke="#D9D9D9" stroke-width="1.39782" stroke-linecap="round" stroke-linejoin="round"/>
<path d="M313.396 524.266L306.281 528.124L308.015 530.779L317.422 528.683L318.582 525.398L315.409 526.474L313.396 524.266Z" stroke="#D9D9D9" stroke-width="1.39782" stroke-linecap="round" stroke-linejoin="round"/>
<path d="M419.532 356.534C416.691 356.534 413.877 357.095 411.253 358.183C408.628 359.272 406.244 360.867 404.237 362.879C402.229 364.89 400.638 367.277 399.555 369.904C398.471 372.53 397.916 375.345 397.922 378.186C397.922 390.124 419.532 414.208 419.532 414.208C419.532 414.208 441.156 390.124 441.156 378.186C441.16 375.344 440.604 372.529 439.518 369.903C438.433 367.276 436.841 364.889 434.833 362.878C432.824 360.867 430.439 359.271 427.814 358.183C425.189 357.094 422.374 356.534 419.532 356.534ZM419.532 387.664C417.646 387.672 415.8 387.12 414.228 386.077C412.656 385.034 411.429 383.548 410.704 381.807C409.978 380.066 409.786 378.148 410.152 376.298C410.518 374.447 411.425 372.747 412.759 371.413C414.093 370.08 415.793 369.172 417.644 368.806C419.494 368.44 421.411 368.632 423.153 369.358C424.894 370.084 426.38 371.31 427.423 372.882C428.465 374.454 429.018 376.3 429.009 378.186C429.002 380.698 428.001 383.104 426.225 384.88C424.45 386.655 422.043 387.656 419.532 387.664Z" fill="#D9D9D9" stroke="#727272" stroke-width="1.39782" stroke-miterlimit="10"/>
<path d="M251.833 412.012C246.832 412.012 242.036 413.998 238.5 417.535C234.963 421.071 232.977 425.867 232.977 430.868C232.977 441.282 251.833 462.291 251.833 462.291C251.833 462.291 270.69 441.324 270.69 430.868C270.69 425.867 268.703 421.071 265.167 417.535C261.63 413.998 256.834 412.012 251.833 412.012ZM251.833 439.171C250.191 439.171 248.586 438.684 247.22 437.772C245.855 436.86 244.791 435.563 244.162 434.046C243.534 432.529 243.369 430.859 243.69 429.248C244.01 427.638 244.801 426.158 245.962 424.997C247.123 423.836 248.603 423.045 250.213 422.725C251.824 422.404 253.493 422.569 255.011 423.197C256.528 423.826 257.825 424.89 258.737 426.255C259.649 427.621 260.136 429.226 260.136 430.868C260.136 433.07 259.261 435.182 257.704 436.739C256.147 438.297 254.035 439.171 251.833 439.171Z" fill="#D9D9D9" stroke="#727272" stroke-width="1.39782" stroke-miterlimit="10"/>
<path d="M323.14 559.061C320.625 559.061 318.213 560.059 316.433 561.836C314.654 563.613 313.652 566.023 313.648 568.538C313.648 573.78 323.14 584.348 323.14 584.348C323.14 584.348 332.617 573.78 332.617 568.538C332.613 566.026 331.613 563.617 329.837 561.841C328.06 560.064 325.652 559.065 323.14 559.061ZM323.14 572.718C322.31 572.718 321.499 572.472 320.81 572.011C320.12 571.55 319.583 570.895 319.265 570.129C318.948 569.363 318.865 568.52 319.027 567.706C319.189 566.893 319.588 566.146 320.174 565.559C320.761 564.973 321.508 564.573 322.322 564.411C323.135 564.25 323.978 564.333 324.744 564.65C325.511 564.967 326.166 565.505 326.626 566.195C327.087 566.884 327.333 567.695 327.333 568.524C327.333 569.075 327.225 569.62 327.014 570.129C326.803 570.638 326.494 571.1 326.105 571.49C325.715 571.879 325.253 572.188 324.744 572.399C324.236 572.609 323.69 572.718 323.14 572.718Z" fill="#D9D9D9" stroke="#727272" stroke-width="1.39782" stroke-miterlimit="10"/>
<path d="M205.188 471.488C202.673 471.492 200.263 472.494 198.486 474.273C196.709 476.053 195.711 478.465 195.711 480.979C195.711 486.221 205.188 496.789 205.188 496.789C205.188 496.789 214.679 486.221 214.679 480.979C214.679 478.462 213.679 476.048 211.899 474.268C210.12 472.488 207.705 471.488 205.188 471.488ZM205.188 485.159C204.359 485.159 203.548 484.913 202.858 484.452C202.169 483.991 201.631 483.337 201.314 482.57C200.997 481.804 200.913 480.961 201.075 480.147C201.237 479.334 201.636 478.587 202.223 478C202.809 477.414 203.557 477.014 204.37 476.853C205.183 476.691 206.027 476.774 206.793 477.091C207.559 477.409 208.214 477.946 208.675 478.636C209.136 479.325 209.382 480.136 209.382 480.966C209.382 482.078 208.94 483.144 208.153 483.931C207.367 484.717 206.3 485.159 205.188 485.159Z" fill="#D9D9D9" stroke="#727272" stroke-width="1.39782" stroke-miterlimit="10"/>
<path d="M238.739 511.408C237.493 511.408 236.26 511.653 235.109 512.13C233.958 512.608 232.913 513.307 232.033 514.188C231.152 515.07 230.455 516.116 229.979 517.268C229.504 518.419 229.26 519.653 229.262 520.899C229.262 526.141 238.739 536.708 238.739 536.708C238.739 536.708 248.23 526.141 248.23 520.899C248.23 518.382 247.23 515.968 245.45 514.188C243.67 512.408 241.256 511.408 238.739 511.408ZM238.739 525.078C237.91 525.078 237.099 524.832 236.409 524.372C235.72 523.911 235.182 523.256 234.865 522.49C234.547 521.723 234.464 520.88 234.626 520.067C234.788 519.253 235.187 518.506 235.774 517.92C236.36 517.333 237.107 516.934 237.921 516.772C238.734 516.61 239.577 516.693 240.344 517.011C241.11 517.328 241.765 517.866 242.226 518.555C242.686 519.245 242.932 520.056 242.932 520.885C242.932 521.997 242.491 523.064 241.704 523.85C240.918 524.637 239.851 525.078 238.739 525.078Z" fill="#D9D9D9" stroke="#727272" stroke-width="1.39782" stroke-miterlimit="10"/>
<path d="M356.557 529.328C355.079 529.328 353.616 529.619 352.251 530.185C350.886 530.75 349.645 531.579 348.6 532.624C347.556 533.669 346.727 534.909 346.161 536.274C345.596 537.64 345.305 539.103 345.305 540.581C345.305 546.787 356.557 559.311 356.557 559.311C356.557 559.311 367.74 546.731 367.74 540.581C367.749 539.106 367.466 537.645 366.909 536.28C366.351 534.915 365.529 533.674 364.489 532.628C363.45 531.582 362.214 530.752 360.853 530.186C359.491 529.62 358.032 529.328 356.557 529.328ZM356.557 545.529C355.575 545.532 354.613 545.243 353.795 544.698C352.977 544.154 352.339 543.379 351.961 542.472C351.584 541.565 351.485 540.566 351.676 539.602C351.867 538.638 352.34 537.753 353.034 537.058C353.729 536.363 354.615 535.89 355.579 535.699C356.542 535.508 357.541 535.607 358.449 535.985C359.356 536.362 360.131 537 360.675 537.818C361.219 538.637 361.508 539.598 361.505 540.581C361.505 541.23 361.377 541.874 361.129 542.474C360.88 543.075 360.516 543.62 360.056 544.08C359.597 544.539 359.051 544.904 358.451 545.152C357.85 545.401 357.207 545.529 356.557 545.529Z" fill="#D9D9D9" stroke="#727272" stroke-width="1.39782" stroke-miterlimit="10"/>
<path d="M355.734 314.332C353.087 314.332 350.549 315.384 348.677 317.255C346.805 319.127 345.754 321.665 345.754 324.312C345.754 329.904 355.734 340.96 355.734 340.96C355.734 340.96 365.729 329.778 365.729 324.312C365.725 321.664 364.67 319.126 362.797 317.254C360.923 315.383 358.383 314.332 355.734 314.332ZM355.734 328.716C354.863 328.716 354.012 328.457 353.288 327.974C352.564 327.49 352 326.802 351.666 325.997C351.333 325.193 351.246 324.308 351.416 323.453C351.586 322.599 352.005 321.815 352.621 321.199C353.237 320.583 354.021 320.164 354.875 319.994C355.729 319.824 356.615 319.911 357.419 320.244C358.224 320.578 358.912 321.142 359.395 321.866C359.879 322.59 360.137 323.442 360.137 324.312C360.137 325.48 359.674 326.6 358.848 327.426C358.022 328.252 356.902 328.716 355.734 328.716Z" fill="#D9D9D9" stroke="#727272" stroke-width="1.39782" stroke-miterlimit="10"/>
<path d="M184.795 376.785C183.483 376.783 182.184 377.04 180.972 377.54C179.759 378.041 178.657 378.776 177.729 379.703C176.801 380.63 176.064 381.731 175.562 382.943C175.059 384.154 174.801 385.453 174.801 386.765C174.801 392.287 184.795 403.413 184.795 403.413C184.795 403.413 194.776 392.231 194.776 386.765C194.776 384.118 193.724 381.58 191.852 379.708C189.981 377.836 187.442 376.785 184.795 376.785ZM184.795 391.168C183.924 391.171 183.071 390.915 182.345 390.433C181.619 389.951 181.053 389.264 180.717 388.46C180.382 387.655 180.293 386.77 180.461 385.915C180.629 385.06 181.048 384.274 181.663 383.657C182.278 383.039 183.063 382.619 183.917 382.448C184.772 382.277 185.658 382.363 186.463 382.696C187.268 383.029 187.957 383.593 188.441 384.317C188.926 385.042 189.184 385.894 189.184 386.765C189.184 387.931 188.722 389.048 187.9 389.874C187.077 390.699 185.961 391.165 184.795 391.168Z" fill="#D9D9D9" stroke="#727272" stroke-width="1.39782" stroke-miterlimit="10"/>
<path d="M303.293 161.701C303.293 161.701 302.426 240.399 302.426 253.398C302.426 266.398 301.35 278.979 301.35 278.979C301.35 278.979 305.25 281.774 304.593 285.045C303.865 287.818 302.848 290.507 301.56 293.069C300.069 292.732 298.532 292.661 297.017 292.859C295.493 293.292 286.393 297.402 284.87 297.402C283.346 297.402 282.703 298.702 282.27 294.606C281.798 290.941 281.653 287.241 281.836 283.549C282.107 280.255 282.617 276.985 283.36 273.765L274.246 174.268L272.08 271.165C272.08 271.165 272.513 277.022 273.17 278.154C274.031 279.705 274.618 281.393 274.903 283.144C274.903 284.22 272.946 294.41 272.108 294.844C271.269 295.277 268.641 296.801 268.641 296.801C268.641 296.801 266.908 296.367 264.517 293.334C262.127 290.301 256.508 290.538 255.418 290.944L254.327 291.377C254.327 291.377 251.084 287.477 250.427 284.654C249.77 281.83 254.118 281.62 253.894 274.03C253.67 266.44 247.156 202.056 247.156 202.056L245.633 158.724L303.726 156.991L303.293 161.701Z" fill="#D9D9D9" stroke="#727272" stroke-width="1.39782" stroke-miterlimit="10"/>
<path d="M280.537 61.1147L257.347 62.6384L256.48 161.702C256.48 161.702 258.214 163.226 272.513 163.435C286.813 163.645 289.86 161.926 289.86 161.926L280.537 61.1147Z" fill="#D9D9D9" stroke="#727272" stroke-width="1.39782" stroke-miterlimit="10"/>
<path d="M279.11 12.3291C279.11 12.3291 284.785 20.3386 284.701 21.5547C284.541 22.7514 284.308 23.9371 284.002 25.1052C284.002 25.1052 290.181 31.4792 289.594 31.9964L286.155 34.9319C286.155 34.9319 286.253 40.9006 286.253 41.8231C286.253 42.7457 287.567 45.0661 287.162 46.0166C286.693 47.054 286.045 48.0005 285.247 48.8122C284.534 49.4133 279.362 49.3154 279.362 49.3154L279.264 57.5206C279.264 57.5206 280.172 62.6926 279.362 64.5097C278.551 66.3269 276.217 67.7527 270.346 68.0602C264.475 68.3677 261.609 66.3688 259.89 64.9431C258.171 63.5173 258.394 50.4337 258.283 48.4068C258.171 46.38 258.087 42.522 256.969 40.8027C255.85 39.0834 248.582 26.8245 247.352 23.7772C246.122 20.73 246.024 17.5989 248.358 14.8731C250.692 12.1474 253.628 10.9173 253.949 9.39367C254.271 7.87005 253.949 6.36041 256.172 5.64752C257.79 5.22213 259.476 5.11766 261.134 5.34C261.134 5.34 265.397 0.182041 267.62 0.783104L269.857 1.38417C269.857 1.38417 276.035 -0.335153 279.278 2.40458C282.521 5.1443 283.164 9.49153 279.11 12.3291Z" fill="#D9D9D9" stroke="#727272" stroke-width="1.39782" stroke-miterlimit="10"/>
<path d="M280.27 26.6535C280.27 27.9395 280.661 28.9879 281.164 28.9879C281.667 28.9879 282.059 27.9395 282.059 26.6535C282.059 25.3675 281.653 24.3052 281.164 24.3052C280.675 24.3052 280.27 25.3535 280.27 26.6535Z" fill="#D9D9D9" stroke="#727272" stroke-width="1.39782" stroke-miterlimit="10"/>
<path d="M253.877 9.39367C254.17 7.87005 253.877 6.36041 256.099 5.64752C257.717 5.22213 259.403 5.11766 261.062 5.34C261.062 5.34 265.325 0.182041 267.547 0.783104L269.784 1.38417C269.784 1.38417 275.962 -0.335153 279.205 2.40458C282.448 5.1443 283.161 9.49153 279.107 12.3291C279.107 12.3291 267.925 13.5452 269.323 15.572C270.72 17.5989 271.349 19.2204 270.245 19.7655C269.141 20.3107 264.067 22.8966 264.57 24.1127C265.073 25.3288 265.577 28.5718 264.878 28.7814C264.179 28.9911 264.263 28.5718 262.082 26.9503C259.901 25.3288 257.413 26.5449 257.12 29.7459C257.007 30.9108 257.283 32.0802 257.906 33.0715C258.528 34.0627 259.46 34.8201 260.558 35.2254C261.677 35.4211 261.062 39.4189 258.937 40.9006C258.449 41.225 257.923 41.488 257.371 41.6833C257.251 41.3379 257.097 41.0054 256.91 40.6909C255.792 38.9716 248.523 26.7127 247.293 23.6654C246.063 20.6182 245.965 17.4871 248.299 14.7613C250.634 12.0356 253.569 10.9173 253.877 9.39367Z" fill="#D9D9D9" stroke="#727272" stroke-width="1.39782" stroke-miterlimit="10"/>
<path d="M285.036 38.0642C285.036 38.0642 280.479 38.875 277.852 35.646" stroke="#D9D9D9" stroke-width="1.39782" stroke-miterlimit="10"/>
<path d="M279.304 49.3156L269.98 46.3662L279.094 55.5918L279.304 49.3156Z" fill="#D9D9D9" stroke="#727272" stroke-width="1.39782" stroke-miterlimit="10"/>
<path d="M282.452 21.4962C282.452 21.4962 279.153 19.693 277.238 22.4048" stroke="#D9D9D9" stroke-width="1.39782" stroke-miterlimit="10"/>
<path d="M304.06 98.8517C304.06 98.8517 316.711 120.043 317.06 124.138C317.41 128.234 310.392 142.31 308.338 142.771C306.283 143.233 300.468 136.621 299.797 133.881C299.126 131.141 298.078 100.222 299.28 97.5378C300.482 94.854 304.06 98.8517 304.06 98.8517Z" fill="#D9D9D9" stroke="#727272" stroke-width="1.39782" stroke-miterlimit="10"/>
<path d="M283.081 60.8766L295.214 61.7992C295.214 61.7992 301.896 60.2476 303.908 60.8766C305.921 61.5057 334.535 72.5345 337.652 74.7151C340.769 76.8957 340.294 84.8073 339.511 88.0782C339.243 89.2193 338.614 90.2435 337.717 90.9989C336.821 91.7543 335.705 92.2006 334.535 92.2717C333.137 92.4255 304.23 90.5664 304.23 90.5664L311.68 166.272L296.137 171.304L285.108 172.702L279.656 78.3354L283.081 60.8766Z" fill="#D9D9D9" stroke="#727272" stroke-width="1.39782" stroke-miterlimit="10"/>
<path d="M279.109 55.606L283.078 60.8757C283.078 60.8757 283.54 68.8014 282.463 72.0583C281.703 74.2542 280.768 76.3858 279.668 78.4324L274.691 66.9283C276.826 63.4472 278.322 59.6129 279.109 55.606Z" fill="#D9D9D9" stroke="#727272" stroke-width="1.39782" stroke-miterlimit="10"/>
<path d="M259.875 81.3537L261.273 173.037C261.273 173.037 247.602 171.499 243.101 169.612C240.536 168.541 238.026 167.342 235.581 166.02C235.581 166.02 240.026 132.472 240.194 129.788C240.362 127.104 240.362 124.826 240.362 124.826C240.362 124.826 230.283 128.418 226.523 127.23C222.763 126.042 222.246 122.1 222.595 117.138C222.794 114.393 222.822 111.639 222.679 108.891C222.679 108.038 223.7 93.8781 227.809 83.2827C231.919 72.6872 229.431 72.3517 232.338 70.4786C235.246 68.6055 256.437 61.0713 256.437 61.0713L258.827 66.0336L259.875 81.3537Z" fill="#D9D9D9" stroke="#727272" stroke-width="1.39782" stroke-miterlimit="10"/>
<path d="M243.731 66.2026C243.731 66.2026 246.806 102.434 243.214 114.399L237.623 114.581C237.972 118.775 240.516 111.324 241.201 88.5957C241.495 78.811 237.105 68.4252 237.105 68.4252C239.256 67.5215 241.471 66.7786 243.731 66.2026Z" fill="#D9D9D9" stroke="#727272" stroke-width="1.39782" stroke-miterlimit="10"/>
<path d="M258.674 56.1667C258.674 56.1667 260.701 61.2967 261.931 63.9386C263.161 66.5805 264.069 68.2998 264.069 68.2998L259.876 81.3555C258.129 76.5251 256.842 71.5408 256.032 66.4687C255.403 60.5559 254.844 61.4645 254.844 61.4645C254.844 61.4645 257.583 55.0764 258.674 56.1667Z" fill="#D9D9D9" stroke="#727272" stroke-width="1.39782" stroke-miterlimit="10"/>
<path d="M300.806 39.0717C299.549 38.6422 298.348 38.0651 297.227 37.3523C296.291 36.5835 294.432 33.6202 293.803 33.0051C293.173 32.3901 290.098 33.4664 289.609 31.9987C289.12 30.531 288.77 29.0213 290.615 29.4547C292.44 29.7822 294.285 29.9784 296.137 30.0417L293.215 20.4946H306.621C306.621 20.4946 310.506 33.718 310.506 34.7943C310.398 36.0017 310.192 37.1983 309.891 38.3728C309.891 38.3728 328.231 58.8928 332.117 64.0228C336.003 69.1528 340.825 76.1558 341.3 78.7977C341.776 81.4396 340.364 89.8265 337.107 90.9168C333.85 92.0071 330.887 90.7631 327.476 87.5061C324.065 84.2492 313.791 63.254 313.33 62.4712C312.869 61.6884 304.943 42.1049 304.468 41.5039C303.32 40.589 302.094 39.7753 300.806 39.0717Z" fill="#D9D9D9" stroke="#727272" stroke-width="1.39782" stroke-miterlimit="10"/>
<path d="M293.981 61.9255C293.981 61.9255 297.909 87.5755 302.186 100.226C306.464 112.876 310.042 120.9 310.042 120.9L308.169 132.082C303.115 122.938 298.827 113.391 295.351 103.539C289.536 87.1282 286.293 61.4922 286.293 61.4922L293.981 61.9255Z" fill="#D9D9D9" stroke="#727272" stroke-width="1.39782" stroke-miterlimit="10"/>
<path d="M259.763 86.4972L264.376 127.439L238.055 124.308L231.191 83.5059L259.763 86.4972Z" fill="#D9D9D9" stroke="#727272" stroke-width="1.39782" stroke-miterlimit="10"/>
<path d="M256.367 86.7085L264.754 127.05L238.252 126.365L227.656 86.373L256.367 86.7085Z" fill="#D9D9D9" stroke="#727272" stroke-width="1.39782" stroke-miterlimit="10"/>
<path d="M230.732 109.968C233.617 111.524 236.585 112.924 239.622 114.161C240.992 114.707 242.461 114.959 243.935 114.901C245.408 114.843 246.853 114.477 248.176 113.826C249.673 113.139 251.011 112.149 252.104 110.918C252.104 110.918 252.957 106.305 253.977 105.621C254.998 104.936 257.402 104.418 258.422 102.825C259.443 101.231 259.96 101.427 260.309 102.993C260.659 104.558 260.994 106.25 259.96 106.934C259.359 107.329 258.934 107.94 258.772 108.64C258.772 108.64 258.94 109.842 260.309 109.325C261.679 108.808 262.532 107.102 263.902 107.619C264.203 107.669 264.488 107.789 264.733 107.97C264.979 108.151 265.178 108.387 265.315 108.66C265.451 108.933 265.521 109.234 265.518 109.539C265.516 109.845 265.441 110.145 265.3 110.415C264.909 111.254 264.441 112.054 263.902 112.805C263.902 112.805 265.607 116.747 264.754 119.305C263.902 121.863 259.624 123.415 257.57 123.583C255.515 123.75 249.714 123.918 249.714 123.918C249.714 123.918 241.327 126.714 236.211 128.195C231.095 129.677 229.543 129.397 226.636 127.175C225.14 126.019 224.04 124.427 223.489 122.619C222.939 120.811 222.963 118.876 223.561 117.083C224.749 113.043 226.119 110.82 230.732 109.968Z" fill="#D9D9D9" stroke="#727272" stroke-width="1.39782" stroke-miterlimit="10"/>
<path d="M300.259 289.821C300.259 289.821 303.055 296.53 303.726 297.83C305.169 300.163 307.185 302.088 309.583 303.421C312.839 305.364 316.739 306.664 315.873 308.398C315.006 310.131 311.106 310.564 307.849 310.998C304.592 311.431 297.016 310.131 293.969 310.131C290.922 310.131 284.184 309.055 283.569 307.531C282.954 306.007 283.793 295.174 283.793 295.174C283.793 295.174 288.769 289.597 300.259 289.821Z" fill="#D9D9D9" stroke="#727272" stroke-width="1.39782" stroke-miterlimit="10"/>
<path d="M283.637 307.59C283.396 306.423 283.316 305.228 283.399 304.04L291.213 306.36C295.993 307.558 300.865 308.352 305.778 308.736C309.172 308.909 312.564 308.381 315.745 307.185C315.904 307.351 316.009 307.562 316.044 307.79C316.079 308.017 316.043 308.25 315.94 308.457C315.074 310.19 311.174 310.623 307.917 311.057C304.66 311.49 297.084 310.19 294.037 310.19C290.989 310.19 284.224 309.114 283.637 307.59Z" fill="#D9D9D9" stroke="#727272" stroke-width="1.39782" stroke-miterlimit="10"/>
<path d="M269.284 295.712C269.284 295.712 268.641 306.894 268.487 307.705C268.334 308.516 267.537 309.103 265.328 309.368C263.12 309.634 262.155 309.522 260.897 310.137C259.639 310.752 256.941 312.108 249.351 312.108C241.761 312.108 239.385 310.71 240.335 308.012C241.286 305.315 248.554 299.961 250.302 297.836C251.757 295.743 252.989 293.504 253.978 291.155C253.978 291.155 256.145 289.338 260.422 290.246C264.699 291.155 265.803 292.832 266.279 293.587C267.17 294.44 268.183 295.156 269.284 295.712Z" fill="#D9D9D9" stroke="#727272" stroke-width="1.39782" stroke-miterlimit="10"/>
<path d="M240.306 308.063C240.37 307.884 240.45 307.711 240.543 307.546C241.282 308.332 242.164 308.968 243.143 309.419C245.939 310.817 257.233 310.034 259.763 308.664C262.655 307.391 265.635 306.33 268.682 305.491C268.598 306.693 268.528 307.588 268.486 307.784C268.332 308.538 267.535 309.181 265.327 309.447C263.118 309.713 262.154 309.601 260.896 310.216C259.638 310.831 256.94 312.187 249.35 312.187C241.759 312.187 239.383 310.789 240.306 308.063Z" fill="#D9D9D9" stroke="#727272" stroke-width="1.39782" stroke-miterlimit="10"/>
<path d="M289.648 22.6312L299.992 21.9463V30.0397L289.648 29.3547C289.159 29.3547 288.754 27.8591 288.754 26C288.754 24.1409 289.229 22.6312 289.648 22.6312Z" fill="#D9D9D9" stroke="#727272" stroke-width="1.39782" stroke-miterlimit="10"/>
<path d="M286.81 21.8232H290.067C290.151 21.8238 290.234 21.8451 290.309 21.8853C290.383 21.9254 290.447 21.9832 290.493 22.0535C290.54 22.1239 290.569 22.2047 290.578 22.2888C290.586 22.3729 290.574 22.4579 290.542 22.5361C290.185 23.656 290.02 24.8279 290.053 26.0027C290.018 27.173 290.184 28.3406 290.542 29.4553C290.574 29.5336 290.586 29.6185 290.578 29.7027C290.569 29.7868 290.54 29.8676 290.493 29.9379C290.447 30.0083 290.383 30.0661 290.309 30.1062C290.234 30.1464 290.151 30.1677 290.067 30.1682H286.81C286.195 30.1682 285.691 28.2951 285.691 25.9748C285.691 23.6544 286.195 21.8232 286.81 21.8232Z" fill="#D9D9D9" stroke="#727272" stroke-width="1.39782" stroke-miterlimit="10"/>
<path d="M297.07 20.4952L319.533 19.377V32.6283L297.07 31.524C296.259 31.524 295.672 29.0499 295.672 26.0166C295.672 22.9833 296.217 20.4952 297.07 20.4952Z" fill="#D9D9D9" stroke="#727272" stroke-width="1.39782" stroke-miterlimit="10"/>
<path d="M317.773 26.0026C317.773 29.6509 318.57 32.6283 319.535 32.6283C320.499 32.6283 321.296 29.6509 321.296 26.0026C321.296 22.3543 320.513 19.377 319.535 19.377C318.556 19.377 317.773 22.3403 317.773 26.0026Z" fill="#D9D9D9" stroke="#727272" stroke-width="1.39782" stroke-miterlimit="10"/>
<path d="M285.719 22.6312L296.063 21.9463V30.0397L285.719 29.3547C285.23 29.3547 284.824 27.8591 284.824 26C284.824 24.1409 285.23 22.6312 285.719 22.6312Z" fill="#D9D9D9" stroke="#727272" stroke-width="1.39782" stroke-miterlimit="10"/>
<path d="M282.884 21.8232H286.141C286.225 21.8238 286.308 21.8451 286.383 21.8853C286.457 21.9254 286.521 21.9832 286.568 22.0535C286.615 22.1239 286.643 22.2047 286.652 22.2888C286.66 22.3729 286.648 22.4579 286.616 22.5361C286.265 23.657 286.104 24.8288 286.141 26.0027C286.103 27.1722 286.264 28.3396 286.616 29.4553C286.648 29.5336 286.66 29.6185 286.652 29.7027C286.643 29.7868 286.615 29.8676 286.568 29.9379C286.521 30.0083 286.457 30.0661 286.383 30.1062C286.308 30.1464 286.225 30.1677 286.141 30.1682H282.884C282.269 30.1682 281.766 28.2951 281.766 25.9748C281.766 23.6544 282.241 21.8232 282.884 21.8232Z" fill="#D9D9D9" stroke="#727272" stroke-width="1.39782" stroke-miterlimit="10"/>
<path d="M293.144 20.4952L315.607 19.377V32.6283L293.144 31.524C292.347 31.524 291.746 29.0499 291.746 26.0166C291.746 22.9833 292.347 20.4952 293.144 20.4952Z" fill="#D9D9D9" stroke="#727272" stroke-width="1.39782" stroke-miterlimit="10"/>
<path d="M313.844 26.0026C313.844 29.6509 314.641 32.6283 315.605 32.6283C316.57 32.6283 317.366 29.6509 317.366 26.0026C317.366 22.3543 316.583 19.377 315.605 19.377C314.627 19.377 313.844 22.3403 313.844 26.0026Z" fill="#D9D9D9" stroke="#727272" stroke-width="1.39782" stroke-miterlimit="10"/>
<path d="M306.171 19.6962C306.171 19.6962 303.278 16.5791 302.202 16.5791C301.125 16.5791 299.406 19.3747 299.098 19.6962C298.791 20.0177 298.987 20.5489 300.161 20.6607C301.055 20.6315 301.918 20.3291 302.635 19.7941L306.171 19.6962Z" fill="#D9D9D9" stroke="#727272" stroke-width="1.39782" stroke-miterlimit="10"/>
<path d="M302.203 16.5795C300.731 16.2005 299.222 15.9848 297.702 15.9365C296.836 16.1462 295.228 19.7945 295.55 20.3397C295.871 20.8848 299.1 19.6967 299.1 19.6967C299.1 19.6967 301.239 16.4677 302.203 16.5795Z" fill="#D9D9D9" stroke="#727272" stroke-width="1.39782" stroke-miterlimit="10"/>
<path d="M296.946 16.258C296.946 16.258 295.227 15.1817 294.374 15.9365C293.522 16.6913 291.691 19.2633 292.124 20.2278C292.557 21.1923 295.549 20.3396 295.549 20.3396C295.549 20.3396 296.22 16.5795 296.946 16.258Z" fill="#D9D9D9" stroke="#727272" stroke-width="1.39782" stroke-miterlimit="10"/>
<path d="M293.52 16.5772C293.52 16.5772 291.367 15.7245 290.612 16.5772C289.857 17.4299 287.942 20.1137 289.214 20.7707C290.486 21.4276 291.786 19.4847 291.786 19.4847L293.52 16.5772Z" fill="#D9D9D9" stroke="#727272" stroke-width="1.39782" stroke-miterlimit="10"/>
</g>
<defs>
<clipPath id="clip0_3843_1050">
<rect width="557.423" height="623.652" fill="white" transform="translate(0.0742188 0.0307617)"/>
</clipPath>
</defs>
</svg>
