<svg width="50" height="10" viewBox="0 0 50 10" fill="none" xmlns="http://www.w3.org/2000/svg">
<g clip-path="url(#clip0_1136_3685)">
<path d="M44.6137 2.67146C43.8706 2.8789 43.1067 3.0031 42.3361 3.04179L36.1269 3.71456C34.7222 3.87502 33.3369 4.17482 31.9915 4.60954C31.2583 4.85634 30.5529 5.17905 29.8868 5.5724C29.1657 6.05833 28.4154 6.49945 27.6401 6.89326C27.1729 7.11193 26.6622 7.22168 26.1464 7.21422C25.5786 7.18118 25.0417 6.94451 24.6342 6.54762C23.8503 5.73905 23.6343 4.75767 23.122 4.12811C22.9101 3.81895 22.5913 3.59911 22.2271 3.51088C21.8366 3.42432 21.4294 3.45217 21.0543 3.59112C20.2122 3.89743 19.5059 4.49224 19.0607 5.26996C18.5237 6.06618 18.104 6.97349 17.493 7.82526C16.8982 8.7405 16.017 9.43289 14.987 9.7942C14.4465 9.94857 13.8735 9.94857 13.3329 9.7942C12.8207 9.64229 12.3485 9.3788 11.9503 9.02267C11.2383 8.36923 10.6834 7.56318 10.327 6.66488C9.96903 5.8378 9.70978 5.03541 9.35179 4.33178C8.94128 3.36996 8.19586 2.58968 7.25379 2.13567C6.31172 1.68166 5.23695 1.58474 4.22886 1.86289C3.6934 1.99787 3.1929 2.24552 2.76077 2.58931C2.32864 2.9331 1.97483 3.36512 1.72294 3.85653C1.32007 4.61491 1.12821 5.46756 1.16742 6.32542C1.18289 6.87506 1.3001 7.41708 1.51308 7.92402C1.65504 8.28201 1.7538 8.461 1.72294 8.48569C1.69208 8.51038 1.54394 8.35607 1.33408 8.0166C1.03111 7.51028 0.843536 6.94337 0.784747 6.35627C0.666537 5.41705 0.820796 4.46365 1.22915 3.60963C1.49654 3.02865 1.88568 2.51193 2.37022 2.09448C2.85476 1.67704 3.42337 1.36862 4.03752 1.19012C4.78758 0.971193 5.57713 0.922973 6.34826 1.049C7.11939 1.17503 7.85253 1.47212 8.49386 1.91845C9.1917 2.43992 9.75116 3.12441 10.1233 3.91207C10.5245 4.6836 10.8084 5.49833 11.1602 6.26986C11.4707 7.03857 11.952 7.72664 12.5675 8.28201C12.8484 8.55201 13.1948 8.74411 13.5725 8.83936C13.9503 8.93461 14.3463 8.92971 14.7216 8.82516C15.5313 8.52167 16.2217 7.96546 16.6906 7.2389C17.2276 6.49206 17.6473 5.58474 18.2336 4.70829C18.5319 4.25386 18.8865 3.83907 19.2891 3.47384C19.7133 3.10514 20.2062 2.82405 20.7395 2.64677C21.2899 2.45853 21.8817 2.42648 22.4492 2.55419C23.0251 2.69649 23.5322 3.03747 23.8812 3.51705C24.5355 4.39351 24.7577 5.36871 25.2885 5.85632C25.5294 6.09799 25.8493 6.2448 26.1896 6.26986C26.5646 6.27273 26.9355 6.19264 27.2759 6.03532C28.0213 5.66598 28.7447 5.25381 29.4424 4.80088C30.1648 4.38678 30.9307 4.05353 31.7261 3.80715C33.1338 3.38615 34.582 3.11512 36.0466 2.99859C38.7007 2.77639 40.8301 2.70849 42.3115 2.63442C43.0779 2.56162 43.85 2.57404 44.6137 2.67146Z" fill="#034833"/>
<path d="M43.0013 6.50389C42.9519 6.37428 43.6185 6.01012 44.6246 5.40524C45.1307 5.1028 45.7294 4.73247 46.3713 4.29424C46.6923 4.07821 46.9885 3.83749 47.3589 3.5906C47.5174 3.48276 47.6643 3.35865 47.7971 3.22028C47.9082 3.11129 47.9963 2.98117 48.0563 2.83759C48.0872 2.72032 48.0563 2.72649 48.0563 2.68329C47.9668 2.60144 47.8552 2.54777 47.7354 2.52898L46.538 2.20803C45.7726 1.99818 45.0875 1.79449 44.5135 1.59081C43.3654 1.22048 42.6618 0.924206 42.705 0.794589C42.7482 0.664972 43.4889 0.714352 44.6801 0.911863C45.2973 1.01062 45.9763 1.14641 46.754 1.30688L47.9884 1.57846C48.304 1.6359 48.5934 1.79141 48.8155 2.02286C48.953 2.17886 49.0411 2.37221 49.0686 2.57836C49.0938 2.76782 49.0726 2.96058 49.0068 3.14004C48.9034 3.41963 48.7389 3.67265 48.5254 3.8807C48.3515 4.05968 48.1567 4.21717 47.9452 4.34979C47.5872 4.60902 47.2231 4.83739 46.8774 5.04725C46.2606 5.41612 45.6169 5.73798 44.9517 6.01011C43.8037 6.49155 43.0507 6.62734 43.0013 6.50389Z" fill="#034833"/>
</g>
<defs>
<clipPath id="clip0_1136_3685">
<rect width="48.31" height="9.16575" fill="white" transform="translate(0.753906 0.740234)"/>
</clipPath>
</defs>
</svg>
