<svg width="159" height="50" viewBox="0 0 159 50" fill="none" xmlns="http://www.w3.org/2000/svg">
<g clip-path="url(#clip0_1136_3679)">
<path fill-rule="evenodd" clip-rule="evenodd" d="M59.1552 22.5483L56.2709 21.8653C54.8276 21.5238 54.033 20.5522 54.033 19.1285C54.033 17.3191 55.5049 15.9541 57.4572 15.9541C60.1587 15.9541 60.9564 18.1233 61.1371 18.789C61.1943 19.0102 61.3354 19.1978 61.5249 19.3012C61.71 19.4046 61.9171 19.42 62.1154 19.3445L63.6358 18.7591C63.8183 18.6884 63.9692 18.5443 64.0577 18.3562C64.1462 18.1681 64.1655 17.9503 64.1118 17.7472C63.7195 16.2417 62.2785 12.7402 57.3911 12.7402C53.773 12.7402 50.719 15.7608 50.719 19.3368C50.719 22.4102 52.5668 24.6804 55.6636 25.4163L58.4135 26.0704C60.0688 26.4504 61.0577 27.5518 61.0577 29.014C61.0577 30.8802 59.6519 32.0393 57.3867 32.0393C54.7249 32.0393 53.4425 30.1347 53.1296 28.3502C53.1098 28.2352 53.0678 28.126 53.0065 28.03C52.9451 27.934 52.8658 27.8533 52.7737 27.7933C52.6816 27.7333 52.5789 27.6953 52.4723 27.6818C52.3658 27.6684 52.2578 27.6798 52.1556 27.7154L50.4854 28.2973C50.3098 28.3557 50.1602 28.4827 50.0651 28.6539C49.9699 28.8252 49.936 29.0288 49.9698 29.2256C50.4898 32.1836 52.7166 35.3388 57.4176 35.3388C61.39 35.3388 64.3859 32.5155 64.3859 28.7735C64.3859 25.6135 62.475 23.3433 59.1416 22.5401L59.1552 22.5483ZM76.2195 25.4259C76.2283 25.4884 76.2019 25.5365 76.1842 25.5558C76.1696 25.5755 76.1512 25.5913 76.1302 25.6022C76.1092 25.613 76.0862 25.6185 76.063 25.6183H69.9373C69.913 25.6183 69.8889 25.6123 69.867 25.6006C69.8451 25.5889 69.8259 25.572 69.8109 25.551C69.7969 25.5334 69.7868 25.5125 69.7815 25.49C69.7761 25.4675 69.7756 25.4439 69.78 25.4211C70.0599 24.0272 71.155 22.6218 72.9707 22.6218C74.7542 22.6218 75.9674 23.6656 76.2164 25.4177L76.2195 25.4259ZM72.9469 19.5003C69.721 19.5003 66.3849 22.4439 66.3849 27.3739C66.3849 29.7499 67.0988 31.7796 68.4517 33.2369C69.7051 34.5885 71.4176 35.334 73.273 35.334C76.0362 35.334 78.2749 33.7583 79.2621 31.1207C79.3414 30.9042 79.337 30.6637 79.2515 30.4521C79.2093 30.3494 79.1482 30.2573 79.072 30.1815C78.9958 30.1057 78.9062 30.0478 78.8086 30.0115L77.46 29.5017C77.2796 29.434 77.0824 29.4432 76.9078 29.5272C76.7332 29.6113 76.5941 29.7642 76.5183 29.9553C75.9366 31.4511 74.8436 32.2062 73.2703 32.2062C71.3665 32.2062 69.9166 30.8066 69.6654 28.7225C69.6623 28.6992 69.664 28.6754 69.6705 28.6529C69.677 28.6304 69.688 28.6098 69.7029 28.5927C69.7205 28.5686 69.7602 28.5301 69.8219 28.5301H78.761C79.162 28.5301 79.497 28.1886 79.519 27.7529C79.5278 27.6134 79.5322 27.4595 79.5322 27.3075C79.5322 22.4881 77.007 19.495 72.9438 19.495L72.9469 19.5003ZM88.1686 31.1976C86.0224 31.1976 84.687 29.5719 84.687 26.9554C84.687 24.3774 86.0532 22.7113 88.1686 22.7113C90.2178 22.7113 91.5945 24.414 91.5945 26.9535C91.5945 29.4902 90.2169 31.1957 88.1681 31.1957L88.1686 31.1976ZM93.8888 19.9428H92.2715C91.8528 19.9428 91.5113 20.3146 91.5113 20.7941C91.5111 20.8281 91.5018 20.8612 91.4846 20.8894C91.4674 20.9176 91.4429 20.9397 91.4143 20.9529C91.3834 20.9673 91.3218 20.9865 91.2662 20.9288C90.4333 20.0977 89.261 19.6759 87.7847 19.6759C84.1256 19.6759 81.4695 22.7397 81.4695 26.9578C81.4695 31.1577 84.1256 34.2061 87.7847 34.2061C89.1377 34.2061 90.3628 33.7213 91.2354 32.8411C91.2927 32.7834 91.3544 32.7978 91.3852 32.8122C91.4072 32.8219 91.4822 32.8651 91.4822 32.971V33.577C91.4822 36.5109 90.3055 37.8793 87.7847 37.8793C86.185 37.8793 84.929 36.7971 84.5897 35.1243C84.5456 34.9078 84.4266 34.7251 84.2547 34.6082C84.0829 34.4913 83.8757 34.4543 83.6774 34.5024L82.0891 34.9016C81.8941 34.9522 81.725 35.0844 81.6184 35.2697C81.5117 35.455 81.476 35.6786 81.5189 35.8924C82.0874 38.9322 84.6064 40.9763 87.7812 40.9763C90.1477 40.9763 91.9502 40.1899 93.1401 38.6388C94.1228 37.3565 94.6428 35.5764 94.6428 33.4909V20.785C94.6428 20.3281 94.3035 19.9577 93.8848 19.9577L93.8888 19.9428ZM113.116 19.5273C111.327 19.5273 109.872 20.2641 108.906 21.6628C108.89 21.6887 108.868 21.7095 108.842 21.7234C108.816 21.7372 108.787 21.7435 108.758 21.7417C108.737 21.7419 108.716 21.7361 108.698 21.7247C108.679 21.7133 108.663 21.6967 108.653 21.6767C107.843 20.3108 106.446 19.5268 104.819 19.5268C103.524 19.5268 102.28 20.0231 101.404 20.8903C101.383 20.9144 101.355 20.9307 101.325 20.9367C101.295 20.9428 101.264 20.9383 101.237 20.924C101.21 20.9119 101.187 20.891 101.171 20.8641C101.155 20.8373 101.147 20.8058 101.148 20.7739C101.148 20.317 100.807 19.9467 100.389 19.9467H98.8524C98.4337 19.9467 98.0944 20.317 98.0944 20.7739V34.0633C98.0944 34.5202 98.4355 34.8915 98.8542 34.8915H100.472C100.89 34.8915 101.23 34.5183 101.23 34.0613V25.9603C101.23 23.9917 102.331 22.6685 103.975 22.6685C106.126 22.6685 106.447 24.5092 106.447 25.6058V34.0758C106.447 34.5327 106.787 34.903 107.205 34.903H108.85C109.269 34.903 109.608 34.5308 109.608 34.0738V25.9314C109.608 24.0095 110.728 22.6675 112.328 22.6675C114.48 22.6675 114.8 24.5097 114.8 25.6063V34.0762C114.8 34.5332 115.139 34.9035 115.558 34.9035H117.175C117.594 34.9035 117.933 34.5312 117.933 34.0743V25.3062C117.933 21.3237 115.514 19.5426 113.116 19.5426V19.5273ZM124.05 25.6299C124.026 25.6298 124.002 25.6238 123.98 25.6123C123.958 25.6008 123.939 25.5841 123.924 25.5635C123.91 25.5459 123.901 25.5253 123.896 25.5032C123.891 25.481 123.89 25.4579 123.895 25.4355C124.175 24.0407 125.27 22.6363 127.087 22.6363C128.87 22.6363 130.084 23.68 130.332 25.4307C130.341 25.4933 130.313 25.5414 130.297 25.5606C130.281 25.5785 130.263 25.5928 130.242 25.6027C130.221 25.6126 130.199 25.6179 130.176 25.6183H124.05V25.6299ZM127.06 19.5119C123.834 19.5119 120.498 22.4574 120.498 27.3854C120.498 29.7643 121.212 31.7926 122.563 33.2514C123.815 34.6029 125.525 35.3436 127.384 35.3436C130.143 35.3436 132.382 33.766 133.374 31.1255C133.453 30.909 133.448 30.6685 133.36 30.4569C133.272 30.2453 133.114 30.0914 132.915 30.0144L131.567 29.5055C131.192 29.3646 130.778 29.5633 130.624 29.9586C130.043 31.4506 128.95 32.2096 127.377 32.2096C125.473 32.2096 124.023 30.8071 123.772 28.7225C123.768 28.6989 123.77 28.6748 123.776 28.6519C123.782 28.6289 123.792 28.6077 123.807 28.5898C123.825 28.5657 123.864 28.5296 123.926 28.5296H132.868C133.269 28.5296 133.602 28.1882 133.626 27.7519C133.633 27.6124 133.639 27.4585 133.639 27.3046C133.639 22.4852 131.114 19.4888 127.05 19.4888L127.06 19.5119ZM143.265 19.5422C141.896 19.5422 140.697 20.051 139.796 21.0139C139.776 21.0366 139.749 21.052 139.72 21.058C139.692 21.064 139.662 21.0604 139.635 21.0476C139.607 21.0344 139.584 21.0126 139.567 20.9849C139.551 20.9572 139.542 20.9248 139.542 20.8918V20.786C139.542 20.329 139.201 19.9587 138.783 19.9587H137.196C136.777 19.9587 136.436 20.329 136.436 20.786V34.0729C136.436 34.5298 136.776 34.9016 137.194 34.9016H138.838C139.257 34.9016 139.598 34.5288 139.598 34.0719V26.3152C139.598 24.5799 140.319 22.7253 142.344 22.7253C144.164 22.7253 145.088 23.8233 145.088 25.9887V34.069C145.088 34.526 145.427 34.8963 145.846 34.8963H147.49C147.908 34.8963 148.248 34.5211 148.248 34.0642V25.513C148.248 21.8287 146.337 19.5393 143.264 19.5393L143.265 19.5422ZM155.908 23.1408H157.825C158.243 23.1408 158.583 22.7681 158.583 22.3116V20.785C158.583 20.3281 158.243 19.9577 157.825 19.9577H155.908C155.887 19.9577 155.867 19.9534 155.849 19.9449C155.83 19.9365 155.813 19.9241 155.799 19.9084C155.784 19.8928 155.773 19.8742 155.765 19.8538C155.757 19.8334 155.753 19.8115 155.753 19.7894V16.2715C155.753 15.8146 155.412 15.4433 154.993 15.4433H153.565C153.147 15.4433 152.807 15.8146 152.807 16.2715V18.0896C152.807 18.941 152.509 19.9572 151.094 19.9572H150.85C150.432 19.9572 150.092 20.3276 150.092 20.7845V22.3092C150.092 22.7661 150.433 23.1365 150.85 23.1365H152.441C152.527 23.1365 152.595 23.2086 152.595 23.3048V30.6493C152.595 33.362 154.109 35.0454 156.544 35.0454C157.223 35.0454 157.751 34.9396 158.005 34.8771C158.349 34.7905 158.59 34.4586 158.59 34.069V32.6554C158.59 32.5392 158.568 32.4242 158.524 32.318C158.481 32.2119 158.417 32.1168 158.338 32.0392C158.259 31.9615 158.165 31.9028 158.064 31.8671C157.963 31.8313 157.855 31.8192 157.749 31.8315C157.578 31.8508 157.411 31.8618 157.281 31.8618C156.174 31.8618 155.76 31.4193 155.76 30.2313V23.3053C155.76 23.213 155.831 23.1379 155.914 23.1379" fill="#43AF79"/>
<path fill-rule="evenodd" clip-rule="evenodd" d="M18.4874 41.9857C16.7669 41.9857 15.0676 41.7067 13.437 41.1551C12.9905 41.0041 12.6172 40.6657 12.3993 40.2143C12.1813 39.763 12.1366 39.2356 12.2749 38.7483C12.5631 37.7286 13.5529 37.1611 14.4806 37.4785C15.7727 37.9162 17.1203 38.1374 18.4874 38.1374C24.469 38.1374 29.6626 33.9482 31.4117 27.7099C31.4794 27.4684 31.5901 27.2438 31.7374 27.0489C31.8847 26.8541 32.0658 26.6929 32.2702 26.5745C32.4747 26.4561 32.6985 26.3829 32.9289 26.359C33.1593 26.3351 33.3918 26.3611 33.613 26.4353C34.5438 26.7432 35.0673 27.8206 34.7826 28.8354C32.5774 36.6998 26.0286 41.9857 18.4874 41.9857Z" fill="#43AF79"/>
<path fill-rule="evenodd" clip-rule="evenodd" d="M3.87827 20.4265C3.60256 20.4266 3.33069 20.356 3.0845 20.2206C2.83831 20.0851 2.62466 19.8886 2.46072 19.6466C2.29678 19.4047 2.18713 19.1242 2.14056 18.8276C2.09399 18.531 2.11182 18.2266 2.1926 17.9389C4.39829 10.075 10.9471 4.79297 18.4874 4.79297C20.2092 4.79297 21.9085 5.07193 23.5378 5.62409C23.7589 5.69886 23.9644 5.82044 24.1425 5.98189C24.3206 6.14334 24.4678 6.34149 24.5757 6.56503C24.6836 6.78857 24.7501 7.03312 24.7714 7.28471C24.7927 7.53631 24.7684 7.79002 24.6999 8.03137C24.6316 8.27285 24.5203 8.49726 24.3724 8.69174C24.2245 8.88622 24.043 9.04695 23.8381 9.16472C23.6332 9.28249 23.409 9.35499 23.1784 9.37807C22.9478 9.40115 22.7153 9.37435 22.4942 9.29921C21.203 8.86634 19.8544 8.64509 18.4874 8.64509C12.5071 8.64509 7.31262 12.8344 5.56349 19.0726C5.45294 19.4663 5.22966 19.8109 4.92643 20.0559C4.62319 20.3009 4.25598 20.4333 3.87871 20.4338" fill="#43AF79"/>
<path fill-rule="evenodd" clip-rule="evenodd" d="M23.0165 30.2018H1.8956C0.921661 30.2018 0.132812 29.3408 0.132812 28.2779C0.132812 27.2149 0.921661 26.354 1.8956 26.354H23.0165C23.9904 26.354 24.7793 27.2149 24.7793 28.2779C24.7793 29.3408 23.9904 30.2018 23.0165 30.2018Z" fill="#93C8A2"/>
<path fill-rule="evenodd" clip-rule="evenodd" d="M35.0801 20.4273H13.9601C12.9862 20.4273 12.1973 19.5664 12.1973 18.5034C12.1973 17.4405 12.9862 16.5795 13.9601 16.5795H35.0801C36.0541 16.5795 36.8429 17.4405 36.8429 18.5034C36.8429 19.5664 36.0541 20.4273 35.0801 20.4273Z" fill="#93C8A2"/>
<path fill-rule="evenodd" clip-rule="evenodd" d="M30.7137 11.1719C30.7137 11.6822 30.528 12.1715 30.1974 12.5323C29.8668 12.8931 29.4184 13.0958 28.9509 13.0958C28.4834 13.0958 28.035 12.8931 27.7044 12.5323C27.3738 12.1715 27.1881 11.6822 27.1881 11.1719C27.1881 10.6617 27.3738 10.1723 27.7044 9.81154C28.035 9.45074 28.4834 9.24805 28.9509 9.24805C29.4184 9.24805 29.8668 9.45074 30.1974 9.81154C30.528 10.1723 30.7137 10.6617 30.7137 11.1719ZM9.78717 35.6121C9.78717 36.1224 9.60145 36.6117 9.27086 36.9725C8.94028 37.3333 8.4919 37.536 8.02438 37.536C7.55686 37.536 7.10849 37.3333 6.7779 36.9725C6.44732 36.6117 6.26159 36.1224 6.26159 35.6121C6.26159 35.1019 6.44732 34.6125 6.7779 34.2517C7.10849 33.8909 7.55686 33.6882 8.02438 33.6882C8.4919 33.6882 8.94028 33.8909 9.27086 34.2517C9.60145 34.6125 9.78717 35.1019 9.78717 35.6121Z" fill="#93C8A2"/>
</g>
<defs>
<clipPath id="clip0_1136_3679">
<rect width="158.866" height="48.6693" fill="white" transform="translate(0.132812 0.414062)"/>
</clipPath>
</defs>
</svg>
