<svg width="102" height="50" viewBox="0 0 102 50" fill="none" xmlns="http://www.w3.org/2000/svg">
<g clip-path="url(#clip0_1136_3678)">
<path d="M11.5322 30.2028C11.5322 30.9255 11.3922 31.5971 11.112 32.2181C10.8319 32.8303 10.435 33.3573 9.93692 33.7827C9.43111 34.2163 8.83198 34.5479 8.13913 34.7858C7.4466 35.0239 6.68405 35.1429 5.85906 35.1429C4.87056 35.1429 3.98364 34.9984 3.20573 34.7008C2.42757 34.4117 1.64164 33.9185 0.855469 33.2381L2.1553 30.9335C2.77779 31.5032 3.33786 31.9195 3.84408 32.1836C4.34213 32.4472 4.8557 32.5747 5.38504 32.5747C6.03091 32.5747 6.54448 32.3961 6.9417 32.0305C7.33858 31.6649 7.5253 31.1802 7.5253 30.5596C7.5253 30.2961 7.48639 30.0495 7.41638 29.8199C7.34634 29.5903 7.21405 29.3523 7.02734 29.1057C6.84054 28.8676 6.57603 28.5955 6.24141 28.315C5.91456 28.0343 5.48662 27.6772 4.95727 27.2605C4.56039 26.9544 4.16359 26.6313 3.78214 26.3078C3.40087 25.9762 3.05849 25.6276 2.73914 25.2533C2.4279 24.8792 2.17891 24.4626 1.98435 23.9951C1.79755 23.536 1.69648 23.0001 1.69648 22.4134C1.69648 21.7332 1.82877 21.1038 2.08552 20.5423C2.34226 19.9808 2.70025 19.5049 3.15164 19.1056C3.60294 18.706 4.14013 18.3999 4.77766 18.1791C5.40792 17.958 6.09235 17.8475 6.83971 17.8475C7.62564 17.8475 8.38068 17.958 9.11152 18.1877C9.84294 18.4172 10.5204 18.7488 11.1504 19.1908L9.97532 21.2656C9.17387 20.6533 8.32535 20.3391 7.43843 20.3391C6.90148 20.3391 6.44993 20.4921 6.09978 20.7982C5.74964 21.1042 5.5706 21.4869 5.5706 21.9545C5.5706 22.3967 5.72627 22.7963 6.03752 23.1451C6.34877 23.5022 6.88563 23.9869 7.64868 24.6331C8.41908 25.2454 9.05751 25.7895 9.55548 26.2482C10.0613 26.7074 10.4581 27.1495 10.7537 27.5578C11.0495 27.966 11.244 28.3741 11.3607 28.7989C11.4774 29.2325 11.5319 29.6916 11.5319 30.2022L11.5322 30.2028ZM24.8773 26.3174C24.8773 26.955 24.8151 27.6441 24.6906 28.3831C24.5738 29.1229 24.3638 29.8035 24.0681 30.4326C23.7724 31.0618 23.3911 31.5809 22.9161 31.9801C22.4414 32.3882 21.8343 32.5923 21.1109 32.5923C19.8969 32.5923 18.9398 32.0651 18.2395 31.0024C17.5392 29.9479 17.1891 28.4941 17.1891 26.6492C17.1891 24.7529 17.5393 23.2568 18.2552 22.1428C18.9634 21.0288 19.9283 20.4763 21.1423 20.4763C22.2943 20.4763 23.2043 21.0035 23.8732 22.041C24.5425 23.0864 24.8774 24.515 24.8774 26.3175L24.8773 26.3174ZM29.0948 26.1558C29.0948 24.9228 28.9313 23.8007 28.6123 22.7976C28.2855 21.7854 27.8342 20.9184 27.2349 20.1875C26.6357 19.4563 25.935 18.895 25.1183 18.4867C24.3016 18.0785 23.399 17.8746 22.4105 17.8746C21.3212 17.8746 20.3641 18.1041 19.5391 18.5463C18.7143 18.997 17.9437 19.7027 17.2434 20.6715L17.2201 18.2651H13.3371V42.9963H17.2126V32.5505C17.5939 33.0351 17.9596 33.4432 18.3176 33.7744C18.6677 34.106 19.0257 34.3781 19.3911 34.5821C19.7568 34.7862 20.1381 34.9392 20.5423 35.0243C20.947 35.1093 21.383 35.1518 21.8421 35.1518C22.8695 35.1518 23.834 34.9222 24.7209 34.4801C25.6078 34.0295 26.3783 33.4004 27.0241 32.5838C27.6699 31.7672 28.1761 30.8155 28.542 29.7358C28.9155 28.647 29.0944 27.4483 29.0944 26.1559L29.0948 26.1558ZM30.8224 34.7522H34.8061V10.5527H30.8224V34.7522ZM51.798 34.7607V18.2492H47.8143V27.134C47.8143 27.9248 47.7831 28.5373 47.7208 28.9708C47.6586 29.4044 47.5574 29.787 47.4174 30.1443C46.8571 31.5043 45.8219 32.1938 44.3206 32.1938C43.1454 32.1938 42.3287 31.7347 41.8613 30.8077C41.6746 30.459 41.5501 30.0594 41.48 29.6171C41.41 29.175 41.3711 28.5373 41.3711 27.6955V18.2501H37.3874V27.6324C37.3874 28.2701 37.3951 28.814 37.403 29.2475C37.4108 29.6811 37.4419 30.0808 37.4808 30.421C37.5197 30.7611 37.5663 31.0672 37.6208 31.3313C37.6675 31.5948 37.7454 31.8499 37.8465 32.088C38.2122 33.1002 38.7962 33.8653 39.6129 34.3836C40.43 34.9022 41.4339 35.1573 42.6164 35.1573C43.6825 35.1573 44.624 34.9532 45.4333 34.5451C46.2426 34.137 47.0287 33.4735 47.791 32.547L47.7987 34.7578L51.7981 34.7663L51.798 34.7607ZM68.9666 34.7522V25.3879C68.9666 24.7501 68.9588 24.2063 68.951 23.7556C68.9432 23.305 68.9199 22.9139 68.8732 22.5822C68.8343 22.2505 68.7799 21.9615 68.7254 21.7149C68.6631 21.4598 68.5931 21.2132 68.5153 20.9751C68.1495 19.9891 67.5656 19.2239 66.7489 18.6876C65.9321 18.1514 64.928 17.8799 63.7371 17.8799C62.671 17.8799 61.7296 18.084 60.9203 18.4921C60.111 18.9002 59.3248 19.5718 58.5626 20.4902L58.5548 18.2794H54.5472V34.7548H58.5623V25.861C58.5623 25.0957 58.5856 24.4919 58.6401 24.0665C58.6867 23.6414 58.788 23.2417 58.928 22.8588C59.1848 22.1955 59.5894 21.7024 60.1263 21.3626C60.6631 21.0229 61.3014 20.8525 62.0479 20.8525C63.2231 20.8525 64.0398 21.3116 64.5072 22.2387C64.6862 22.5873 64.8107 22.9869 64.8807 23.4203C64.9508 23.854 64.9896 24.5 64.9896 25.3337V34.7341L68.9659 34.7427L68.9666 34.7522ZM85.4498 33.6635L79.3809 25.4239L84.5084 19.4214L81.4892 18.0018L76.1511 24.7615H75.731V10.5572H71.7159V34.7567H75.731V25.9908L81.7379 35.0848L85.4491 33.6644L85.4498 33.6635ZM100.967 27.7456V25.0499L88.8934 18.4345V21.4015L98.2499 26.3757L88.8934 31.4175V34.3169L100.967 27.7447V27.7456ZM90.0661 14.1543C89.327 14.1543 88.7274 14.8174 88.7274 15.6342C88.7274 16.4674 89.327 17.1222 90.0661 17.1222C90.8134 17.1222 91.4047 16.4675 91.4047 15.6342C91.4047 14.8094 90.8134 14.1543 90.0661 14.1543ZM90.0743 14.3838C90.673 14.3838 91.1553 14.945 91.1553 15.642C91.1553 16.3392 90.673 16.9002 90.0743 16.8921C89.4674 16.8921 88.9843 16.3394 88.9843 15.6339C88.9843 14.9451 89.4674 14.3838 90.0743 14.3838ZM89.8175 15.7871H89.9802C90.1751 15.7871 90.2684 15.8636 90.3072 16.0763C90.3386 16.2973 90.3774 16.4419 90.4088 16.4929H90.6656C90.6417 16.4419 90.6028 16.3399 90.5723 16.0848C90.5409 15.8382 90.455 15.7107 90.3155 15.6852V15.6682C90.479 15.6172 90.6111 15.4812 90.6111 15.2685C90.6111 15.1155 90.564 14.9964 90.4707 14.9284C90.3774 14.8519 90.2296 14.8009 90.0041 14.8009C89.8249 14.8009 89.7002 14.8179 89.5764 14.8434V16.4927H89.8175V15.787V15.7871ZM89.8175 15.0218C89.8563 15.0133 89.9108 15.0048 89.9884 15.0048C90.261 15.0048 90.3543 15.1494 90.3543 15.294C90.3543 15.498 90.1825 15.5745 89.9884 15.5745H89.8175V15.0219V15.0218Z" fill="#0C1724"/>
</g>
<defs>
<clipPath id="clip0_1136_3678">
<rect width="100.336" height="48.6693" fill="white" transform="translate(0.855469 0.414062)"/>
</clipPath>
</defs>
</svg>
