<svg width="64" height="64" viewBox="0 0 64 64" fill="none" xmlns="http://www.w3.org/2000/svg">
<rect x="0.439453" y="0.380859" width="63.1746" height="63.1746" rx="5.57423" fill="#6FDA44"/>
<path d="M39.0536 33.2003C37.876 33.2003 36.7726 32.703 35.77 31.8933L36.0141 30.7503L36.0248 30.708C36.2421 29.491 36.9318 27.4483 39.0536 27.4483C40.6448 27.4483 41.9392 28.7395 41.9392 30.3269C41.9338 31.9091 40.6396 33.2003 39.0536 33.2003ZM39.0536 24.5327C36.3429 24.5327 34.2425 26.2895 33.3885 29.1787C32.0836 27.2261 31.0969 24.882 30.5188 22.9082H27.6014V30.4804C27.6014 31.9726 26.3813 33.1896 24.8855 33.1896C23.3896 33.1896 22.1697 31.9726 22.1697 30.4804V22.9082H19.252V30.4804C19.2414 33.5814 21.7716 36.1265 24.8799 36.1265C27.9884 36.1265 30.5187 33.5814 30.5187 30.4804V29.2105C31.0861 30.3905 31.781 31.581 32.6245 32.6394L30.8368 41.0211H33.8233L35.1175 34.9412C36.2526 35.6661 37.5576 36.1213 39.0534 36.1213C42.2519 36.1213 44.8564 33.5072 44.8564 30.3163C44.8564 27.1308 42.2519 24.5327 39.0534 24.5327H39.0536Z" fill="white"/>
</svg>
