<svg width="1010" height="330" viewBox="0 0 1010 330" fill="none" xmlns="http://www.w3.org/2000/svg">
<path d="M956.513 477.014H956.162C942.109 459.215 928.33 440.995 914.595 422.837C869.269 362.904 824.442 303.629 771.942 262.367C650.891 167.229 488.973 167.897 185.958 477.014H185.576C488.856 167.566 650.927 166.914 772.118 262.159C824.644 303.443 869.485 362.73 914.821 422.677C928.594 440.89 942.416 459.166 956.513 477.014ZM968.451 477.014H968.088C950.157 456.198 932.586 434.589 915.035 413.013C866.323 353.099 817.767 293.378 762.112 251.45C631.587 153.126 461.927 152.682 159.41 477.022H159.037C461.804 152.351 631.622 152.803 762.284 251.238C817.969 293.188 866.533 352.92 915.255 412.845C932.853 434.486 950.47 456.15 968.451 477.014ZM982.509 477.014H982.132C960.052 453.448 938.38 428.536 916.658 403.57C864.276 343.354 811.607 282.813 752.274 240.1C611.862 139.02 434.033 137.837 134.088 477.014H133.719C433.902 137.495 611.886 138.707 752.441 239.884C811.799 282.615 864.478 343.168 916.874 403.396C938.647 428.429 960.373 453.4 982.509 477.014ZM998.705 477.014H998.316C971.895 451.022 945.845 422.905 919.61 394.603C863.162 333.691 805.853 271.85 742.175 228.204C591.533 124.943 405.17 123.554 110.034 477.014H109.677C405.034 123.223 591.557 124.626 742.342 227.984C806.043 271.65 863.363 333.499 919.824 394.424C946.113 422.798 972.224 450.971 998.705 477.014ZM1009.49 470.085V470.458C981.053 444.159 952.735 415.359 924.06 386.19C863.03 324.117 800.374 260.386 731.512 215.62C570.398 110.881 375.226 110.027 87.2865 477.014H86.9352C375.077 109.694 570.404 110.57 731.666 215.395C800.557 260.18 863.224 323.921 924.262 385.999C952.871 415.104 981.122 443.838 1009.5 470.085H1009.49ZM1009.49 452.647V453.014C983.349 429.594 957.003 404.226 930.218 378.442C863.971 314.668 795.033 248.309 719.922 202.214C548.198 96.8332 344.128 97.4471 65.9137 477.014H65.5725C343.971 97.116 548.202 96.5103 720.071 201.987C795.207 248.097 864.155 314.466 930.416 378.244C957.133 403.97 983.414 429.267 1009.5 452.657L1009.49 452.647ZM1009.49 435.163V435.526C986.188 415.262 962.499 393.594 938.346 371.5C866.103 305.419 789.683 235.518 707 187.875C524.687 82.8256 311.845 86.0379 45.9743 477.014H45.6391C311.673 85.7168 524.675 82.5067 707.141 187.645C789.853 235.292 866.283 305.213 938.536 371.305C962.626 393.338 986.248 414.947 1009.5 435.163H1009.49ZM1009.49 417.638V417.995C989.679 401.256 969.442 383.594 948.774 365.556C869.651 296.508 784.206 221.931 692.308 172.525C499.565 68.9008 278.394 76.0177 27.533 477.014H27.2079C278.225 75.6926 499.549 68.5858 692.443 172.288C784.367 221.709 869.826 296.292 948.96 365.357C969.563 383.338 989.739 400.947 1009.5 417.638H1009.49ZM1009.49 400.073V400.426C993.975 387.676 978.116 374.414 961.928 360.875C874.971 288.143 778.52 207.473 675.391 156.128C472.577 55.1536 243.902 67.639 10.7109 477.014H10.3919C243.712 67.322 472.553 54.8387 675.518 155.888C778.676 207.249 875.14 287.929 962.109 360.671C978.235 374.155 994.031 387.369 1009.5 400.073H1009.49ZM1009.49 382.471V382.821C999.299 374.669 988.931 366.336 978.382 357.822C882.659 280.717 772.649 192.105 655.791 138.713C444.935 42.3694 211.776 60.7745 0.0103575 468.387V467.781C211.801 60.4393 445.006 42.1029 655.91 138.469C772.796 191.876 882.824 280.501 978.562 357.616C989.047 366.061 999.359 374.346 1009.5 382.471H1009.49ZM1009.49 364.838V365.183L998.948 356.964C893.731 274.868 766.766 175.811 633.069 120.366C418.856 31.5317 187.3 54.7216 0.000265116 438.96V438.322C187.345 54.3945 418.937 31.2652 633.18 120.114C766.919 175.577 893.89 274.646 999.123 356.756L1009.49 364.838ZM1009.49 347.174V347.517C896.925 261.913 754.636 156.104 606.831 101.249C391.261 21.243 163.951 49.6983 0.0103575 407.384V406.725C164.012 49.3773 391.336 20.9825 606.932 100.996C754.702 155.84 896.939 261.588 1009.5 347.174H1009.49ZM1009.49 329.479V329.821C890.771 241.693 735.286 133.312 576.748 81.6001C362.307 11.6508 142.265 45.4605 0.000265116 373.279V372.585C142.348 45.1233 362.39 11.3944 576.831 81.3437C735.34 133.054 890.781 241.363 1009.5 329.479H1009.49ZM1009.49 311.763V312.098C872.059 212.446 680.76 88.4606 495.145 50.1607C301.253 10.1528 113.578 63.6999 0.0103575 336.162V335.446C113.666 63.3608 301.326 9.89634 495.202 49.8962C680.796 88.1921 872.049 212.115 1009.5 311.763H1009.49ZM1009.49 294.02V294.353C869.429 195.072 668.916 73.2537 477.875 36.3872C284.837 -0.862801 101.486 48.6606 0.0103575 295.884V295.163C101.605 48.3255 284.932 -1.12119 477.942 36.1289C668.945 72.9832 869.414 194.743 1009.5 294.02H1009.49ZM1009.49 276.253V276.586C867.175 177.901 658.076 58.608 462.014 22.8702C385.574 8.93927 311.118 7.70569 243.381 25.3515C175.645 42.9973 114.638 79.5166 65.0718 141.087C40.3333 171.818 18.4476 208.787 0.0103575 252.765V252.05C18.4133 208.319 40.2222 171.525 64.8598 140.922C114.466 79.3026 175.532 42.751 243.319 25.0911C311.106 7.4311 385.596 8.66478 462.074 22.6058C658.101 58.3376 867.159 177.576 1009.5 276.253H1009.49ZM1009.49 258.464V258.793C857.718 155.777 625.306 32.1717 416.111 4.76006C344.354 -4.64028 275.33 -2.72633 213.232 15.2223C151.135 33.171 95.9762 67.1463 51.9161 121.866C32.2776 146.262 14.8498 174.782 -0.00175583 207.84V207.16C14.8034 174.321 32.1585 145.975 51.6961 121.699C95.7864 66.9322 151.001 32.9268 213.145 14.964C275.289 -2.99884 344.344 -4.9128 416.139 4.49359C625.323 31.9032 857.688 155.452 1009.5 258.464H1009.49ZM1009.49 240.653V240.982C899.196 167.657 743.992 84.885 586.128 34.1038C468.174 -3.83272 348.746 -23.9154 245.483 -8.83774C142.221 6.23994 55.1566 56.4619 1.86579 159.121C1.23991 160.332 0.618071 161.549 0.000265116 162.771V162.165C0.538658 161.11 1.07705 160.058 1.61544 159.01C54.9527 56.26 142.11 5.99368 245.439 -9.09613C348.768 -24.1859 468.22 -4.09715 586.213 33.8575C744.028 84.6145 899.188 167.346 1009.5 240.653H1009.49ZM1009.49 222.827V223.152C891.589 146.344 719.867 60.2737 548.565 11.7679C431.933 -21.2564 315.507 -36.8672 216.426 -20.2773C125.051 -4.97952 48.4294 37.7096 -0.0078125 119.381V118.84C48.4879 37.3544 125.078 -5.24593 216.382 -20.5417C315.513 -37.1396 431.976 -21.5269 548.644 11.5095C719.899 60.0012 891.589 146.032 1009.5 222.827H1009.49ZM1009.49 204.982V205.307C883.769 124.99 694.111 35.7957 509.216 -9.7241C394.504 -37.9675 281.633 -49.3969 187.022 -31.4603C109.338 -16.734 43.9715 17.8027 0.000265116 79.0825V78.61C44.0139 17.4654 109.348 -17.0105 186.969 -31.7268C281.623 -49.6714 394.536 -38.238 509.286 -9.98653C694.133 35.5231 883.743 124.679 1009.5 204.982H1009.49ZM1009.49 187.122V187.443C875.853 103.692 667.069 11.675 468.777 -30.1843C356.48 -53.8911 247.555 -61.5127 157.569 -42.4334C93.614 -28.8679 39.2309 -1.8137 0.0103575 42.531V42.1151C39.2652 -2.13877 93.62 -29.1547 157.521 -42.6959C247.549 -61.7853 356.512 -54.1637 468.846 -30.4488C667.079 11.4025 875.819 103.375 1009.5 187.122H1009.49ZM213.274 477.014C515.194 183.025 669.966 181.069 782.132 272.791C831.914 313.495 873.301 372.633 915.451 432.861C925.764 447.6 936.125 462.399 946.664 477.014H946.323C935.824 462.449 925.497 447.698 915.219 433.012C873.079 372.799 831.702 313.675 781.952 272.997C669.91 181.384 515.303 183.354 213.666 477.014H213.274Z" fill="white"/>
</svg>
