<svg width="1735" height="722" viewBox="0 0 1735 722" fill="none" xmlns="http://www.w3.org/2000/svg">
<path d="M480.001 553.523C479.289 554.026 478.556 554.547 477.829 555.064C477.057 555.667 476.306 556.238 475.537 556.848C477.021 555.746 478.499 554.654 480.001 553.53M488.449 547.255C487.094 548.173 485.738 549.086 484.38 549.995C482.849 551.204 481.382 552.303 479.859 553.498C481.222 552.531 482.586 551.568 483.953 550.594C485.473 549.449 486.932 548.393 488.449 547.248V547.255ZM492.721 544.401L490.436 545.939C489.62 546.556 488.837 547.12 488.022 547.723C489.563 546.613 491.119 545.518 492.703 544.383L492.721 544.401ZM495.288 542.171L490.482 545.232C488.869 546.517 487.278 547.73 485.69 549.007C487.242 547.962 488.794 546.92 490.357 545.86C491.998 544.59 493.597 543.431 495.27 542.154L495.288 542.171ZM500.721 538.715C499.225 539.671 497.744 540.609 496.26 541.569C494.939 542.582 493.64 543.556 492.344 544.551C493.7 543.641 495.053 542.735 496.413 541.808C497.837 540.719 499.233 539.767 500.703 538.697L500.721 538.715ZM505.064 535.95C504.024 536.617 503.003 537.263 501.977 537.915C501.372 538.354 500.753 538.822 500.151 539.26C501.76 538.158 503.376 537.084 505.053 535.932L505.064 535.95ZM500.792 537.887C499.215 538.829 497.623 539.785 496.05 540.719C494.448 542.007 492.803 543.363 491.212 544.644C492.873 543.595 494.534 542.539 496.196 541.476C497.691 540.288 499.257 539.046 500.781 537.869L500.792 537.887ZM506.032 534.762C504.532 535.661 503.038 536.553 501.55 537.437C500.098 538.558 498.606 539.738 497.161 540.848C498.745 539.842 500.318 538.847 501.913 537.823C503.273 536.813 504.658 535.75 506.022 534.744L506.032 534.762ZM510.934 531.836C509.592 532.646 508.275 533.428 506.947 534.216C505.694 535.136 504.412 536.114 503.17 537.024C504.594 536.114 506.018 535.222 507.474 534.284C508.613 533.481 509.777 532.618 510.924 531.819L510.934 531.836ZM514.915 529.46C513.971 530.035 513.053 530.577 512.127 531.126C511.205 531.769 510.258 532.454 509.343 533.096C511.18 531.892 513.034 530.675 514.904 529.443L514.915 529.46ZM7.71172 400.035C7.71172 400.124 7.82564 402.201 8.18521 405.889C7.72952 398.965 7.6334 394.388 7.61204 392.889C7.61204 394.948 7.6334 397.295 7.69392 400.024L7.71172 400.035ZM506.637 533.32C505.078 534.184 503.497 535.072 501.942 535.925C500.162 537.352 498.382 538.811 496.627 540.227C498.236 539.271 499.859 538.297 501.475 537.334C503.184 536.014 504.918 534.658 506.637 533.32ZM511.76 530.466L507.253 532.964C505.58 534.262 503.896 535.579 502.234 536.863C503.779 535.943 505.32 535.026 506.862 534.091C508.492 532.917 510.133 531.697 511.76 530.481V530.466ZM516.663 527.748C515.256 528.536 513.868 529.3 512.472 530.074C510.91 531.23 509.34 532.407 507.787 533.549C509.211 532.703 510.635 531.872 512.059 531.005C513.597 529.949 515.132 528.843 516.663 527.773V527.748ZM521.102 525.286C519.895 525.971 518.717 526.61 517.542 527.27C516.118 528.272 514.694 529.296 513.27 530.292C514.395 529.621 515.513 528.968 516.666 528.265C518.119 527.306 519.621 526.285 521.102 525.301V525.286ZM524.306 523.503C523.594 523.902 522.925 524.277 522.245 524.651C521.052 525.447 519.845 526.26 518.656 527.049C520.511 525.914 522.419 524.691 524.278 523.528L524.306 523.503ZM9.24967 417.459C9.49531 418.814 9.77656 420.277 10.1005 421.875C9.53803 418.201 9.10727 414.954 8.76194 412.111C8.90434 413.799 9.06454 415.586 9.24967 417.459ZM8.025 410.063C8.22793 411.49 8.53765 413.513 9.01114 416.167C8.77618 413.67 8.59106 411.401 8.43085 409.261C8.07485 406.05 7.86836 403.66 7.74732 402.094C7.8114 404.552 7.89684 407.192 8.025 410.063ZM512.697 528.615C511.155 529.393 509.592 530.206 508.069 530.98C506.178 532.521 504.316 534.016 502.437 535.536C504.017 534.669 505.616 533.752 507.204 532.892C509.026 531.465 510.849 530.06 512.697 528.615ZM517.716 526.057L513.209 528.355C511.394 529.782 509.607 531.151 507.802 532.553L512.43 529.999C514.178 528.686 515.936 527.388 517.716 526.057ZM522.59 523.56C521.166 524.298 519.742 525.019 518.29 525.75C516.556 527.045 514.843 528.308 513.12 529.589C514.569 528.786 516.008 527.998 517.467 527.181C519.176 525.989 520.874 524.794 522.59 523.574V523.56ZM527.218 521.209C525.89 521.901 524.591 522.55 523.277 523.217C521.625 524.395 519.991 525.54 518.35 526.699C519.628 525.986 520.896 525.308 522.195 524.559L527.218 521.209ZM531.633 518.915C530.427 519.55 529.226 520.177 528.03 520.795C526.456 521.865 524.893 522.896 523.323 523.942C524.591 523.228 525.88 522.461 527.151 521.73C528.632 520.809 530.12 519.876 531.615 518.929L531.633 518.915ZM535.83 516.66C534.904 517.149 533.972 517.656 533.039 518.159C532.042 518.79 531.049 519.407 530.056 520.032L535.83 516.66ZM11.7346 430.98C12.1096 432.221 12.5142 433.521 12.9486 434.879C12.1654 431.757 11.4818 428.85 10.898 426.178C11.1543 427.715 11.4355 429.331 11.7346 430.98ZM10.0934 425.293C10.4921 426.759 10.9549 428.375 11.4747 430.116C11.1187 428.058 10.7805 426.106 10.4743 424.208C10.0578 422.239 9.69468 420.42 9.38139 418.764C9.59262 420.848 9.82996 423.024 10.0934 425.293ZM8.51629 419.114C8.8723 420.563 9.31019 422.382 9.90472 424.583C9.61635 422.086 9.36715 419.731 9.14287 417.47C8.66582 414.872 8.31693 412.735 8.07485 411.13C8.19233 413.645 8.34185 416.324 8.51629 419.114ZM518.881 523.81C517.36 524.505 515.819 525.237 514.306 525.922C512.326 527.548 510.422 529.05 508.453 530.656C510.009 529.874 511.582 529.057 513.142 528.265C515.071 526.76 516.94 525.34 518.881 523.81ZM523.793 521.544L519.315 523.61C517.4 525.122 515.555 526.517 513.654 528.005C515.178 527.234 516.703 526.458 518.229 525.675C520.095 524.277 521.914 522.961 523.793 521.544ZM528.607 519.318C527.158 519.996 525.716 520.656 524.267 521.323C522.423 522.718 520.636 524.009 518.802 525.383C520.269 524.637 521.725 523.902 523.199 523.142C525.011 521.851 526.77 520.638 528.607 519.318ZM533.263 517.178C531.878 517.83 530.518 518.444 529.144 519.079C527.364 520.36 525.638 521.548 523.865 522.811C525.228 522.097 526.574 521.444 527.955 520.727C529.732 519.525 531.476 518.383 533.263 517.17V517.178ZM537.941 514.966C536.584 515.615 535.233 516.256 533.89 516.889C532.163 518.062 530.483 519.158 528.767 520.313C530.159 519.6 531.565 518.829 532.961 518.094C534.627 517.035 536.264 516.025 537.941 514.959V514.966ZM542.826 512.583C541.508 513.218 540.17 513.881 538.845 514.523C537.336 515.487 535.866 516.389 534.367 517.338C535.716 516.625 537.072 515.875 538.418 515.158C539.892 514.284 541.345 513.45 542.826 512.576V512.583ZM546.945 510.571L544.118 511.951C543.096 512.554 542.103 513.121 541.088 513.735C543.036 512.668 544.979 511.63 546.945 510.563V510.571ZM14.9921 442.228C15.4691 443.298 15.9889 444.429 16.5193 445.571C15.5367 442.909 14.6479 440.385 13.8528 437.997C14.2136 439.372 14.5933 440.782 14.9921 442.228ZM12.9771 437.515C13.5111 438.796 14.0807 440.13 14.7037 441.547C14.2231 439.791 13.7638 438.083 13.3437 436.441C12.8133 434.829 12.3362 433.309 11.8912 431.85C12.2223 433.691 12.589 435.585 12.9771 437.515ZM11.0226 432.663C11.5388 434.001 12.1262 435.468 12.7706 437.034C12.36 434.953 11.9791 432.942 11.6278 431.001C11.0867 429.217 10.5954 427.516 10.1753 426.007C10.4316 428.145 10.714 430.364 11.0226 432.663ZM9.13575 427.498C9.59499 428.818 10.1646 430.402 10.8731 432.25C10.5479 429.852 10.256 427.539 9.99728 425.311C9.39563 423.106 8.92926 421.262 8.57326 419.753C8.72752 422.236 8.91502 424.817 9.13575 427.498ZM524.99 519.001C523.487 519.607 521.96 520.256 520.461 520.856C518.5 522.486 516.577 524.045 514.63 525.647C516.154 524.955 517.706 524.22 519.237 523.506C521.177 522.001 523.064 520.545 524.99 519.001ZM529.803 517.024C528.315 517.634 526.819 518.255 525.335 518.858C523.427 520.378 521.565 521.826 519.671 523.321L524.196 521.234C526.09 519.814 527.923 518.469 529.817 517.024H529.803ZM534.559 515.073C533.092 515.679 531.636 516.275 530.173 516.857C528.318 518.284 526.513 519.603 524.673 520.995C526.14 520.317 527.599 519.65 529.073 518.965C530.928 517.659 532.719 516.418 534.573 515.073H534.559ZM539.23 513.146C537.806 513.746 536.382 514.309 534.958 514.894C533.149 516.207 531.398 517.434 529.618 518.722C531.02 518.073 532.405 517.452 533.826 516.782C535.67 515.554 537.414 514.413 539.23 513.146ZM543.975 511.148L539.682 512.961C537.902 514.174 536.2 515.297 534.442 516.493C535.866 515.811 537.329 515.108 538.774 514.416C540.54 513.314 542.227 512.294 543.99 511.159L543.975 511.148ZM548.91 509.008C547.461 509.632 545.994 510.282 544.545 510.906C542.904 511.976 541.312 512.939 539.678 513.981C541.131 513.268 542.594 512.554 544.047 511.841C545.695 510.881 547.276 510 548.924 509.012L548.91 509.008ZM553.645 506.95L549.615 508.701C548.169 509.568 546.767 510.367 545.343 511.22C546.667 510.575 547.994 509.927 549.323 509.276C550.786 508.484 552.196 507.759 553.659 506.953L553.645 506.95ZM557.675 505.194C556.664 505.64 555.663 506.068 554.663 506.504C553.687 507.046 552.733 507.549 551.758 508.084C553.737 507.135 555.695 506.197 557.689 505.198L557.675 505.194ZM18.9295 451.593C19.524 452.545 20.1292 453.501 20.7772 454.497C19.5917 452.206 18.5165 450.016 17.509 447.911C17.9718 449.124 18.4311 450.337 18.9295 451.593ZM16.6119 447.797C17.2563 448.867 17.9327 449.984 18.6554 451.14C18.0644 449.638 17.4877 448.154 16.9537 446.723C16.3271 445.396 15.7432 444.119 15.1736 442.881C15.6222 444.479 16.0992 446.124 16.6119 447.797ZM14.3156 443.873C14.9636 445.014 15.6507 446.206 16.4018 447.465C15.8785 445.681 15.373 443.958 14.9066 442.274C14.248 440.794 13.6535 439.42 13.0945 438.072C13.4577 439.938 13.8706 441.878 14.3014 443.858L14.3156 443.873ZM12.0586 439.752C12.6816 440.929 13.3687 442.189 14.1376 443.555C13.6938 441.507 13.2773 439.513 12.8881 437.572C12.2223 435.971 11.6278 434.486 11.108 433.117C11.3857 435.259 11.6978 437.467 12.0443 439.738L12.0586 439.752ZM9.84776 435.428C10.4174 436.584 11.0938 437.926 11.9055 439.46C11.5518 437.136 11.2279 434.876 10.9336 432.681C10.2216 430.833 9.64484 429.246 9.15355 427.901C9.36003 430.341 9.58075 432.845 9.84776 435.428ZM530.892 514.217C529.433 514.73 527.948 515.287 526.496 515.776C524.594 517.367 522.633 519.05 520.742 520.62C522.248 520.014 523.783 519.364 525.292 518.751C527.126 517.299 529.041 515.718 530.892 514.217ZM535.559 512.558C534.107 513.075 532.647 513.599 531.195 514.109C529.358 515.586 527.464 517.156 525.638 518.612L530.13 516.767C531.914 515.422 533.765 513.953 535.559 512.572V512.558ZM540.188 510.917C538.763 511.43 537.33 511.939 535.887 512.443C534.107 513.813 532.273 515.265 530.508 516.614L534.929 514.802C536.652 513.56 538.447 512.201 540.184 510.931L540.188 510.917ZM544.752 509.293C543.328 509.807 541.943 510.292 540.536 510.792C538.813 512.051 537.044 513.392 535.332 514.634C536.756 514.042 538.18 513.474 539.646 512.85C541.32 511.719 543.061 510.474 544.748 509.308L544.752 509.293ZM549.33 507.631C547.924 508.152 546.528 508.655 545.129 509.158C543.466 510.31 541.754 511.544 540.099 512.679C541.562 512.062 543.039 511.43 544.513 510.802C546.094 509.796 547.735 508.68 549.326 507.645L549.33 507.631ZM554.075 505.847C552.651 506.379 551.227 506.939 549.803 507.467C548.247 508.476 546.649 509.561 545.1 510.56C546.596 509.918 548.105 509.251 549.597 508.605C551.053 507.724 552.587 506.753 554.072 505.854L554.075 505.847ZM558.728 504.088C557.354 504.609 555.976 505.134 554.606 505.647C553.182 506.514 551.704 507.431 550.28 508.298C551.728 507.675 553.179 507.045 554.634 506.407C555.962 505.655 557.386 504.852 558.725 504.096L558.728 504.088ZM563.168 502.412C561.9 502.897 560.64 503.368 559.38 503.839C558.12 504.552 556.824 505.301 555.567 505.979C556.923 505.391 558.273 504.809 559.64 504.195C560.797 503.653 562.014 503.011 563.164 502.419L563.168 502.412ZM566.934 500.985C565.962 501.363 565.005 501.698 564.044 502.076C563.086 502.565 562.1 503.086 561.146 503.571C563.066 502.729 564.994 501.871 566.931 500.995L566.934 500.985ZM23.5184 459.438C24.2126 460.23 24.8997 461.022 25.6545 461.842C24.2874 459.908 23.0165 458.046 21.8203 456.241C22.365 457.297 22.9239 458.353 23.5184 459.438ZM20.884 456.373C21.6316 457.258 22.4041 458.157 23.2194 459.095C22.5252 457.821 21.8452 456.559 21.2079 455.331C20.4959 454.233 19.8053 453.169 19.1431 452.121C19.6949 453.512 20.2788 454.932 20.884 456.373ZM18.2709 453.212C19.0256 454.142 19.8219 455.108 20.6597 456.109C20.0296 454.593 19.4101 453.095 18.8334 451.635C18.0822 450.444 17.3809 449.295 16.6973 448.186C17.2029 449.827 17.7297 451.514 18.2709 453.212ZM15.6934 449.959C16.4374 450.918 17.242 451.935 18.0929 452.991C17.5375 451.243 16.9999 449.516 16.5015 447.836C15.7432 446.573 15.0312 445.339 14.3655 444.208C14.7891 446.077 15.2341 448.011 15.6934 449.962V449.959ZM13.1479 446.57C13.86 447.565 14.6539 448.61 15.5403 449.762C15.0668 447.765 14.6182 445.803 14.2017 443.89C13.4149 442.506 12.7279 441.24 12.0906 440.048C12.4158 442.165 12.7682 444.34 13.1479 446.573V446.57ZM10.6381 443.041C11.3038 444.015 12.1013 445.139 13.0055 446.377C12.6258 444.127 12.2698 441.924 11.9375 439.766C11.1258 438.236 10.4387 436.891 9.862 435.724C10.0898 438.107 10.3485 440.548 10.6381 443.045V443.041ZM8.17097 439.299C8.61598 440.013 9.38851 441.233 10.5099 442.867C10.2251 440.341 9.96406 437.873 9.72672 435.464C8.54477 433.056 7.89328 431.54 7.69392 431.069C7.82683 433.737 7.98584 436.481 8.17097 439.299ZM536.923 509.368C535.499 509.782 534.075 510.214 532.651 510.617C530.672 512.283 528.674 513.978 526.709 515.611C528.169 515.105 529.668 514.541 531.134 514.038C533.053 512.493 534.997 510.909 536.923 509.35V509.368ZM541.448 508.027C540.024 508.444 538.6 508.876 537.176 509.286C535.26 510.838 533.327 512.415 531.426 513.924C532.882 513.41 534.353 512.882 535.809 512.365C537.688 510.934 539.586 509.457 541.448 508.009V508.027ZM545.948 506.693L541.733 507.941C539.874 509.368 537.998 510.849 536.15 512.269C537.593 511.757 539.036 511.245 540.479 510.731C542.288 509.39 544.125 508.016 545.948 506.675V506.693ZM550.398 505.373C549.006 505.794 547.632 506.193 546.247 506.603C544.442 507.934 542.619 509.293 540.828 510.606C542.252 510.1 543.648 509.614 545.076 509.097C546.838 507.859 548.628 506.593 550.398 505.355V505.373ZM554.851 504.031C553.467 504.459 552.096 504.863 550.722 505.276C548.97 506.5 547.197 507.756 545.456 508.962C546.88 508.444 548.305 507.927 549.729 507.399C551.427 506.279 553.146 505.13 554.851 504.013V504.031ZM559.437 502.583C558.038 503.018 556.617 503.482 555.222 503.914C553.549 505.012 551.854 506.143 550.188 507.228C551.637 506.686 553.104 506.118 554.552 505.576C556.169 504.584 557.813 503.557 559.437 502.565V502.583ZM563.958 501.156C562.591 501.591 561.223 502.024 559.853 502.454C558.269 503.425 556.649 504.424 555.083 505.38L559.33 503.778C560.861 502.9 562.42 502.001 563.958 501.134V501.156ZM568.369 499.765L564.453 501.003C562.965 501.841 561.463 502.704 559.982 503.532C561.32 503.025 562.655 502.529 564.001 502.012C565.443 501.259 566.917 500.485 568.369 499.743V499.765ZM572.513 498.455C571.32 498.841 570.149 499.201 568.953 499.572C567.589 500.285 566.212 500.999 564.855 501.684C566.005 501.249 567.144 500.831 568.309 500.378C569.708 499.732 571.121 499.069 572.513 498.434V498.455ZM576.134 497.278L573.328 498.198C572.185 498.719 571.036 499.269 569.896 499.772C571.983 498.937 574.065 498.077 576.134 497.257V497.278ZM28.7161 465.88C29.4851 466.501 30.2612 467.126 31.0729 467.768C29.5349 466.181 28.0801 464.635 26.7082 463.13C27.3419 464.036 28.0041 464.956 28.7161 465.88ZM25.7933 463.472C26.6406 464.186 27.495 464.899 28.3993 465.613C27.6196 464.543 26.8435 463.501 26.1101 462.474C25.2913 461.571 24.5117 460.69 23.7498 459.826C24.3835 461.029 25.0813 462.252 25.7755 463.472H25.7933ZM22.8954 461.011C23.7498 461.749 24.6363 462.502 25.5655 463.283C24.8534 462.006 24.1414 460.736 23.4472 459.498C22.5999 458.535 21.7989 457.6 21.0299 456.687C21.596 458.103 22.2368 459.552 22.8776 461.011H22.8954ZM20.0224 458.478C20.8745 459.241 21.7704 460.031 22.7103 460.847C22.0552 459.356 21.4109 457.875 20.8056 456.427C19.9512 455.411 19.1407 454.431 18.3741 453.487C18.8797 455.121 19.4315 456.78 20.0046 458.478H20.0224ZM17.1744 455.874C18.011 456.655 18.9117 457.475 19.8658 458.335C19.2855 456.619 18.7266 454.925 18.1997 453.266C17.3346 452.196 16.5229 451.175 15.7717 450.205C16.1918 452.06 16.6653 453.954 17.153 455.874H17.1744ZM14.3477 453.18C15.1665 453.976 16.0601 454.832 17.0284 455.738C16.5371 453.797 16.0601 451.885 15.6044 450.009C14.7179 448.86 13.9276 447.804 13.1942 446.798C13.5455 448.891 13.9229 451.018 14.3263 453.18H14.3477ZM11.5281 450.358C12.3006 451.154 13.1835 452.042 14.1946 453.034C13.7888 450.851 13.4055 448.71 13.0447 446.612C12.144 445.382 11.3359 444.247 10.663 443.273C10.9312 445.597 11.2196 447.959 11.5281 450.358ZM8.77974 447.422C9.39563 448.104 10.2572 449.042 11.4213 450.248C11.108 447.815 10.8185 445.426 10.5527 443.081C9.44903 441.475 8.6765 440.269 8.20301 439.513C8.35016 442.098 8.5424 444.735 8.77974 447.422ZM543.082 504.377C541.701 504.695 540.312 505.02 538.942 505.323C536.902 507.053 534.894 508.73 532.872 510.435C534.296 510.028 535.72 509.589 537.144 509.176C539.112 507.577 541.074 506.011 543.064 504.377H543.082ZM547.468 503.357C546.09 503.675 544.698 504.006 543.32 504.324C541.341 505.936 539.404 507.506 537.425 509.097C538.849 508.68 540.273 508.248 541.697 507.827C543.602 506.339 545.513 504.866 547.45 503.357H547.468ZM551.836 502.34L547.717 503.3C545.795 504.802 543.894 506.265 541.982 507.745L546.215 506.489C548.07 505.109 549.931 503.739 551.818 502.34H551.836ZM556.172 501.327C554.809 501.652 553.456 501.962 552.1 502.28C550.227 503.671 548.376 505.03 546.514 506.4C547.909 505.986 549.291 505.587 550.693 505.162C552.502 503.889 554.321 502.622 556.154 501.327H556.172ZM560.501 500.307C559.145 500.635 557.803 500.945 556.453 501.263C554.631 502.547 552.826 503.803 551.017 505.066C552.406 504.645 553.794 504.231 555.193 503.799C556.941 502.64 558.707 501.484 560.483 500.303L560.501 500.307ZM564.934 499.204C563.566 499.54 562.182 499.897 560.815 500.228C559.056 501.395 557.315 502.537 555.567 503.682C556.991 503.243 558.415 502.776 559.839 502.337C561.527 501.3 563.219 500.256 564.916 499.204H564.934ZM569.33 498.109C567.981 498.445 566.625 498.787 565.279 499.119C563.595 500.157 561.922 501.177 560.249 502.201C561.637 501.77 563.033 501.324 564.424 500.885L569.33 498.109ZM573.659 497.039C572.342 497.374 571.028 497.695 569.715 498.024C568.109 498.937 566.511 499.836 564.916 500.738C566.258 500.318 567.596 499.897 568.949 499.465C570.497 498.656 572.061 497.844 573.642 497.028L573.659 497.039ZM577.871 495.994C576.607 496.315 575.379 496.615 574.111 496.928C572.588 497.718 571.068 498.499 569.551 499.272C570.804 498.88 572.043 498.498 573.307 498.088C574.812 497.389 576.327 496.687 577.853 495.983L577.871 495.994ZM582.043 494.923L578.426 495.865L574.119 497.806C575.368 497.396 576.639 496.961 577.885 496.55C579.262 496.01 580.642 495.461 582.025 494.902L582.043 494.923ZM585.867 493.882C584.881 494.139 583.884 494.406 582.898 494.67L579.665 495.962L585.867 493.882ZM34.4122 471.021C35.231 471.478 36.0855 471.942 36.9434 472.409C35.2773 471.168 33.6753 469.951 32.1551 468.767C32.8921 469.509 33.6575 470.265 34.4122 471.021ZM31.2082 469.238C32.1445 469.773 33.0772 470.308 34.0562 470.857C33.2054 470.008 32.3688 469.17 31.5642 468.36C30.6421 467.646 29.7841 466.933 28.9084 466.219C29.6773 467.197 30.4463 468.196 31.226 469.223L31.2082 469.238ZM28.0433 467.404C28.9902 467.96 29.9586 468.524 30.9732 469.105C30.1615 468.035 29.3676 466.997 28.6058 465.966C27.6659 465.21 26.7759 464.471 25.9037 463.747C26.6086 464.935 27.3277 466.155 28.0611 467.39L28.0433 467.404ZM24.8962 465.531C25.8431 466.102 26.8257 466.69 27.8546 467.293C27.1046 466.03 26.3783 464.784 25.6758 463.554C24.7288 462.766 23.8281 461.999 22.9559 461.246C23.592 462.647 24.2447 464.071 24.914 465.517L24.8962 465.531ZM21.7633 463.604C22.7067 464.193 23.6929 464.8 24.7324 465.431C24.056 463.961 23.4009 462.516 22.7708 461.086C21.8215 460.263 20.9148 459.466 20.0509 458.696C20.6063 460.299 21.183 461.93 21.7811 463.59L21.7633 463.604ZM18.6518 461.628C19.5798 462.227 20.5683 462.856 21.6173 463.515C21.0193 461.836 20.4437 460.181 19.8907 458.549C18.9295 457.689 18.0288 456.862 17.1815 456.077C17.6609 457.889 18.157 459.735 18.6696 461.614L18.6518 461.628ZM15.5545 459.591C16.4588 460.197 17.4556 460.854 18.5165 461.539C17.9968 459.636 17.5043 457.77 17.0391 455.941C16.0672 455.035 15.1629 454.158 14.3441 453.376C14.7429 455.406 15.1487 457.472 15.5723 459.577L15.5545 459.591ZM12.4822 457.475C13.3544 458.089 14.3121 458.753 15.4299 459.505C15.0004 457.386 14.5933 455.299 14.2088 453.244C13.1907 452.249 12.3149 451.364 11.5352 450.562C11.8485 452.82 12.1582 455.117 12.5 457.461L12.4822 457.475ZM9.42767 455.264C10.1717 455.82 11.1436 456.53 12.3576 457.404C12.0016 455.05 11.7061 452.738 11.4106 450.455C10.2643 449.27 9.38851 448.314 8.75838 447.629C8.9791 450.112 9.19983 452.656 9.44547 455.249L9.42767 455.264ZM549.273 499.351C547.931 499.568 546.585 499.786 545.25 499.996C543.16 501.78 541.149 503.436 539.077 505.191C540.455 504.884 541.85 504.556 543.235 504.238C545.282 502.572 547.247 501.017 549.291 499.337L549.273 499.351ZM553.52 498.637C552.178 498.855 550.825 499.083 549.486 499.297C547.454 500.97 545.492 502.508 543.474 504.167C544.855 503.849 546.25 503.518 547.635 503.197C549.625 501.659 551.548 500.203 553.538 498.641L553.52 498.637ZM557.753 497.942L553.741 498.598C551.761 500.157 549.85 501.605 547.884 503.139L552.014 502.176C553.958 500.749 555.834 499.397 557.771 497.945L557.753 497.942ZM561.968 497.228C560.637 497.453 559.312 497.667 557.984 497.884C556.058 499.311 554.193 500.674 552.288 502.098C553.655 501.78 555.012 501.47 556.382 501.145C558.266 499.843 560.099 498.591 561.986 497.249L561.968 497.228ZM566.176 496.515C564.848 496.743 563.534 496.953 562.214 497.175C560.338 498.509 558.515 499.75 556.653 501.063C558.013 500.742 559.366 500.428 560.736 500.096C562.577 498.923 564.36 497.777 566.194 496.55L566.176 496.515ZM570.448 495.762C569.117 495.99 567.764 496.24 566.436 496.475C564.617 497.692 562.847 498.826 561.039 500.043C562.417 499.708 563.816 499.329 565.193 499.008C566.977 497.934 568.704 496.9 570.473 495.798L570.448 495.762ZM574.72 495.009C573.399 495.241 572.072 495.48 570.751 495.723C569.003 496.818 567.294 497.838 565.553 498.912C566.917 498.577 568.287 498.231 569.651 497.892C571.356 496.946 573.022 496.022 574.727 495.045L574.72 495.009ZM578.942 494.263L575.026 494.956C573.342 495.922 571.701 496.829 570.042 497.781C571.377 497.449 572.709 497.121 574.051 496.782C575.692 495.969 577.323 495.159 578.95 494.299L578.942 494.263ZM583.108 493.529C581.826 493.76 580.569 493.975 579.298 494.203C577.682 495.045 576.094 495.837 574.499 496.668C575.788 496.347 577.066 496.04 578.366 495.705C579.957 495.009 581.52 494.31 583.115 493.564L583.108 493.529ZM587.291 492.812C586.034 493.043 584.77 493.282 583.517 493.525C581.972 494.239 580.455 494.923 578.918 495.637C580.217 495.298 581.531 494.945 582.834 494.61C584.332 493.978 585.806 493.4 587.291 492.812ZM591.442 492.027L587.836 492.708C586.44 493.275 585.073 493.81 583.684 494.367L587.408 493.382C588.765 492.908 590.1 492.473 591.453 492.009L591.442 492.027ZM595.137 491.313L592.207 491.866C591.139 492.223 590.071 492.58 589.003 492.936C591.057 492.401 593.097 491.866 595.148 491.313H595.137ZM40.6067 474.953C41.479 475.259 42.3868 475.573 43.2982 475.887C41.5502 474.988 39.8556 474.104 38.2393 473.233C39.0118 473.8 39.7986 474.375 40.6067 474.953ZM37.1784 473.729C38.1717 474.086 39.197 474.442 40.2401 474.824C39.3251 474.161 38.4422 473.511 37.57 472.869C36.5827 472.334 35.6215 471.807 34.6864 471.289C35.498 472.095 36.324 472.908 37.1784 473.729ZM33.7643 472.48C34.8003 472.862 35.8398 473.247 36.9363 473.643C36.0499 472.787 35.199 471.945 34.3553 471.11C33.33 470.54 32.3581 469.987 31.3897 469.437C32.1658 470.443 32.949 471.453 33.7643 472.477V472.48ZM30.3644 471.203C31.4004 471.599 32.4649 471.999 33.5685 472.409C32.7354 471.36 31.938 470.329 31.1512 469.305C30.1188 468.717 29.1326 468.142 28.1679 467.579C28.8834 468.777 29.6061 469.98 30.3644 471.203ZM26.9752 469.901C28.0077 470.305 29.0828 470.719 30.2007 471.143C29.4317 469.901 28.7019 468.681 27.9827 467.468C26.9432 466.858 25.9499 466.266 24.9923 465.684C25.6367 467.079 26.2882 468.478 26.9752 469.901ZM23.5967 468.553C24.6268 468.964 25.7043 469.39 26.8293 469.83C26.1173 468.403 25.4765 466.976 24.8285 465.574C23.7819 464.942 22.7886 464.329 21.8381 463.736C22.4077 465.342 22.9844 466.936 23.5967 468.553ZM20.2289 467.179C21.2471 467.6 22.3246 468.039 23.4615 468.495C22.8456 466.854 22.2653 465.249 21.6814 463.647C20.6134 462.987 19.6344 462.356 18.6981 461.753C19.2001 463.558 19.6985 465.342 20.2289 467.193V467.179ZM16.8753 465.752C17.8722 466.178 18.9485 466.63 20.1043 467.108C19.5667 465.26 19.0648 463.451 18.5735 461.646C17.5055 460.957 16.5122 460.301 15.6044 459.691C16.0102 461.724 16.4268 463.733 16.8753 465.784V465.752ZM13.536 464.296C14.4936 464.721 15.5617 465.188 16.7401 465.699C16.2879 463.637 15.8714 461.617 15.462 459.605C14.3477 458.856 13.3829 458.178 12.5071 457.572C12.8418 459.823 13.1693 462.053 13.536 464.329V464.296ZM10.2038 462.812C11.0617 463.212 12.1226 463.701 13.4078 464.275C13.0518 461.988 12.6958 459.748 12.3932 457.518C11.1757 456.662 10.2073 455.956 9.45259 455.378C9.69468 457.85 9.9332 460.301 10.2038 462.812ZM555.496 494.239L551.58 494.595C549.508 496.379 547.475 498.099 545.421 499.857C546.756 499.647 548.109 499.426 549.454 499.208C551.473 497.546 553.47 495.933 555.496 494.239ZM559.601 493.882L555.685 494.239C553.666 495.912 551.679 497.528 549.675 499.176L553.716 498.509C555.681 496.953 557.618 495.451 559.601 493.882ZM563.702 493.525L559.786 493.882C557.817 495.441 555.87 496.946 553.929 498.484L557.949 497.824C559.878 496.379 561.769 494.97 563.702 493.525ZM567.789 493.168L563.898 493.525C561.979 494.977 560.095 496.379 558.201 497.806C559.533 497.588 560.861 497.374 562.199 497.15C564.061 495.78 565.905 494.492 567.789 493.14V493.168ZM571.876 492.812C570.573 492.933 569.291 493.043 567.995 493.168C566.126 494.51 564.289 495.794 562.431 497.117C563.762 496.893 565.083 496.679 566.418 496.45C568.244 495.184 570.039 494.01 571.876 492.772V492.812ZM575.995 492.408L572.079 492.79C570.259 494.014 568.476 495.188 566.671 496.397C568.009 496.165 569.366 495.919 570.704 495.683C572.484 494.545 574.222 493.486 575.995 492.369V492.408ZM580.107 492.005L576.226 492.387C574.475 493.489 572.751 494.527 571.007 495.633L575.005 494.92C576.71 493.907 578.391 492.965 580.107 491.966V492.005ZM584.201 491.606L580.356 491.984C578.665 492.965 577.002 493.903 575.322 494.87L579.27 494.156C580.918 493.272 582.542 492.455 584.201 491.566V491.606ZM588.27 491.21C586.999 491.338 585.739 491.456 584.475 491.566C582.844 492.43 581.242 493.25 579.622 494.099C580.915 493.867 582.196 493.65 583.496 493.414C585.091 492.644 586.664 491.93 588.27 491.171V491.21ZM592.357 490.792L588.576 491.181C587.01 491.92 585.468 492.608 583.909 493.357L587.825 492.644C589.334 491.97 590.83 491.385 592.357 490.753V490.792ZM596.437 490.364C595.201 490.493 593.945 490.628 592.72 490.753C591.257 491.356 589.815 491.93 588.359 492.537L592.189 491.823C593.61 491.277 595.009 490.817 596.437 490.314V490.364ZM600.42 489.947L596.889 490.304C595.572 490.757 594.268 491.195 592.973 491.641L596.583 490.964C597.854 490.589 599.124 490.261 600.42 489.908V489.947ZM604.034 489.565L601.047 489.879L598.003 490.707C600.011 490.289 602.008 489.922 604.023 489.526L604.034 489.565ZM47.2392 477.817L50.1477 478.36C48.268 477.739 46.4524 477.128 44.7008 476.526C45.5481 476.915 46.3812 477.343 47.2498 477.778L47.2392 477.817ZM43.6008 477.132C44.6688 477.336 45.7689 477.543 46.8689 477.75C45.8828 477.254 44.9251 476.765 43.9746 476.276C42.9422 475.919 41.8991 475.563 40.9129 475.206C41.8065 475.812 42.6894 476.447 43.6114 477.093L43.6008 477.132ZM39.9624 476.419C41.066 476.637 42.191 476.854 43.3551 477.075C42.3939 476.405 41.4647 475.741 40.5498 475.081C39.4533 474.696 38.4137 474.318 37.3457 473.943C38.2215 474.731 39.0795 475.552 39.9731 476.401L39.9624 476.419ZM36.3275 475.705L39.7701 476.387C38.8623 475.534 37.9901 474.696 37.1143 473.857C36 473.458 34.9356 473.065 33.8853 472.677C34.6935 473.643 35.4981 474.649 36.3382 475.688L36.3275 475.705ZM32.6998 474.97L36.1638 475.684C35.3165 474.649 34.4977 473.629 33.6717 472.616C32.5539 472.202 31.4787 471.799 30.4285 471.399C31.2082 472.537 31.9202 473.729 32.7105 474.935L32.6998 474.97ZM29.0792 474.225L32.5574 474.938C31.7742 473.722 31.023 472.52 30.2826 471.324L27.0358 470.076C27.7086 471.407 28.385 472.791 29.0899 474.189L29.0792 474.225ZM25.4622 473.458C26.573 473.696 27.7347 473.942 28.9475 474.196C28.2355 472.791 27.552 471.399 26.8862 470.022C25.7541 469.58 24.6719 469.152 23.6395 468.738C24.2352 470.279 24.8463 471.841 25.4729 473.422L25.4622 473.458ZM21.8523 472.673C22.9524 472.916 24.1094 473.169 25.3376 473.429C24.7039 471.831 24.0928 470.248 23.5042 468.681C22.3578 468.224 21.2827 467.782 20.261 467.361C20.7784 469.09 21.3124 470.849 21.863 472.637L21.8523 472.673ZM18.2495 471.867C19.3175 472.113 20.4852 472.373 21.7313 472.648C21.1759 470.85 20.6431 469.066 20.1328 467.297C18.9722 466.819 17.8935 466.362 16.8967 465.938C17.3358 467.871 17.7903 469.836 18.2602 471.831L18.2495 471.867ZM14.6539 471.039C15.6898 471.285 16.8682 471.553 18.132 471.842C17.6574 469.842 17.204 467.859 16.7721 465.895C15.5795 465.385 14.5079 464.917 13.5467 464.489C13.9062 466.612 14.2765 468.802 14.6645 471.003L14.6539 471.039ZM11.0653 470.183C12.0265 470.418 13.1657 470.693 14.5399 471.014C14.1483 468.802 13.7745 466.605 13.4292 464.436C12.1404 463.861 11.0724 463.365 10.2251 462.973C10.485 465.313 10.7734 467.721 11.076 470.147L11.0653 470.183ZM561.605 489.137L557.817 489.169C555.798 490.921 553.712 492.779 551.708 494.52L555.624 494.164C557.6 492.501 559.64 490.75 561.616 489.101L561.605 489.137ZM565.564 489.101L561.776 489.137C559.804 490.778 557.771 492.526 555.813 494.149L559.729 493.793C561.658 492.241 563.648 490.603 565.574 489.066L565.564 489.101ZM569.519 489.062L565.735 489.098C563.816 490.632 561.819 492.262 559.932 493.778L563.848 493.422C565.72 491.977 567.653 490.457 569.53 489.026L569.519 489.062ZM573.471 489.026L569.697 489.062C567.824 490.489 565.902 492.002 564.044 493.407L567.96 493.051C569.775 491.716 571.655 490.314 573.481 488.991L573.471 489.026ZM577.422 488.987L573.656 489.023C571.833 490.339 569.96 491.738 568.152 493.036L572.047 492.68C573.823 491.452 575.653 490.164 577.433 488.952L577.422 488.987ZM581.378 488.944L577.615 488.987C575.834 490.189 574.022 491.484 572.274 492.662L576.19 492.28C577.903 491.167 579.669 490 581.388 488.909L581.378 488.944ZM585.329 488.902L581.577 488.941C579.868 490.011 578.113 491.185 576.415 492.255L580.331 491.877C581.976 490.878 583.681 489.84 585.34 488.866L585.329 488.902ZM589.277 488.855L585.543 488.898C583.894 489.865 582.2 490.899 580.559 491.852L584.428 491.474C586.038 490.593 587.682 489.679 589.288 488.82L589.277 488.855ZM593.215 488.812L589.505 488.855C587.914 489.704 586.301 490.61 584.706 491.445C585.984 491.32 587.252 491.203 588.537 491.088C590.089 490.314 591.677 489.515 593.225 488.777L593.215 488.812ZM597.131 488.766L593.45 488.809C591.915 489.522 590.349 490.321 588.822 491.042L592.663 490.646C594.169 490.004 595.682 489.344 597.159 488.73L597.131 488.766ZM601.047 488.712L597.409 488.759C595.956 489.365 594.471 490.011 593.023 490.61L596.828 490.207C598.256 489.69 599.683 489.166 601.083 488.677L601.047 488.712ZM604.935 488.663L601.374 488.709C600.018 489.183 598.63 489.694 597.277 490.161L600.99 489.772C602.332 489.38 603.667 488.991 604.97 488.627L604.935 488.663ZM608.73 488.613L605.344 488.655C604.109 489.012 602.852 489.369 601.62 489.704L605.13 489.348C606.359 489.069 607.583 488.812 608.765 488.577L608.73 488.613ZM612.165 488.57L609.317 488.605C608.306 488.805 607.281 489.019 606.27 489.219L612.165 488.57ZM54.3913 479.587L57.4032 479.737C55.4238 479.382 53.5013 479.036 51.6358 478.698L54.3913 479.587ZM50.5322 479.391L53.9819 479.565C52.9388 479.227 51.8815 478.891 50.8704 478.559L47.588 477.949C48.5457 478.427 49.5461 478.898 50.5322 479.391ZM46.6767 479.194L50.2652 479.376C49.2399 478.877 48.2075 478.374 47.2178 477.882L43.8215 477.243C44.7364 477.885 45.719 478.542 46.6767 479.194ZM42.8211 478.995L46.4737 479.184C45.4983 478.517 44.5157 477.849 43.5723 477.193L40.1155 476.522C40.9912 477.339 41.9097 478.185 42.8211 478.995ZM38.9656 478.791L42.6573 478.984C41.7353 478.149 40.8061 477.311 39.9232 476.487L36.4415 475.798C37.2603 476.786 38.1147 477.789 38.9656 478.791ZM35.1242 478.584L38.8338 478.784C37.9723 477.771 37.1108 476.761 36.2919 475.766C35.0886 475.527 33.9281 475.292 32.7995 475.052C33.54 476.223 34.3268 477.404 35.1242 478.584ZM31.2758 478.374L34.9925 478.577C34.2022 477.389 33.4083 476.201 32.6571 475.031L29.1611 474.318C29.8269 475.652 30.546 477.011 31.2651 478.374H31.2758ZM27.4238 478.16L31.1512 478.367C30.4392 476.997 29.7272 475.63 29.0152 474.282L25.5121 473.547C26.1244 475.067 26.7688 476.612 27.4131 478.16H27.4238ZM23.5754 477.942L27.3028 478.153C26.6584 476.597 26.014 475.045 25.4053 473.515C24.1735 473.251 23.0129 472.998 21.9093 472.755C22.429 474.467 22.9951 476.205 23.5647 477.942H23.5754ZM19.7269 477.721L23.4579 477.939C22.8883 476.191 22.3187 474.446 21.7882 472.727C20.5422 472.452 19.3816 472.195 18.2958 471.949C18.7479 473.854 19.225 475.784 19.7163 477.721H19.7269ZM15.8785 477.496L19.613 477.714C19.1217 475.773 18.634 473.832 18.189 471.92C16.9216 471.635 15.7432 471.364 14.7001 471.118C15.0526 473.222 15.4584 475.356 15.8678 477.496H15.8785ZM12.0336 477.264L15.7682 477.489C15.3552 475.349 14.9529 473.208 14.5791 471.093C13.2049 470.772 12.0657 470.497 11.0973 470.258C11.375 472.57 11.6954 474.913 12.023 477.264H12.0336ZM567.828 483.893L564.157 483.615C562.089 485.42 560.003 487.261 557.949 489.041L561.744 489.009C563.755 487.314 565.802 485.58 567.828 483.893ZM571.637 484.192L567.981 483.904C565.959 485.602 563.919 487.332 561.929 489.005L565.724 488.969C567.668 487.389 569.661 485.769 571.627 484.178L571.637 484.192ZM575.446 484.492L571.79 484.203C569.822 485.791 567.835 487.414 565.881 488.969L569.668 488.934C571.58 487.46 573.52 485.955 575.446 484.478V484.492ZM579.259 484.792L575.607 484.503C573.688 485.976 571.751 487.478 569.846 488.93L573.631 488.898C575.493 487.535 577.383 486.144 579.259 484.778V484.792ZM583.076 485.091C581.851 484.992 580.641 484.902 579.423 484.806C577.554 486.165 575.671 487.553 573.812 488.894L577.59 488.859C579.405 487.61 581.239 486.329 583.076 485.077V485.091ZM586.871 485.409C585.664 485.309 584.446 485.202 583.243 485.106C581.424 486.354 579.587 487.628 577.782 488.859L581.559 488.816C583.318 487.685 585.101 486.526 586.871 485.395V485.409ZM590.662 485.726L587.045 485.423C585.265 486.551 583.506 487.703 581.758 488.812L585.525 488.77C587.227 487.76 588.953 486.725 590.662 485.712V485.726ZM594.457 486.044L590.847 485.741C589.146 486.747 587.43 487.774 585.739 488.77L589.487 488.727C591.136 487.817 592.805 486.922 594.457 486.033V486.044ZM598.256 486.362L594.653 486.058C593.008 486.947 591.353 487.842 589.719 488.723L593.453 488.68C595.045 487.906 596.657 487.104 598.256 486.347V486.362ZM602.037 486.686L598.477 486.379C596.889 487.143 595.272 487.924 593.713 488.68L597.43 488.634C598.95 487.981 600.502 487.321 602.037 486.672V486.686ZM605.8 487.021L602.264 486.708C600.744 487.346 599.214 487.999 597.704 488.63L601.396 488.58C602.855 488.056 604.333 487.524 605.803 487.007L605.8 487.021ZM609.548 487.353L606.052 487.043C604.628 487.553 603.162 488.074 601.723 488.577L605.365 488.531C606.754 488.131 608.156 487.731 609.548 487.339V487.353ZM613.279 487.685L609.847 487.382C608.491 487.76 607.128 488.149 605.778 488.523L609.338 488.477C610.641 488.206 611.962 487.935 613.279 487.671V487.685ZM616.957 488.01L613.653 487.717L609.908 488.47L613.279 488.427L616.957 488.01ZM620.264 488.32C619.335 488.238 618.406 488.145 617.477 488.06L614.376 488.416L620.264 488.32ZM61.9031 480.432L65.0217 480.229L59.0906 479.94L61.9031 480.432ZM57.8517 480.703L61.4509 480.461L58.2469 479.897L54.7865 479.726C55.7904 480.036 56.8086 480.361 57.8517 480.682V480.703ZM53.7932 480.982L57.5598 480.721C56.4704 480.365 55.4238 480.043 54.3557 479.705L50.7601 479.523C51.7676 479.993 52.7644 480.479 53.7932 480.967V480.982ZM49.7276 481.264L53.5761 480.996C52.5294 480.497 51.5148 480.004 50.5073 479.512L46.8475 479.323C47.791 479.969 48.7451 480.596 49.7205 481.249L49.7276 481.264ZM45.6656 481.556L49.5568 481.274C48.5599 480.614 47.6023 479.965 46.6446 479.312L42.9457 479.119C43.8357 479.915 44.7364 480.725 45.6656 481.542V481.556ZM41.6 481.856L45.5161 481.567C44.5762 480.743 43.6755 479.926 42.7748 479.112L39.0581 478.916C39.8947 479.876 40.7278 480.853 41.6 481.841V481.856ZM37.5273 482.163L41.4647 481.866C40.5925 480.871 39.7523 479.89 38.9157 478.909L35.1883 478.709C35.9537 479.84 36.7263 480.985 37.5273 482.148V482.163ZM33.4546 482.477L37.4062 482.17C36.5981 481.003 35.822 479.851 35.0566 478.702L31.3221 478.499C32.0163 479.804 32.7212 481.124 33.4546 482.466V482.477ZM29.3783 482.798L33.3442 482.466C32.6073 481.124 31.9202 479.797 31.2082 478.474L27.4701 478.267C28.0824 479.765 28.7161 481.267 29.3783 482.783V482.798ZM25.2949 483.129L29.2644 482.808C28.5986 481.285 27.9649 479.779 27.3419 478.278L23.6003 478.067C24.1486 479.733 24.7075 481.413 25.2949 483.115V483.129ZM21.2115 483.486L25.1845 483.151C24.5936 481.442 24.0346 479.754 23.4828 478.071L19.7412 477.857C20.2182 479.697 20.6988 481.567 21.2115 483.461V483.486ZM17.121 483.843L21.1011 483.486C20.5885 481.588 20.1043 479.712 19.6308 477.842L15.8999 477.603C16.2844 479.662 16.6902 481.727 17.121 483.814V483.843ZM13.0305 484.2L17.0142 483.843C16.5798 481.749 16.174 479.68 15.7788 477.614L12.0372 477.389C12.3398 479.63 12.6958 481.891 13.0305 484.178V484.2ZM8.93282 484.585C9.81572 484.499 11.1329 484.374 12.9201 484.21C12.5641 481.916 12.2401 479.647 11.9268 477.386L8.18877 477.15C8.42373 479.612 8.66226 482.066 8.93282 484.563V484.585ZM574.119 478.591C572.933 478.392 571.748 478.199 570.558 478.006C568.447 479.862 566.361 481.674 564.264 483.504L567.942 483.782C570 482.052 572.047 480.343 574.119 478.591ZM577.778 479.23C576.604 479.03 575.429 478.813 574.254 478.616C572.189 480.361 570.149 482.07 568.098 483.793L571.762 484.082C573.763 482.466 575.756 480.868 577.775 479.23H577.778ZM581.438 479.872L577.914 479.255C575.906 480.889 573.916 482.466 571.915 484.093L575.575 484.382C577.526 482.88 579.459 481.396 581.435 479.872H581.438ZM585.105 480.514L581.58 479.897C579.622 481.417 577.664 482.897 575.735 484.392L579.395 484.681C581.292 483.297 583.186 481.92 585.101 480.514H585.105ZM588.782 481.16C587.604 480.946 586.429 480.75 585.251 480.539C583.343 481.941 581.456 483.311 579.555 484.695C580.776 484.792 581.99 484.881 583.215 484.981C585.069 483.711 586.913 482.466 588.779 481.16H588.782ZM592.417 481.838C591.257 481.624 590.093 481.396 588.932 481.185C587.074 482.473 585.233 483.729 583.385 484.995L587.02 485.298C588.815 484.146 590.605 483.004 592.414 481.838H592.417ZM596.049 482.519L592.57 481.866C590.769 483.029 588.985 484.167 587.195 485.313L590.826 485.616C592.563 484.606 594.297 483.565 596.045 482.519H596.049ZM599.687 483.204C598.53 482.987 597.369 482.765 596.209 482.551C594.468 483.59 592.741 484.606 591.008 485.634L594.632 485.937C596.316 485.027 597.992 484.128 599.683 483.204H599.687ZM603.34 483.893C602.175 483.668 601.018 483.458 599.854 483.236C598.17 484.153 596.501 485.049 594.827 485.951L598.448 486.254C600.075 485.47 601.698 484.692 603.336 483.893H603.34ZM606.96 484.606L603.514 483.932C601.887 484.724 600.274 485.498 598.655 486.279L602.25 486.59C603.817 485.926 605.383 485.27 606.957 484.606H606.96ZM610.552 485.32C609.417 485.091 608.281 484.856 607.145 484.631C605.582 485.298 604.034 485.948 602.478 486.6L606.038 486.918C607.54 486.39 609.039 485.862 610.549 485.32H610.552ZM614.144 486.033L610.755 485.348C609.264 485.883 607.783 486.419 606.298 486.929L609.84 487.243C611.271 486.854 612.703 486.458 614.141 486.033H614.144ZM617.74 486.747C616.619 486.515 615.494 486.29 614.372 486.065C612.948 486.469 611.549 486.861 610.139 487.257L613.653 487.567L617.74 486.747ZM621.339 487.46C620.232 487.228 619.121 487.011 618.011 486.786C616.679 487.057 615.355 487.321 614.027 487.585L617.48 487.896L621.339 487.46ZM624.76 488.199C623.728 487.981 622.696 487.749 621.667 487.532L617.996 487.945L621.25 488.249L624.76 488.199ZM627.897 488.873L625.22 488.299L622.229 488.341L627.897 488.873ZM69.8349 480.325L72.9749 479.804L66.9228 480.186L69.8349 480.325ZM65.5628 481.039L69.3223 480.411L65.9544 480.254L62.3374 480.486L65.5628 481.039ZM61.3228 481.752C62.6186 481.531 63.9074 481.306 65.2389 481.082L61.8746 480.507L58.108 480.757C59.1784 481.102 60.2548 481.44 61.337 481.77L61.3228 481.752ZM57.0507 482.491L61.0771 481.777C59.9735 481.44 58.8853 481.102 57.8126 480.764L53.9606 481.028C54.993 481.532 56.0325 482.026 57.0792 482.509L57.0507 482.491ZM52.7786 483.243L56.8656 482.53C55.7976 482.041 54.7651 481.549 53.7434 481.064L49.8451 481.335C50.8384 481.981 51.8174 482.623 52.8107 483.261L52.7786 483.243ZM48.5065 484.021C49.8594 483.771 51.2051 483.525 52.622 483.272C51.618 482.628 50.6319 481.983 49.6636 481.338L45.7475 481.624C46.6731 482.423 47.6058 483.228 48.5457 484.039L48.5065 484.021ZM44.2345 484.81L48.3784 484.043C47.429 483.236 46.5022 482.434 45.598 481.635L41.657 481.924C42.5233 482.892 43.3931 483.859 44.2665 484.827L44.2345 484.81ZM39.9624 485.616C41.3081 485.359 42.7036 485.095 44.1241 484.831C43.2459 483.861 42.3832 482.895 41.5359 481.934L37.5771 482.23C38.3675 483.365 39.1697 484.499 39.9837 485.634L39.9624 485.616ZM35.6689 486.44C37.0111 486.18 38.4173 485.908 39.8484 485.637C39.0296 484.499 38.2357 483.365 37.4561 482.241L33.4902 482.544C34.22 483.854 34.9427 485.152 35.6903 486.458L35.6689 486.44ZM31.3684 487.282L35.5586 486.461C34.811 485.151 34.0823 483.843 33.3727 482.537L29.4032 482.851C30.0618 484.353 30.7133 485.823 31.3897 487.3L31.3684 487.282ZM27.0821 488.174L31.2829 487.328C30.6065 485.848 29.9515 484.371 29.3071 482.905C27.9187 483.014 26.5943 483.122 25.3341 483.229C25.9013 484.861 26.484 486.509 27.0821 488.174ZM22.7672 489.062L26.9752 488.174C26.37 486.511 25.7897 484.86 25.2201 483.215L21.24 483.55C21.7348 485.384 22.2368 487.214 22.7672 489.055V489.062ZM18.4418 489.958C19.7447 489.679 21.1296 489.383 22.6604 489.066C22.13 487.218 21.6245 485.384 21.1296 483.557L17.1459 483.914C17.5624 485.926 17.9896 487.942 18.4418 489.958ZM14.1198 490.914L18.3456 489.993C17.89 487.96 17.4627 485.941 17.0462 483.928L13.0589 484.285C13.3865 486.486 13.7318 488.691 14.1198 490.914ZM9.77656 491.895C10.8161 491.652 12.2152 491.335 14.0095 490.939C13.6535 488.709 13.2975 486.497 12.9415 484.296C11.1614 484.46 9.83352 484.585 8.94706 484.653C9.20339 487.068 9.46683 489.469 9.76588 491.895H9.77656ZM580.477 473.251C579.331 472.941 578.188 472.648 577.041 472.352C574.905 474.257 572.812 476.037 570.676 477.914C571.863 478.106 573.049 478.303 574.236 478.502C576.315 476.729 578.355 475.049 580.466 473.251H580.477ZM583.98 474.236C582.855 473.925 581.73 473.59 580.601 473.283C578.494 475.067 576.461 476.758 574.368 478.527C575.543 478.723 576.721 478.941 577.892 479.141C579.925 477.471 581.915 475.916 583.969 474.236H583.98ZM587.494 475.224C586.365 474.906 585.237 474.582 584.108 474.271C582.057 475.948 580.071 477.514 578.031 479.169C579.206 479.369 580.384 479.58 581.559 479.783C583.539 478.245 585.479 476.786 587.483 475.224H587.494ZM591.015 476.212L587.622 475.259C585.621 476.818 583.688 478.274 581.702 479.808L585.233 480.429C587.159 479.005 589.071 477.657 591.004 476.212H591.015ZM594.546 477.204C593.411 476.876 592.278 476.569 591.146 476.248C589.199 477.675 587.312 479.034 585.379 480.454C586.557 480.661 587.732 480.86 588.914 481.074C590.79 479.769 592.631 478.542 594.536 477.204H594.546ZM598.021 478.245C596.907 477.917 595.792 477.568 594.678 477.243C592.784 478.566 590.947 479.797 589.064 481.099C590.228 481.31 591.392 481.538 592.556 481.752C594.375 480.568 596.166 479.448 598.01 478.245H598.021ZM601.488 479.316C600.378 478.98 599.267 478.634 598.156 478.302C596.319 479.498 594.532 480.614 592.709 481.795L596.195 482.452C597.971 481.396 599.694 480.375 601.478 479.301L601.488 479.316ZM604.967 480.386C603.853 480.043 602.74 479.705 601.627 479.369C599.847 480.439 598.121 481.438 596.355 482.494L599.847 483.151C601.549 482.191 603.229 481.306 604.956 480.361L604.967 480.386ZM608.459 481.456C607.341 481.099 606.227 480.778 605.109 480.436C603.393 481.381 601.72 482.259 600.011 483.19C601.175 483.408 602.343 483.622 603.507 483.846C605.155 483.008 606.782 482.241 608.448 481.424L608.459 481.456ZM611.916 482.544L608.609 481.499C606.95 482.316 605.333 483.076 603.681 483.879L607.142 484.556C608.73 483.846 610.299 483.204 611.905 482.512L611.916 482.544ZM615.326 483.664C614.258 483.308 613.155 482.951 612.072 482.594C610.474 483.279 608.915 483.914 607.327 484.592C608.47 484.817 609.612 485.056 610.755 485.284C612.272 484.706 613.781 484.189 615.316 483.632L615.326 483.664ZM618.748 484.788C617.68 484.431 616.579 484.075 615.494 483.718C613.966 484.271 612.475 484.788 610.958 485.327L614.376 486.015C615.828 485.569 617.27 485.177 618.737 484.756L618.748 484.788ZM622.187 485.916C621.119 485.559 620.015 485.202 618.929 484.845C617.477 485.263 616.053 485.652 614.604 486.062L618.018 486.75C619.403 486.436 620.777 486.169 622.179 485.883L622.187 485.916ZM625.633 487.054C624.565 486.697 623.472 486.34 622.393 485.983C621.015 486.269 619.659 486.529 618.288 486.811C619.42 487.039 620.549 487.264 621.681 487.503C622.991 487.318 624.316 487.175 625.622 487.021L625.633 487.054ZM628.915 488.213C627.897 487.856 626.882 487.5 625.864 487.143C624.572 487.293 623.294 487.428 622.005 487.574C623.073 487.803 624.162 488.045 625.238 488.288L628.915 488.213ZM632.119 489.348C631.144 488.991 630.168 488.634 629.193 488.313L625.686 488.366L628.783 489.034L632.119 489.348ZM635.081 490.393C634.23 490.09 633.383 489.79 632.532 489.494L629.663 489.223C631.471 489.576 633.276 489.958 635.085 490.361L635.081 490.393ZM78.1049 479.398L81.3802 478.581C79.2442 478.913 77.1936 479.244 75.1536 479.573L78.1049 479.398ZM73.7011 480.518C74.9792 480.19 76.2359 479.865 77.546 479.537L74.0714 479.747L70.3404 480.361L73.7011 480.518ZM69.2546 481.663C70.5896 481.306 71.9816 480.95 73.3487 480.593L69.842 480.425C68.5212 480.643 67.1791 480.864 65.8939 481.082L69.2546 481.663ZM64.8295 482.823C66.2143 482.466 67.5814 482.088 69.0054 481.717L65.5771 481.142C64.2029 481.374 62.8892 481.602 61.5613 481.831L64.8295 482.823ZM60.3794 484.01C61.7749 483.635 63.193 483.255 64.6337 482.872L61.3299 481.87L57.2465 482.583C58.2647 483.065 59.3327 483.536 60.3794 484.021V484.01ZM55.915 485.227C57.3141 484.842 58.7631 484.449 60.2192 484.057C59.1511 483.572 58.0831 483.09 57.0649 482.63C55.6765 482.872 54.2774 483.115 52.9424 483.343C53.9143 483.975 54.9147 484.606 55.915 485.238V485.227ZM51.4543 486.469C52.8783 486.069 54.3023 485.673 55.7798 485.263C54.7687 484.628 53.7683 483.993 52.7893 483.365C51.3653 483.618 50.0125 483.868 48.6489 484.118C49.5639 484.906 50.5073 485.694 51.4543 486.479V486.469ZM46.9757 487.735L51.3297 486.504C50.3791 485.712 49.4357 484.924 48.5172 484.142L44.3519 484.91C45.2028 485.858 46.0857 486.8 46.9757 487.746V487.735ZM42.4829 489.026L46.8582 487.767C45.9718 486.818 45.0782 485.873 44.2309 484.913L40.0514 485.698C40.8382 486.825 41.6605 487.931 42.4829 489.037V489.026ZM37.9794 490.346C39.4034 489.929 40.8738 489.497 42.3725 489.059C41.5502 487.949 40.7278 486.84 39.9375 485.741L35.7437 486.543C36.4664 487.817 37.2247 489.087 37.9723 490.357L37.9794 490.346ZM33.4652 491.702C34.8893 491.27 36.3418 490.832 37.8726 490.379C37.1143 489.105 36.3596 487.831 35.6333 486.565C34.1844 486.847 32.7853 487.121 31.436 487.389C32.0911 488.83 32.7782 490.271 33.4652 491.713V491.702ZM28.9404 493.086C30.3644 492.647 31.8205 492.198 33.362 491.734C32.6714 490.307 31.9807 488.844 31.3257 487.41L27.1177 488.256C27.7051 489.868 28.321 491.481 28.9404 493.097V493.086ZM24.4013 494.513C25.7969 494.071 27.2755 493.609 28.8372 493.129C28.2177 491.509 27.5983 489.893 27.0108 488.292L22.7957 489.158C23.3084 490.931 23.8566 492.722 24.4013 494.513ZM19.8515 495.969C21.2293 495.523 22.6996 495.052 24.2981 494.542C23.7498 492.758 23.2016 490.974 22.6889 489.191C21.1545 489.512 19.7697 489.808 18.4631 490.086C18.9046 492.03 19.3781 494 19.8515 495.969ZM15.284 497.467C16.6154 497.025 18.0858 496.54 19.7447 496.001C19.2713 494.028 18.7978 492.055 18.3563 490.1C16.7863 490.436 15.3587 490.746 14.1234 491.021C14.4758 493.168 14.8888 495.309 15.284 497.467ZM10.7057 499.015C11.8806 498.612 13.3615 498.109 15.1807 497.503C14.782 495.344 14.3797 493.183 14.0166 491.042C12.2152 491.442 10.8125 491.756 9.77656 492.002C10.0614 494.324 10.3853 496.672 10.7057 499.015ZM16.4196 504.01C14.5613 504.814 12.9925 505.499 11.7132 506.065C12.0479 508.277 12.4039 510.493 12.7813 512.715C14.159 512.001 15.8109 511.12 17.712 510.139C17.2598 508.098 16.8255 506.051 16.4196 504.013V504.01ZM21.2115 501.969C19.4635 502.704 17.9434 503.354 16.5229 503.967C16.9287 506.001 17.3631 508.041 17.8045 510.089C19.2902 509.321 20.9267 508.488 22.7138 507.592C22.2012 505.715 21.6921 503.839 21.2115 501.973V501.969ZM25.9891 499.989C24.3337 500.671 22.7601 501.324 21.3147 501.927C21.7953 503.792 22.3009 505.662 22.8135 507.535C24.3372 506.769 25.9677 505.955 27.7051 505.094C27.1212 503.396 26.5409 501.687 25.9891 499.993V499.989ZM30.7525 498.056C29.1172 498.712 27.5638 499.342 26.0923 499.947C26.6406 501.641 27.2245 503.343 27.8047 505.048C29.3498 504.285 30.9732 503.49 32.6749 502.665C32.0234 501.131 31.3684 499.59 30.7525 498.059V498.056ZM35.4981 496.165C33.8818 496.804 32.3403 497.417 30.87 498.013C31.4823 499.543 32.1409 501.081 32.7888 502.615C34.341 501.862 35.9502 501.088 37.6376 500.285C36.9043 498.915 36.1923 497.535 35.4981 496.169V496.165ZM40.2294 494.313C38.6238 494.938 37.0965 495.534 35.6013 496.126C36.2813 497.492 37.0253 498.866 37.7373 500.239C39.3002 499.493 40.8951 498.741 42.5683 497.956C41.7709 496.736 40.977 495.526 40.2294 494.317V494.313ZM44.9429 492.505L40.3148 494.288C41.0624 495.494 41.8563 496.711 42.636 497.924C44.1953 497.21 45.7867 496.454 47.4421 495.69C46.6161 494.624 45.7546 493.561 44.9429 492.508V492.505ZM49.6493 490.721C48.0829 491.306 46.5343 491.888 45.0462 492.451C45.8578 493.5 46.7158 494.56 47.5382 495.616C49.0833 494.902 50.7031 494.171 52.3301 493.432C51.4436 492.548 50.5215 491.638 49.6493 490.739V490.721ZM54.3415 488.98C52.7751 489.556 51.2466 490.122 49.7561 490.678C50.6248 491.577 51.5362 492.483 52.4511 493.386C54.0033 492.672 55.5911 491.959 57.2145 491.245C56.2533 490.507 55.2707 489.751 54.3486 488.998L54.3415 488.98ZM59.0123 487.275C57.4459 487.838 55.9542 488.388 54.4554 488.941C55.3846 489.69 56.3636 490.446 57.3248 491.199C58.8806 490.486 60.4363 489.811 62.0562 489.098C61.038 488.509 59.9984 487.899 59.0123 487.293V487.275ZM63.676 485.605L59.1369 487.228C60.123 487.831 61.159 488.441 62.1736 489.048C63.708 488.374 65.2923 487.689 66.8836 487C65.8085 486.554 64.7191 486.087 63.676 485.623V485.605ZM68.3254 483.968C66.797 484.503 65.2946 485.032 63.8184 485.555C64.8615 486.015 65.9544 486.479 67.0225 486.943C68.5533 486.284 70.1102 485.617 71.6933 484.942C70.5612 484.635 69.4219 484.31 68.3254 483.986V483.968ZM72.9535 482.362C71.4298 482.883 69.9773 483.393 68.5034 483.911C69.5928 484.232 70.7285 484.553 71.8463 484.877C73.3736 484.228 74.8795 483.582 76.4495 482.922L72.9535 482.362ZM77.5816 480.789C76.1006 481.289 74.5947 481.795 73.1565 482.287C74.2886 482.473 75.4669 482.644 76.6275 482.844C78.1156 482.22 79.6714 481.585 81.2022 480.953L77.5816 480.789ZM82.1741 479.241C80.7074 479.729 79.2869 480.211 77.8557 480.693L81.4372 480.857C82.911 480.247 84.3742 479.64 85.8837 479.027L82.1741 479.241ZM86.7773 477.725L82.5693 479.112L86.1934 478.902C87.6174 478.324 89.0771 477.739 90.5331 477.157L86.7773 477.725ZM91.3662 476.237C90.0276 476.665 88.7045 477.093 87.3967 477.521L90.9568 476.986C92.2954 476.451 93.634 475.916 95.001 475.374C93.7692 475.676 92.56 475.969 91.3733 476.255L91.3662 476.237ZM99.0417 473.797C96.9057 474.464 94.8301 475.127 92.7617 475.791C93.7194 475.563 94.7198 475.331 95.6917 475.106L99.0417 473.797ZM586.821 467.839C585.717 467.422 584.61 467.029 583.503 466.63C581.367 468.542 579.256 470.386 577.127 472.27C578.273 472.562 579.419 472.858 580.566 473.169C582.663 471.406 584.717 469.644 586.821 467.839ZM590.164 469.173C589.096 468.752 588.028 468.299 586.931 467.885C584.834 469.669 582.77 471.428 580.69 473.201C581.815 473.508 582.944 473.843 584.073 474.153C586.105 472.495 588.12 470.857 590.164 469.173ZM593.521 470.511C592.453 470.083 591.36 469.641 590.278 469.22C588.238 470.896 586.223 472.534 584.197 474.189C585.329 474.5 586.458 474.824 587.586 475.142C589.562 473.601 591.531 472.074 593.521 470.511ZM596.885 471.852C595.817 471.414 594.717 470.986 593.635 470.554C591.652 472.113 589.687 473.64 587.714 475.192L591.111 476.148C593.033 474.71 594.952 473.294 596.903 471.852H596.885ZM600.264 473.197C599.196 472.748 598.089 472.334 597.003 471.895C595.073 473.322 593.158 474.749 591.242 476.176C592.378 476.497 593.514 476.804 594.649 477.132C596.515 475.827 598.386 474.513 600.264 473.19V473.197ZM603.578 474.603C602.51 474.154 601.442 473.686 600.374 473.244C598.501 474.559 596.635 475.867 594.774 477.168C595.888 477.496 597.006 477.846 598.121 478.174C599.936 476.992 601.755 475.806 603.578 474.617V474.603ZM606.878 476.03C605.81 475.573 604.742 475.099 603.696 474.649C601.878 475.839 600.067 477.028 598.263 478.217C599.374 478.549 600.488 478.895 601.602 479.234L606.878 476.03ZM610.189 477.457C609.126 476.981 608.058 476.52 606.985 476.073C605.231 477.143 603.478 478.205 601.727 479.259L605.077 480.279C606.782 479.358 608.484 478.413 610.189 477.471V477.457ZM613.514 478.884C612.446 478.41 611.378 477.96 610.31 477.496C608.616 478.438 606.917 479.38 605.23 480.307C606.348 480.664 607.469 480.978 608.591 481.328C610.225 480.55 611.873 479.73 613.514 478.898V478.884ZM616.807 480.365C615.754 479.889 614.699 479.413 613.642 478.938C612.005 479.751 610.367 480.568 608.74 481.371C609.844 481.718 610.949 482.075 612.055 482.441C613.635 481.774 615.22 481.078 616.807 480.39V480.365ZM620.036 481.884C619 481.403 617.971 480.9 616.932 480.425C615.358 481.11 613.778 481.802 612.208 482.477C613.301 482.833 614.39 483.19 615.483 483.547L620.036 481.884ZM623.283 483.408C622.247 482.919 621.211 482.427 620.172 481.945C618.662 482.498 617.149 483.058 615.647 483.604C616.741 483.956 617.833 484.313 618.922 484.674C620.371 484.285 621.823 483.857 623.283 483.433V483.408ZM626.551 484.945C625.512 484.446 624.469 483.968 623.429 483.475C622.005 483.896 620.538 484.324 619.104 484.738C620.197 485.095 621.293 485.452 622.386 485.809C623.771 485.555 625.163 485.259 626.551 484.963V484.945ZM629.837 486.501C628.798 485.994 627.751 485.516 626.711 485.02C625.341 485.306 623.96 485.602 622.592 485.883C623.682 486.24 624.775 486.597 625.864 486.954L629.837 486.501ZM632.959 488.088C631.973 487.599 630.994 487.075 630.005 486.59L626.088 487.05C627.128 487.407 628.164 487.789 629.203 488.149L632.959 488.088ZM636.071 489.672C635.103 489.18 634.131 488.68 633.162 488.192L629.499 488.252C630.521 488.609 631.539 488.966 632.557 489.323L636.071 489.672ZM639.165 491.242C638.221 490.757 637.278 490.282 636.316 489.815L632.952 489.487C633.931 489.843 634.91 490.172 635.889 490.521C636.989 490.774 638.075 491.028 639.165 491.267V491.242ZM642.134 492.754C641.276 492.305 640.414 491.88 639.553 491.442C638.606 491.228 637.652 491.003 636.705 490.792C638.513 491.463 640.336 492.098 642.134 492.779V492.754ZM643.85 493.518C645.466 494.371 647.071 495.28 648.681 496.169C647.908 495.608 647.143 495.027 646.367 494.47C645.53 494.178 644.69 493.853 643.85 493.543V493.518ZM639.98 491.541C641.005 492.062 642.03 492.565 643.049 493.101C644.035 493.457 645.014 493.843 646 494.217C645.064 493.55 644.113 492.926 643.152 492.273C642.116 492.055 641.048 491.806 639.98 491.566V491.541ZM636.626 489.833C637.612 490.336 638.602 490.832 639.588 491.342C640.703 491.591 641.817 491.855 642.931 492.109C641.998 491.459 641.059 490.821 640.122 490.182L636.626 489.833ZM633.387 488.188C634.38 488.684 635.37 489.198 636.363 489.701L639.941 490.057C639.004 489.419 638.068 488.762 637.128 488.131L633.387 488.188ZM630.182 486.565C631.179 487.061 632.173 487.589 633.173 488.085L636.964 488.02C636.021 487.389 635.092 486.715 634.148 486.087C632.86 486.272 631.51 486.436 630.197 486.59L630.182 486.565ZM626.868 484.984C627.915 485.484 628.965 485.965 630.012 486.479L634.017 485.998C633.023 485.345 632.023 484.735 631.03 484.096C629.656 484.414 628.26 484.72 626.882 485.009L626.868 484.984ZM623.568 483.433C624.615 483.925 625.665 484.406 626.708 484.91C628.096 484.621 629.506 484.31 630.902 484.014C629.912 483.375 628.915 482.762 627.922 482.138C626.491 482.591 625.028 483.037 623.582 483.458L623.568 483.433ZM620.296 481.895C621.338 482.371 622.38 482.861 623.422 483.365C624.871 482.94 626.345 482.491 627.804 482.063C626.818 481.438 625.836 480.81 624.846 480.197C623.347 480.782 621.823 481.367 620.31 481.92L620.296 481.895ZM617.046 480.368C618.089 480.843 619.121 481.349 620.161 481.831C621.674 481.278 623.215 480.686 624.732 480.125C623.749 479.512 622.774 478.87 621.788 478.267C620.229 478.984 618.619 479.712 617.06 480.393L617.046 480.368ZM613.749 478.877C614.808 479.353 615.865 479.828 616.921 480.304C618.491 479.619 620.1 478.877 621.681 478.195C620.677 477.585 619.67 476.986 618.666 476.387C617.046 477.236 615.387 478.096 613.763 478.898L613.749 478.877ZM610.431 477.471C611.499 477.939 612.567 478.388 613.635 478.866C615.262 478.056 616.928 477.189 618.566 476.369C617.548 475.762 616.526 475.192 615.508 474.585C613.824 475.527 612.104 476.522 610.431 477.471ZM607.11 476.044C608.173 476.503 609.241 476.966 610.314 477.432C611.998 476.497 613.721 475.498 615.415 474.55C614.404 473.957 613.391 473.371 612.375 472.791C610.62 473.832 608.84 474.974 607.106 476.016L607.11 476.044ZM603.802 474.617C604.87 475.067 605.938 475.541 607.006 475.998C608.744 474.928 610.531 473.807 612.282 472.734C611.271 472.156 610.264 471.553 609.253 470.982C607.43 472.145 605.59 473.408 603.799 474.585L603.802 474.617ZM600.488 473.19C601.556 473.636 602.624 474.104 603.692 474.553C605.472 473.376 607.33 472.109 609.135 470.911C608.117 470.34 607.103 469.755 606.081 469.195C604.222 470.486 602.321 471.877 600.484 473.169L600.488 473.19ZM597.102 471.842C598.192 472.281 599.285 472.694 600.37 473.144C602.215 471.849 604.116 470.458 605.974 469.138C604.935 468.57 603.891 468.042 602.848 467.486C600.944 468.909 598.989 470.411 597.099 471.82L597.102 471.842ZM593.734 470.5C594.803 470.932 595.903 471.36 596.988 471.799C598.882 470.372 600.837 468.866 602.745 467.432C601.708 466.878 600.671 466.33 599.634 465.788C597.679 467.315 595.668 468.956 593.731 470.479L593.734 470.5ZM590.374 469.163C591.442 469.587 592.538 470.026 593.621 470.454C595.561 468.927 597.576 467.286 599.534 465.734C598.498 465.192 597.469 464.632 596.433 464.097C594.411 465.738 592.36 467.504 590.37 469.141L590.374 469.163ZM587.024 467.828C588.092 468.242 589.181 468.695 590.26 469.116C592.254 467.475 594.322 465.709 596.333 464.043C595.297 463.512 594.272 462.941 593.236 462.416C591.178 464.172 589.071 466.055 587.02 467.807L587.024 467.828ZM583.599 466.573C584.703 466.972 585.81 467.365 586.913 467.782C588.953 466.03 591.072 464.147 593.129 462.366C592.061 461.839 590.993 461.339 589.947 460.832C587.843 462.695 585.675 464.696 583.595 466.551L583.599 466.573ZM86.7452 477.639L89.9493 476.597C87.8346 477.104 85.7342 477.61 83.6907 478.113L86.7452 477.639ZM82.1456 479.155C83.4522 478.72 84.7908 478.281 86.1293 477.842L82.5337 478.399C81.2342 478.72 79.9419 479.041 78.6746 479.362L82.1456 479.155ZM77.5674 480.682C78.9558 480.215 80.3335 479.744 81.7611 479.255L78.1227 479.473C76.745 479.829 75.4064 480.165 74.0643 480.507L77.5674 480.682ZM72.9393 482.255C74.3633 481.767 75.8372 481.271 77.2933 480.778L73.7154 480.611L69.5181 481.681C70.643 481.891 71.7716 482.08 72.9357 482.27L72.9393 482.255ZM68.3112 483.861C69.7708 483.351 71.2127 482.844 72.715 482.327C71.5402 482.138 70.3938 481.945 69.2511 481.756C67.8021 482.134 66.403 482.505 65.0146 482.876C66.1146 483.219 67.2005 483.536 68.3219 483.893L68.3112 483.861ZM63.6831 485.495C65.1463 484.977 66.6415 484.449 68.1546 483.921C67.026 483.59 65.9295 483.258 64.833 482.93C63.3781 483.315 61.9458 483.698 60.536 484.078C61.572 484.563 62.6044 485.034 63.6796 485.509L63.6831 485.495ZM59.0265 487.161C60.4933 486.629 62.017 486.09 63.5407 485.548C62.4727 485.07 61.4225 484.596 60.3758 484.121L56.0432 485.298C57.0258 485.933 58.0012 486.551 59.023 487.175L59.0265 487.161ZM54.3486 488.887C55.8438 488.338 57.3284 487.788 58.8841 487.228C57.8624 486.6 56.8798 485.98 55.8937 485.355L51.5433 486.568C52.4796 487.332 53.3945 488.102 54.3486 488.887ZM49.6671 490.621C51.1552 490.065 52.6777 489.5 54.2347 488.927C53.2699 488.149 52.3479 487.378 51.4187 486.604C49.9235 487.021 48.4709 487.435 47.0469 487.842C47.9405 488.759 48.7735 489.683 49.6778 490.614L49.6671 490.621ZM44.9678 492.405C46.4488 491.841 47.9974 491.26 49.5568 490.675C48.6561 489.74 47.7981 488.816 46.9294 487.888C45.4342 488.316 43.9568 488.737 42.5399 489.151C43.3516 490.211 44.1419 491.292 44.9785 492.383L44.9678 492.405ZM40.2614 494.21C41.746 493.632 43.2875 493.043 44.8646 492.444C44.0244 491.349 43.2376 490.268 42.4295 489.183C40.9272 489.619 39.439 490.054 38.0257 490.475C38.7733 491.695 39.4996 492.936 40.2721 494.189L40.2614 494.21ZM35.5514 496.022C37.0431 495.434 38.5668 494.838 40.1795 494.217C39.4034 492.961 38.6808 491.72 37.9403 490.475C36.4059 490.928 34.9498 491.367 33.5222 491.798C34.1844 493.215 34.843 494.617 35.5514 496.022ZM30.813 497.91C32.2975 497.314 33.8355 496.7 35.4411 496.062C34.7291 494.635 34.074 493.24 33.4012 491.83C31.8561 492.298 30.3858 492.747 28.9724 493.183C29.5812 494.767 30.1757 496.336 30.813 497.92V497.91ZM26.0603 499.839C27.5294 499.235 29.0804 498.606 30.7133 497.952C30.0725 496.365 29.478 494.792 28.8728 493.218C27.3135 493.7 25.8289 494.164 24.4334 494.602C24.9638 496.358 25.4907 498.095 26.0603 499.85V499.839ZM21.2898 501.816C22.7138 501.213 24.3016 500.56 25.9571 499.882C25.391 498.124 24.8606 496.383 24.3266 494.635C22.7281 495.141 21.2578 495.616 19.8765 496.062C20.3357 497.988 20.7914 499.9 21.2898 501.827V501.816ZM16.5015 503.871C17.9256 503.261 19.4386 502.611 21.183 501.877C20.6882 499.947 20.2289 498.031 19.759 496.115C18.0964 496.65 16.6261 497.139 15.2947 497.581C15.6898 499.665 16.0779 501.755 16.5015 503.871ZM11.6954 505.968C12.9771 505.398 14.5435 504.714 16.3947 503.917C15.9746 501.805 15.5866 499.711 15.1985 497.617C13.3758 498.223 11.8948 498.726 10.7235 499.133C11.0297 501.398 11.3465 503.671 11.6954 505.961V505.968ZM465.536 564.361C464.607 565.107 463.664 565.874 462.738 566.612C464.112 565.567 465.529 564.451 466.932 563.362C466.466 563.705 466.01 564.019 465.536 564.361ZM472.08 559.096C470.403 560.455 468.744 561.782 467.078 563.123C468.424 562.146 469.823 561.076 471.19 560.066C472.706 558.885 474.195 557.747 475.715 556.559C474.494 557.426 473.287 558.264 472.083 559.096H472.08ZM478.687 553.78C476.793 555.325 474.971 556.759 473.091 558.282C474.615 557.212 476.188 556.095 477.744 554.99C479.524 553.609 481.229 552.307 483.006 550.912C481.565 551.882 480.133 552.838 478.709 553.78H478.687ZM484.939 548.668C483.105 550.18 481.293 551.657 479.474 553.149C481.055 552.107 482.678 551.008 484.298 549.913C486.078 548.486 487.858 547.166 489.638 545.725C488.069 546.724 486.504 547.705 484.942 548.668H484.939ZM490.817 543.734C489.036 545.2 487.224 546.774 485.476 548.218C487.1 547.216 488.748 546.174 490.396 545.129C492.034 543.823 493.736 542.414 495.381 541.091C493.846 541.997 492.34 542.856 490.813 543.734H490.817ZM496.911 538.615C495.032 540.192 493.131 541.804 491.269 543.356C492.828 542.453 494.387 541.551 495.968 540.616C497.748 539.189 499.589 537.687 501.393 536.228C499.884 537.049 498.414 537.816 496.915 538.615H496.911ZM503.166 533.363C501.198 535.029 499.25 536.653 497.296 538.294C498.823 537.477 500.333 536.681 501.874 535.839C503.775 534.298 505.673 532.778 507.588 531.201C506.1 531.958 504.651 532.639 503.17 533.363H503.166ZM509.539 528.012C507.495 529.753 505.527 531.365 503.487 533.081C504.986 532.347 506.463 531.654 507.976 530.887C509.963 529.271 511.892 527.744 513.893 526.103C512.433 526.767 511.006 527.366 509.542 528.016L509.539 528.012ZM515.808 522.661C513.804 524.384 511.817 526.071 509.827 527.769C511.305 527.113 512.754 526.499 514.242 525.829C516.214 524.206 518.158 522.618 520.148 520.988C518.688 521.573 517.271 522.09 515.812 522.664L515.808 522.661ZM521.956 517.31C520.002 519.001 517.983 520.806 516.043 522.472C517.51 521.894 518.941 521.366 520.415 520.777C522.32 519.197 524.299 517.495 526.214 515.89C524.787 516.357 523.388 516.814 521.96 517.299L521.956 517.31ZM528.229 511.833C526.207 513.596 524.167 515.401 522.177 517.128C523.601 516.642 525.025 516.2 526.449 515.701C528.425 514.049 530.433 512.344 532.419 510.67C531.006 511.066 529.618 511.43 528.233 511.823L528.229 511.833ZM534.602 506.261C532.523 508.084 530.472 509.864 528.407 511.662C529.831 511.266 531.191 510.902 532.597 510.503C534.627 508.797 536.645 507.106 538.689 505.373C537.325 505.676 535.976 505.958 534.602 506.261ZM541.06 500.621C538.924 502.504 536.88 504.26 534.766 506.115C536.136 505.812 537.489 505.533 538.863 505.226C540.942 503.464 542.964 501.802 545.058 500.011L541.06 500.621ZM547.493 494.913C545.385 496.796 543.303 498.627 541.209 500.478C542.548 500.271 543.872 500.079 545.211 499.868C547.276 498.106 549.316 496.383 551.398 494.592L547.493 494.913ZM553.865 489.151C551.8 491.003 549.672 492.972 547.625 494.795L551.541 494.474C553.552 492.744 555.642 490.878 557.667 489.123L553.865 489.151ZM560.323 483.308C558.212 485.216 556.08 487.164 553.983 489.044L557.778 489.016C559.836 487.232 561.929 485.388 564.001 483.579L560.323 483.308ZM566.86 477.396C564.702 479.355 562.57 481.278 560.434 483.211L564.111 483.483C566.212 481.649 568.301 479.829 570.416 477.974L566.86 477.396ZM573.464 471.421C571.267 473.433 569.142 475.32 566.963 477.304L570.523 477.882C572.659 476.001 574.745 474.214 576.899 472.309C575.76 472.027 574.617 471.728 573.471 471.431L573.464 471.421ZM580.082 465.356C577.885 467.379 575.738 469.323 573.56 471.317C574.704 471.617 575.849 471.913 576.995 472.206C579.131 470.318 581.235 468.474 583.403 466.562L580.082 465.356ZM586.657 459.206C584.521 461.196 582.292 463.312 580.167 465.27C581.267 465.674 582.371 466.08 583.474 466.476C585.557 464.621 587.747 462.616 589.829 460.729C588.779 460.258 587.722 459.744 586.664 459.234L586.657 459.206ZM580.053 465.235C582.189 463.269 584.407 461.15 586.554 459.17C415.229 376.761 216.2 428.65 101.79 472.834C212.145 438.643 402.523 400.338 580.06 465.263L580.053 465.235ZM573.435 471.299C575.617 469.298 577.768 467.375 579.968 465.327C401.737 400.167 210.539 439.064 100.427 473.365L96.4037 474.938C201.849 450.287 387.016 422.824 573.442 471.314L573.435 471.299ZM566.824 477.279C569.01 475.292 571.139 473.401 573.339 471.385C386.546 422.828 201.023 450.522 95.7237 475.224C94.2712 475.798 92.8365 476.365 91.4125 476.936C191.981 461.853 371.668 445.421 566.831 477.293L566.824 477.279ZM560.284 483.197C562.42 481.26 564.556 479.333 566.724 477.368C371.319 445.471 191.443 461.995 90.9781 477.093C89.4794 477.692 87.9841 478.292 86.5174 478.877C182.251 473.419 356.399 468.057 560.291 483.211L560.284 483.197ZM553.826 489.055C555.927 487.171 558.063 485.22 560.177 483.308C356.111 468.149 181.852 473.536 86.2148 479.027C84.6768 479.651 83.1816 480.268 81.6828 480.885C172.578 485.013 341.183 490.717 553.826 489.055ZM547.454 494.824C549.504 492.993 551.64 491.017 553.705 489.162C340.934 490.824 172.276 485.106 81.455 480.982C79.9063 481.62 78.3363 482.262 76.8269 482.894C162.888 496.639 325.982 513.403 547.457 494.824H547.454ZM541.017 500.532C543.117 498.669 545.204 496.839 547.322 494.952C325.761 513.524 162.646 496.736 76.6382 482.983C75.054 483.647 73.5374 484.296 72.0101 484.952C153.226 508.309 310.748 536.096 541.01 500.521L541.017 500.532ZM534.552 506.172C536.688 504.31 538.731 502.551 540.867 500.66C310.552 536.217 153.027 508.391 71.8428 485.017C70.255 485.691 68.685 486.365 67.1471 487.029C143.525 520.014 295.479 558.81 534.556 506.161L534.552 506.172ZM528.194 511.719C530.262 509.914 532.323 508.127 534.406 506.297C295.308 558.903 143.35 520.078 67.0189 487.075C65.4169 487.767 63.8148 488.456 62.2876 489.133C133.82 531.761 280.235 581.507 528.194 511.719ZM521.921 517.195C523.932 515.454 525.983 513.628 528.009 511.88C280.078 581.607 133.678 531.819 62.1808 489.183C60.5538 489.897 58.9767 490.61 57.4316 491.288C124.126 543.559 265.03 604.239 521.903 517.206L521.921 517.195ZM515.773 522.547C517.72 520.873 519.753 519.058 521.714 517.363C264.898 604.307 124.008 543.591 57.3284 491.32C55.7026 492.034 54.1089 492.747 52.5472 493.461C114.396 555.407 249.843 627 515.755 522.572L515.773 522.547ZM509.5 527.898C511.511 526.185 513.508 524.495 515.552 522.75C249.732 627.057 114.314 555.435 52.4618 493.497C50.8313 494.235 49.2043 494.97 47.6557 495.683C104.645 567.29 234.598 649.739 509.482 527.923L509.5 527.898ZM503.127 533.249C505.171 531.522 507.154 529.896 509.211 528.141C234.467 649.792 104.553 567.315 47.5418 495.74C45.8828 496.504 44.2879 497.246 42.725 497.981C94.8764 579.209 219.329 672.446 503.109 533.274L503.127 533.249ZM496.865 538.526C498.837 536.874 500.781 535.233 502.789 533.552C219.18 672.503 94.7696 579.256 42.6004 498.049C40.9272 498.833 39.3287 499.59 37.7623 500.339C85.1005 591.185 204.092 695.174 496.865 538.526ZM490.767 543.645C492.654 542.079 494.58 540.434 496.481 538.85C203.939 695.214 85.0008 591.225 37.6839 500.385C35.9929 501.188 34.3837 501.962 32.8244 502.718C75.3067 603.222 188.887 717.921 490.756 543.645H490.767ZM484.893 548.579C486.673 547.112 488.527 545.511 490.315 544.023C188.727 717.956 75.2106 603.244 32.7248 502.765C31.0159 503.596 29.3961 504.388 27.851 505.151C65.5023 615.341 173.725 740.753 484.882 548.579H484.893ZM478.634 553.691C480.546 552.128 482.429 550.616 484.355 549.028C173.543 740.753 65.3848 615.366 27.7407 505.201C26.0033 506.058 24.3657 506.875 22.842 507.642C55.6658 627.463 158.481 763.453 478.623 553.691H478.634ZM472.03 559.01C473.981 557.43 475.882 555.928 477.851 554.322C158.267 763.378 55.559 627.456 22.753 507.695C20.973 508.598 19.3247 509.432 17.8366 510.192C45.8044 639.589 143.187 786.01 472.019 559.01H472.03ZM465.494 564.265C467.331 562.795 469.171 561.315 471.015 559.823C142.927 785.842 45.6834 639.554 17.7226 510.253C15.8216 511.234 14.1626 512.101 12.7884 512.829C35.9324 651.786 127.935 808.535 465.483 564.265H465.494ZM459.128 569.391C460.77 568.086 462.461 566.702 464.112 565.378C127.636 808.25 35.8363 651.712 12.6958 512.886C9.57719 514.538 7.91108 515.469 7.7402 515.565C26.0639 664.087 112.759 831.093 459.128 569.391ZM7.71172 353.843C7.40911 355.916 -93.0382 1006.32 457.049 571.054C-72.0694 969.38 7.35571 363.468 7.60492 361.528H7.71172C7.62984 362.202 -2.04999 436.177 7.71172 515.437C7.96448 515.297 9.61279 514.366 12.6602 512.761C12.2947 510.535 11.9387 508.316 11.5922 506.104C9.10015 507.214 7.72952 507.849 7.67612 507.888L7.6334 507.791C7.69748 507.763 9.05742 507.124 11.5851 506.008C11.2291 503.714 10.9229 501.438 10.6096 499.162C8.73702 499.807 7.72596 500.175 7.67256 500.193L7.63696 500.093C7.69036 500.075 8.70498 499.704 10.5954 499.055C10.275 496.704 9.951 494.356 9.6662 492.027C8.40949 492.316 7.70816 492.487 7.66544 492.494L7.64408 492.391C7.6868 492.391 8.38813 492.212 9.65196 491.92C9.35647 489.49 9.09303 487.082 8.83314 484.681L7.65832 484.795V484.692L8.82602 484.574C8.55545 482.077 8.31337 479.58 8.08197 477.125L7.65832 477.097V476.99L8.06417 477.015C2.53182 418.005 7.55152 369.758 7.60136 369.23H7.70816C7.65832 369.758 2.63862 418.001 8.17453 477.011L11.909 477.247C11.578 474.888 11.2611 472.541 10.9727 470.222C8.8189 469.694 7.69036 469.394 7.64052 469.384L7.669 469.28C7.71528 469.28 8.82958 469.587 10.9585 470.108C10.6559 467.675 10.3675 465.253 10.1041 462.869C8.50917 462.124 7.669 461.699 7.62984 461.678L7.67612 461.582C7.71528 461.603 8.53765 462.017 10.0898 462.745C9.81216 460.222 9.57363 457.75 9.33867 455.296C8.22793 454.464 7.65476 453.997 7.62272 453.972L7.6868 453.89C7.71528 453.912 8.26353 454.357 9.32443 455.153C9.07878 452.542 8.85806 449.984 8.65514 447.454C7.99296 446.716 7.63696 446.291 7.6156 446.266L7.69392 446.195C7.71528 446.22 8.04993 446.612 8.6409 447.265C8.42729 444.571 8.23624 441.915 8.06773 439.299C7.78648 438.842 7.62984 438.586 7.6156 438.553L7.70816 438.5C7.70816 438.5 7.847 438.735 8.06417 439.071C5.71452 402.935 7.5978 377.289 7.61916 376.918H7.72596C7.7046 377.274 6.10257 399.093 7.69392 430.808H7.7224C7.74732 430.869 8.39169 432.432 9.71248 435.143C9.4609 432.527 9.23424 429.981 9.0325 427.505C8.07841 424.758 7.64052 423.224 7.60848 423.145L7.70816 423.113C7.72952 423.177 8.13537 424.594 8.98622 427.08C8.7655 424.319 8.57444 421.665 8.41305 419.118C7.87192 416.824 7.61916 415.504 7.60492 415.44L7.71172 415.418C7.71172 415.475 7.92532 416.546 8.37033 418.476C8.18521 415.518 8.01432 412.693 7.9182 410.06C7.71172 408.633 7.61204 407.787 7.60492 407.734H7.71172C7.71172 407.773 7.76868 408.223 7.87548 409.029C7.24891 394.085 7.5978 384.852 7.60492 384.641H7.71172C7.71172 384.756 7.60848 387.517 7.60848 392.344H7.71172C7.71172 392.511 7.74376 398.804 8.53409 409.254C8.97198 413.178 9.62704 418.258 10.5811 424.201C11.343 427.812 12.2828 431.904 13.4292 436.431C14.4652 439.592 15.6471 443.009 17.0213 446.691C18.2958 449.391 19.702 452.26 21.2934 455.281C22.7886 457.561 24.4049 459.944 26.1778 462.416C27.8795 464.291 29.7094 466.234 31.6674 468.246C33.5293 469.705 35.5336 471.221 37.627 472.769C39.6491 473.861 41.7887 474.985 44.0351 476.13C46.2352 476.89 48.5065 477.66 50.906 478.449C53.2628 478.882 55.7157 479.322 58.2647 479.769L65.9829 480.147C68.5936 479.976 71.2886 479.806 74.0678 479.637C76.8126 479.191 79.6429 478.741 82.5372 478.288C85.4066 477.575 88.3449 476.861 91.352 476.148C94.3068 475.196 97.3269 474.245 100.412 473.294C214.619 428.989 414.599 376.329 586.654 459.12C617.829 430.223 650.521 398.683 685.05 363.957C1180.95 -134.779 1481.44 -24.4439 1639.11 133.115C1728.52 222.449 1772.03 326.969 1779.22 344.25C1779.89 345.855 1780.19 346.726 1780.21 346.708L1780.28 346.787C1780.19 346.865 1779.83 345.988 1779.12 344.289C1771.93 327.012 1728.43 222.506 1639.04 133.186C1481.37 -24.3475 1180.95 -134.648 685.114 364.025C650.582 398.737 617.914 430.252 586.75 459.159L589.922 460.69C620.093 433.637 651.707 404.134 685.04 371.649C1193.32 -123.735 1504.44 20.949 1659.4 180.716C1733.83 257.453 1772.22 337.668 1779.14 352.116C1779.85 353.604 1780.18 354.41 1780.21 354.393L1780.28 354.475C1780.2 354.546 1779.81 353.733 1779.06 352.163C1772.14 337.718 1733.75 257.513 1659.33 180.787C1504.4 21.0524 1193.33 -123.595 685.114 371.72C651.792 404.184 620.196 433.68 590.029 460.736C591.096 461.243 592.164 461.739 593.233 462.27C622.425 437.059 652.924 409.592 685.057 379.344C1211.26 -116.022 1536.63 73.2521 1685.04 231.703C1741.89 292.382 1772.79 348.538 1779.09 359.986C1779.85 361.363 1780.2 362.127 1780.22 362.095L1780.29 362.173C1780.21 362.245 1779.8 361.492 1779 360.033C1772.7 348.585 1741.8 292.436 1684.97 231.77C1536.54 73.3591 1211.25 -115.879 685.111 379.422C652.992 409.66 622.486 437.119 593.318 462.32C594.358 462.841 595.383 463.415 596.415 463.947C624.625 440.562 654.088 415.09 685.04 387.042C1237.29 -113.193 1582.05 137.068 1716.24 285.936C1752.87 326.577 1773.82 359.658 1779 367.853C1779.8 369.123 1780.18 369.811 1780.2 369.793L1780.27 369.875C1780.19 369.94 1779.76 369.248 1778.91 367.91C1773.73 359.705 1752.79 326.637 1716.16 286.007C1581.97 137.164 1237.29 -113.053 685.111 387.121C654.16 415.161 624.714 440.633 596.518 464C597.555 464.536 598.587 465.096 599.619 465.641C626.85 444.079 655.242 420.598 685.04 394.745C1276.27 -118.233 1648.45 221.928 1751.22 340.954C1766.35 358.474 1775.64 371.206 1778.93 375.715C1779.78 376.878 1780.18 377.499 1780.2 377.499L1780.27 377.578C1780.2 377.638 1779.74 377.007 1778.85 375.794C1775.56 371.288 1766.27 358.559 1751.14 341.039C1648.38 222.017 1276.26 -118.087 685.111 394.823C655.324 420.666 626.943 444.144 599.723 465.695C600.762 466.237 601.799 466.785 602.834 467.34C629.086 447.601 656.413 426.106 685.043 402.443C1338.53 -137.716 1751.73 351.456 1778.85 383.568C1779.75 384.638 1780.18 385.209 1780.19 385.194L1780.26 385.276C1780.2 385.333 1779.71 384.756 1778.76 383.639C1751.64 351.531 1338.51 -137.573 685.111 402.525C656.495 426.178 629.179 447.665 602.941 467.393C603.98 467.95 605.027 468.463 606.067 469.048C631.343 451.129 657.591 431.618 685.043 410.142C1313.72 -81.6487 1750.13 362.277 1778.77 391.416C1779.72 392.383 1780.2 392.907 1780.2 392.897L1780.27 392.975C1780.21 393.029 1779.7 392.504 1778.7 391.491C1750.06 362.355 1313.71 -81.506 685.107 410.227C657.67 431.69 631.425 451.193 606.17 469.091C607.195 469.655 608.21 470.243 609.228 470.814C633.529 454.696 658.741 437.144 685.057 417.83C1288.87 -25.5605 1748.45 373.029 1778.71 399.25C1779.72 400.124 1780.21 400.599 1780.22 400.585L1780.29 400.667C1780.24 400.716 1779.7 400.246 1778.64 399.332C1748.41 373.115 1288.88 -25.425 685.132 417.919C658.845 437.223 633.646 454.764 609.356 470.871C610.371 471.442 611.375 472.049 612.386 472.627C635.733 458.3 659.909 442.699 685.072 425.536C1263.97 30.5741 1746.68 383.742 1778.61 407.092C1779.68 407.876 1780.21 408.301 1780.22 408.29L1780.29 408.369C1780.24 408.415 1779.67 408.012 1778.55 407.177C1746.64 383.828 1263.97 30.7061 685.132 425.621C659.984 442.777 635.825 458.371 612.507 472.691C613.52 473.273 614.535 473.861 615.551 474.453C637.94 461.913 661.07 448.257 685.089 433.234C1238.96 86.7444 1744.72 394.402 1778.49 414.929C1779.64 415.643 1780.21 416 1780.22 416L1780.29 416.082C1780.24 416.125 1779.63 415.75 1778.44 415.012C1744.69 394.481 1238.98 86.8621 685.139 433.32C661.141 448.332 638.025 461.978 615.654 474.51C616.676 475.102 617.701 475.677 618.719 476.294C640.136 465.538 662.22 453.819 685.086 440.94C1213.91 142.94 1742.55 405.005 1778.38 422.746C1779.62 423.359 1780.24 423.691 1780.25 423.684L1780.32 423.763C1780.28 423.802 1779.61 423.474 1778.34 422.839C1742.53 405.087 1213.93 143.047 685.157 441.033C662.309 453.908 640.247 465.609 618.847 476.351C619.854 476.955 620.86 477.56 621.866 478.167C642.329 469.184 663.377 459.402 685.107 448.635C1188.71 199.156 1739.96 415.564 1778.2 430.577C1779.56 431.112 1780.24 431.401 1780.25 431.393L1780.32 431.475C1780.28 431.511 1779.56 431.226 1778.16 430.676C1739.92 415.664 1188.71 199.274 685.154 448.731C663.437 459.484 642.433 469.259 621.977 478.238C622.963 478.841 623.938 479.487 624.928 480.097C644.458 472.873 664.491 464.999 685.093 456.334C1163.26 255.402 1736.61 426.099 1777.92 438.396C1779.45 438.853 1780.23 439.11 1780.23 439.11L1780.31 439.188C1779.49 439.009 1778.68 438.784 1777.89 438.514C1736.59 426.217 1163.26 255.53 685.132 456.448C664.537 465.103 644.547 472.966 625.02 480.186C626.014 480.8 627 481.431 627.99 482.056C646.58 476.585 665.616 470.582 685.097 464.047C1137.44 311.675 1731.96 436.656 1777.5 446.227C1779.31 446.609 1780.23 446.816 1780.23 446.809L1780.31 446.891C1780.27 446.919 1779.32 446.719 1777.47 446.334C1731.94 436.759 1137.45 311.786 685.129 464.15C665.667 470.707 646.66 476.701 628.107 482.13C629.104 482.762 630.104 483.375 631.097 484.018C648.741 480.293 666.742 476.204 685.1 471.749C1110.8 367.935 1724.37 447.283 1776.69 454.047C1779.03 454.35 1780.23 454.514 1780.23 454.511L1780.31 454.589C1780.27 454.618 1779.05 454.461 1776.68 454.154C1724.34 447.376 1110.81 368.038 685.125 471.849C666.784 476.323 648.818 480.406 631.229 484.1C632.226 484.742 633.23 485.359 634.223 486.012C650.908 484.028 667.868 481.84 685.104 479.448C1081.6 424.13 1707.56 458.25 1774.43 461.892L1780.23 462.21L1780.31 462.292C1780.27 462.317 1778.27 462.21 1774.43 461.999C1707.56 458.357 1081.61 424.237 685.118 479.551C667.916 481.953 650.996 484.138 634.358 486.105C635.309 486.736 636.249 487.417 637.206 488.052C652.99 487.796 668.961 487.494 685.122 487.146C999.294 480.368 1509.63 473.554 1702.85 470.975C1751.65 470.322 1780.21 469.94 1780.24 469.905L1780.32 469.983C1780.25 470.04 1751.68 470.422 1702.85 471.075C1509.65 473.654 999.297 480.472 685.122 487.246C669.006 487.591 653.086 487.893 637.36 488.152C638.31 488.794 639.257 489.455 640.208 490.107C655.072 491.565 670.046 493.143 685.129 494.841C807.972 508.701 970.867 511.402 1133.37 508.844C1457.52 503.735 1780.12 477.714 1780.23 477.603L1780.31 477.685C1780.18 477.796 1457.54 503.842 1133.36 508.947C970.853 511.509 807.969 508.808 685.104 494.945C670.087 493.252 655.179 491.681 640.379 490.232C641.336 490.885 642.294 491.534 643.248 492.202C657.18 495.377 671.139 498.825 685.125 502.547C799.279 533.067 959.101 541.322 1121.43 538.768C1445.79 533.659 1780.14 485.391 1780.23 485.309L1780.31 485.388C1780.21 485.473 1445.81 533.766 1121.44 538.872C959.097 541.429 799.25 533.164 685.1 502.647C671.204 498.935 657.333 495.509 643.486 492.369C644.476 493.054 645.473 493.707 646.456 494.406C659.4 499.265 672.292 504.546 685.132 510.249C790.692 557.43 947.595 571.254 1109.87 568.682C1434.3 563.573 1780.17 493.051 1780.23 493.008L1780.31 493.09C1780.24 493.143 1434.32 563.68 1109.88 568.789C947.584 571.346 790.663 557.533 685.089 510.346C672.394 504.673 659.628 499.476 646.822 494.649C647.68 495.273 648.531 495.937 649.393 496.561C661.436 503.118 673.373 510.196 685.143 517.945C782.13 581.778 936.149 601.142 1098.4 598.57C1422.84 593.479 1780.17 500.731 1780.2 500.703L1780.27 500.781C1780.24 500.81 1422.84 593.586 1098.37 598.695C936.099 601.253 782.055 581.885 685.043 518.037C673.494 510.435 661.785 503.478 649.966 497.021C662.191 505.918 673.922 515.476 685.107 525.654C950.407 767.138 1777.83 509.126 1780.22 508.391L1780.25 508.494C1777.86 509.229 950.396 767.259 685.036 525.729C673.666 515.382 661.734 505.675 649.293 496.65C647.196 495.501 645.11 494.328 643.006 493.222C640.633 492.344 638.259 491.483 635.886 490.639C633.515 490.115 631.147 489.611 628.766 489.105L621.236 488.391L613.279 488.531C610.574 488.83 607.872 489.128 605.173 489.422C602.289 489.983 599.438 490.518 596.583 491.056C593.517 491.884 590.477 492.683 587.444 493.479C584.24 494.549 581.068 495.619 577.903 496.689C574.72 497.952 571.516 499.251 568.358 500.482C565.446 501.794 562.551 503.086 559.672 504.356C556.194 506.104 552.794 507.742 549.376 509.397C545.709 511.402 542.089 513.321 538.472 515.262C534.698 517.477 530.928 519.689 527.186 521.858C523.683 524.045 520.155 526.271 516.691 528.397C513.606 530.438 510.544 532.435 507.506 534.387C503.75 536.991 500.101 539.428 496.441 541.879C492.248 544.908 488.146 547.787 484.035 550.68C479.762 553.891 475.49 557.044 471.265 560.166C467.195 563.341 463.116 566.523 459.16 569.52C-93.3942 1008.14 7.30231 355.905 7.60492 353.829L7.71172 353.843Z" fill="white"/>
</svg>
